<svg width="268" height="265" viewBox="0 0 268 265" fill="none" xmlns="http://www.w3.org/2000/svg">
<g filter="url(#filter0_d_0_148)">
<rect x="20" y="16" width="228" height="225" rx="8" fill="white"/>
<path d="M20 24C20 19.5817 23.5817 16 28 16H240C244.418 16 248 19.5817 248 24V105H20V24Z" fill="#D1140E"/>
<path d="M20 233C20 237.418 23.5817 241 28 241H240C244.418 241 248 237.418 248 233V145H20V233Z" fill="#293A4C"/>
<path fill-rule="evenodd" clip-rule="evenodd" d="M56 188.634L38 180V214.359L55.9846 223L74 214.359V180L56 188.634ZM56 197.069L56.0154 197.077V197.062L66.576 191.984V209.473L56 214.557L45.424 209.473V191.984L55.9846 197.062V197.077L56 197.069Z" fill="#C01818"/>
<path d="M35.2628 38H33.2855L36.2983 29.2727H38.6761L41.6847 38H39.7074L37.5213 31.267H37.4531L35.2628 38ZM35.1392 34.5696H39.8097V36.0099H35.1392V34.5696ZM44.5163 34.2159V38H42.701V31.4545H44.4311V32.6094H44.5078C44.6527 32.2287 44.8956 31.9276 45.2365 31.706C45.5774 31.4815 45.9908 31.3693 46.4766 31.3693C46.9311 31.3693 47.3274 31.4688 47.6655 31.6676C48.0036 31.8665 48.2663 32.1506 48.4538 32.5199C48.6413 32.8864 48.7351 33.3239 48.7351 33.8324V38H46.9197V34.1562C46.9226 33.7557 46.8203 33.4432 46.6129 33.2188C46.4055 32.9915 46.12 32.8778 45.7564 32.8778C45.5121 32.8778 45.2962 32.9304 45.1087 33.0355C44.924 33.1406 44.7791 33.294 44.674 33.4957C44.5717 33.6946 44.5192 33.9347 44.5163 34.2159ZM53.6474 31.4545V32.8182H49.7056V31.4545H53.6474ZM50.6005 29.8864H52.4158V35.9886C52.4158 36.1562 52.4414 36.2869 52.4925 36.3807C52.5437 36.4716 52.6147 36.5355 52.7056 36.5724C52.7994 36.6094 52.9073 36.6278 53.0295 36.6278C53.1147 36.6278 53.1999 36.6207 53.2852 36.6065C53.3704 36.5895 53.4357 36.5767 53.4812 36.5682L53.7667 37.919C53.6758 37.9474 53.5479 37.9801 53.3832 38.017C53.2184 38.0568 53.0181 38.081 52.7823 38.0895C52.3448 38.1065 51.9613 38.0483 51.6317 37.9148C51.305 37.7812 51.0508 37.5739 50.869 37.2926C50.6871 37.0114 50.5977 36.6562 50.6005 36.2273V29.8864ZM54.8299 38V31.4545H56.6452V38H54.8299ZM55.7418 30.6108C55.4719 30.6108 55.2404 30.5213 55.0472 30.3423C54.8569 30.1605 54.7617 29.9432 54.7617 29.6903C54.7617 29.4403 54.8569 29.2259 55.0472 29.0469C55.2404 28.8651 55.4719 28.7741 55.7418 28.7741C56.0117 28.7741 56.2418 28.8651 56.4322 29.0469C56.6254 29.2259 56.7219 29.4403 56.7219 29.6903C56.7219 29.9432 56.6254 30.1605 56.4322 30.3423C56.2418 30.5213 56.0117 30.6108 55.7418 30.6108ZM64.2017 31.4545L61.9134 38H59.8679L57.5795 31.4545H59.4972L60.8565 36.1378H60.9247L62.2798 31.4545H64.2017ZM65.1307 38V31.4545H66.946V38H65.1307ZM66.0426 30.6108C65.7727 30.6108 65.5412 30.5213 65.348 30.3423C65.1577 30.1605 65.0625 29.9432 65.0625 29.6903C65.0625 29.4403 65.1577 29.2259 65.348 29.0469C65.5412 28.8651 65.7727 28.7741 66.0426 28.7741C66.3125 28.7741 66.5426 28.8651 66.733 29.0469C66.9261 29.2259 67.0227 29.4403 67.0227 29.6903C67.0227 29.9432 66.9261 30.1605 66.733 30.3423C66.5426 30.5213 66.3125 30.6108 66.0426 30.6108ZM68.4002 38V31.4545H70.1602V32.5966H70.2283C70.3477 32.1903 70.5479 31.8835 70.8292 31.6761C71.1104 31.4659 71.4343 31.3608 71.8008 31.3608C71.8917 31.3608 71.9897 31.3665 72.0948 31.3778C72.1999 31.3892 72.2923 31.4048 72.3718 31.4247V33.0355C72.2866 33.0099 72.1687 32.9872 72.0181 32.9673C71.8675 32.9474 71.7298 32.9375 71.6048 32.9375C71.3377 32.9375 71.0991 32.9957 70.8888 33.1122C70.6815 33.2259 70.5167 33.3849 70.3945 33.5895C70.2752 33.794 70.2156 34.0298 70.2156 34.2969V38H68.4002ZM77.5078 35.2131V31.4545H79.3232V38H77.5803V36.8111H77.5121C77.3643 37.1946 77.1186 37.5028 76.7749 37.7358C76.4339 37.9687 76.0178 38.0852 75.5263 38.0852C75.0888 38.0852 74.7038 37.9858 74.3714 37.7869C74.0391 37.5881 73.7791 37.3054 73.5916 36.9389C73.407 36.5724 73.3132 36.1335 73.3104 35.6222V31.4545H75.1257V35.2983C75.1286 35.6847 75.2322 35.9901 75.4368 36.2145C75.6413 36.4389 75.9155 36.5511 76.2592 36.5511C76.478 36.5511 76.6825 36.5014 76.8729 36.402C77.0632 36.2997 77.2166 36.1491 77.3331 35.9503C77.4524 35.7514 77.5107 35.5057 77.5078 35.2131ZM86.2212 33.321L84.5593 33.4233C84.5309 33.2812 84.4698 33.1534 84.3761 33.0398C84.2823 32.9233 84.1587 32.831 84.0053 32.7628C83.8548 32.6918 83.6744 32.6562 83.4641 32.6562C83.1829 32.6562 82.9457 32.7159 82.7525 32.8352C82.5593 32.9517 82.4627 33.108 82.4627 33.304C82.4627 33.4602 82.5252 33.5923 82.6502 33.7003C82.7752 33.8082 82.9897 33.8949 83.2937 33.9602L84.4783 34.1989C85.1147 34.3295 85.5891 34.5398 85.9016 34.8295C86.2141 35.1193 86.3704 35.5 86.3704 35.9716C86.3704 36.4006 86.244 36.777 85.9911 37.1009C85.7411 37.4247 85.3974 37.6776 84.9599 37.8594C84.5252 38.0384 84.0238 38.1278 83.4556 38.1278C82.5891 38.1278 81.8988 37.9474 81.3846 37.5866C80.8732 37.223 80.5735 36.7287 80.4854 36.1037L82.271 36.0099C82.3249 36.2741 82.4556 36.4759 82.663 36.6151C82.8704 36.7514 83.136 36.8196 83.4599 36.8196C83.7781 36.8196 84.0337 36.7585 84.2269 36.6364C84.4229 36.5114 84.5224 36.3509 84.5252 36.1548C84.5224 35.9901 84.4528 35.8551 84.3164 35.75C84.18 35.642 83.9698 35.5597 83.6857 35.5028L82.5522 35.277C81.913 35.1491 81.4371 34.9276 81.1246 34.6122C80.815 34.2969 80.6602 33.8949 80.6602 33.4062C80.6602 32.9858 80.7738 32.6236 81.0011 32.3196C81.2312 32.0156 81.5536 31.7812 81.9684 31.6165C82.386 31.4517 82.8746 31.3693 83.4343 31.3693C84.261 31.3693 84.9116 31.544 85.386 31.8935C85.8633 32.2429 86.1417 32.7187 86.2212 33.321Z" fill="white"/>
<path d="M69.2551 76.6312L55.0748 52.0651C54.7128 51.4373 54.1918 50.9159 53.5642 50.5534C52.9367 50.1909 52.2247 50 51.5 50C50.7753 50 50.0633 50.1909 49.4358 50.5534C48.8082 50.9159 48.2872 51.4373 47.9252 52.0651L33.7449 76.6312C33.2558 77.4822 32.9989 78.4467 33 79.4283C33.0011 80.4098 33.2601 81.3738 33.7511 82.2237C34.2421 83.0736 34.9479 83.7796 35.7977 84.2708C36.6474 84.762 37.6114 85.0213 38.5929 85.0227H64.4071C65.3886 85.0213 66.3526 84.762 67.2023 84.2708C68.0521 83.7796 68.7579 83.0736 69.2489 82.2237C69.7399 81.3738 69.9989 80.4098 70 79.4283C70.0011 78.4467 69.7442 77.4822 69.2551 76.6312ZM51.5 81.0464C50.9933 81.0539 50.4958 80.9099 50.0714 80.633C49.6469 80.3561 49.3148 79.9588 49.1174 79.4921C48.92 79.0253 48.8664 78.5102 48.9635 78.0128C49.0605 77.5154 49.3038 77.0583 49.6621 76.6999C50.0205 76.3415 50.4776 76.0983 50.975 76.0012C51.4725 75.9042 51.9875 75.9578 52.4543 76.1551C52.9211 76.3525 53.3183 76.6847 53.5952 77.1091C53.8722 77.5336 54.0161 78.031 54.0087 78.5378C54.0005 79.2006 53.7336 79.8339 53.2649 80.3027C52.7962 80.7714 52.1628 81.0383 51.5 81.0464ZM54.9745 62.0119L54.1655 72.2159C54.1191 72.8912 53.8181 73.5238 53.3234 73.9858C52.8286 74.4477 52.1769 74.7047 51.5 74.7047C50.8231 74.7047 50.1714 74.4477 49.6766 73.9858C49.1819 73.5238 48.8809 72.8912 48.8345 72.2159L48.0255 62.0119C47.9846 61.5308 48.044 61.0465 48.2001 60.5896C48.3561 60.1326 48.6053 59.7131 48.9319 59.3575C49.2586 59.0019 49.6555 58.718 50.0975 58.5238C50.5396 58.3296 51.0172 58.2294 51.5 58.2294C51.9828 58.2294 52.4604 58.3296 52.9025 58.5238C53.3445 58.718 53.7414 59.0019 54.0681 59.3575C54.3947 59.7131 54.6439 60.1326 54.7999 60.5896C54.956 61.0465 55.0154 61.5308 54.9745 62.0119Z" fill="white"/>
<rect x="78" y="50" width="153" height="4" rx="2" fill="white"/>
<rect x="83" y="184" width="144" height="7" rx="3.5" fill="white"/>
<rect x="83" y="199" width="84" height="4" rx="2" fill="white"/>
<rect opacity="0.5" x="83" y="207" width="84" height="4" rx="2" fill="white"/>
<rect x="78" y="58" width="153" height="4" rx="2" fill="white"/>
<rect x="78" y="72" width="82" height="9" rx="4.5" fill="white"/>
<rect x="33" y="130" width="13" height="2" fill="#FE7772"/>
<rect x="33" y="127" width="13" height="2" fill="#FE7772"/>
<rect x="33" y="124" width="13" height="2" fill="#FE7772"/>
<rect x="33" y="121" width="13" height="2" fill="#FE7772"/>
<rect opacity="0.2" x="33" y="118" width="13" height="2" fill="#FE7772"/>
<rect x="155" y="111" width="78" height="28" rx="14" fill="#1F8FFE"/>
<rect x="172" y="123" width="44" height="4" rx="2" fill="white"/>
<path d="M58.067 120.7H59.525V127H58.067V120.7ZM55.205 127H53.747V120.7H55.205V127ZM58.175 124.417H55.097V123.184H58.175V124.417ZM60.9166 127V122.158H62.3206V127H60.9166ZM61.6186 121.483C61.3606 121.483 61.1506 121.408 60.9886 121.258C60.8266 121.108 60.7456 120.922 60.7456 120.7C60.7456 120.478 60.8266 120.292 60.9886 120.142C61.1506 119.992 61.3606 119.917 61.6186 119.917C61.8766 119.917 62.0866 119.989 62.2486 120.133C62.4106 120.271 62.4916 120.451 62.4916 120.673C62.4916 120.907 62.4106 121.102 62.2486 121.258C62.0926 121.408 61.8826 121.483 61.6186 121.483ZM65.9006 128.818C65.4446 128.818 65.0036 128.761 64.5776 128.647C64.1576 128.539 63.8066 128.374 63.5246 128.152L64.0826 127.144C64.2866 127.312 64.5446 127.444 64.8566 127.54C65.1746 127.642 65.4866 127.693 65.7926 127.693C66.2906 127.693 66.6506 127.582 66.8726 127.36C67.1006 127.138 67.2146 126.808 67.2146 126.37V125.641L67.3046 124.426L67.2866 123.202V122.158H68.6186V126.19C68.6186 127.09 68.3846 127.753 67.9166 128.179C67.4486 128.605 66.7766 128.818 65.9006 128.818ZM65.6846 126.766C65.2346 126.766 64.8266 126.67 64.4606 126.478C64.1006 126.28 63.8096 126.007 63.5876 125.659C63.3716 125.305 63.2636 124.894 63.2636 124.426C63.2636 123.952 63.3716 123.541 63.5876 123.193C63.8096 122.839 64.1006 122.566 64.4606 122.374C64.8266 122.182 65.2346 122.086 65.6846 122.086C66.0926 122.086 66.4526 122.17 66.7646 122.338C67.0766 122.5 67.3196 122.755 67.4936 123.103C67.6676 123.445 67.7546 123.886 67.7546 124.426C67.7546 124.96 67.6676 125.401 67.4936 125.749C67.3196 126.091 67.0766 126.346 66.7646 126.514C66.4526 126.682 66.0926 126.766 65.6846 126.766ZM65.9636 125.614C66.2096 125.614 66.4286 125.566 66.6206 125.47C66.8126 125.368 66.9626 125.227 67.0706 125.047C67.1786 124.867 67.2326 124.66 67.2326 124.426C67.2326 124.186 67.1786 123.979 67.0706 123.805C66.9626 123.625 66.8126 123.487 66.6206 123.391C66.4286 123.289 66.2096 123.238 65.9636 123.238C65.7176 123.238 65.4986 123.289 65.3066 123.391C65.1146 123.487 64.9616 123.625 64.8476 123.805C64.7396 123.979 64.6856 124.186 64.6856 124.426C64.6856 124.66 64.7396 124.867 64.8476 125.047C64.9616 125.227 65.1146 125.368 65.3066 125.47C65.4986 125.566 65.7176 125.614 65.9636 125.614ZM72.8683 122.086C73.2523 122.086 73.5943 122.164 73.8943 122.32C74.2003 122.47 74.4403 122.704 74.6143 123.022C74.7883 123.334 74.8753 123.736 74.8753 124.228V127H73.4713V124.444C73.4713 124.054 73.3843 123.766 73.2103 123.58C73.0423 123.394 72.8023 123.301 72.4903 123.301C72.2683 123.301 72.0673 123.349 71.8873 123.445C71.7133 123.535 71.5753 123.676 71.4733 123.868C71.3773 124.06 71.3293 124.306 71.3293 124.606V127H69.9253V120.322H71.3293V123.499L71.0143 123.094C71.1883 122.77 71.4373 122.521 71.7613 122.347C72.0853 122.173 72.4543 122.086 72.8683 122.086ZM78.7958 127V120.7H81.5228C82.0868 120.7 82.5728 120.793 82.9808 120.979C83.3888 121.159 83.7038 121.42 83.9258 121.762C84.1478 122.104 84.2588 122.512 84.2588 122.986C84.2588 123.454 84.1478 123.859 83.9258 124.201C83.7038 124.537 83.3888 124.795 82.9808 124.975C82.5728 125.155 82.0868 125.245 81.5228 125.245H79.6058L80.2538 124.606V127H78.7958ZM82.8008 127L81.2258 124.714H82.7828L84.3758 127H82.8008ZM80.2538 124.768L79.6058 124.084H81.4418C81.8918 124.084 82.2278 123.988 82.4498 123.796C82.6718 123.598 82.7828 123.328 82.7828 122.986C82.7828 122.638 82.6718 122.368 82.4498 122.176C82.2278 121.984 81.8918 121.888 81.4418 121.888H79.6058L80.2538 121.195V124.768ZM85.315 127V122.158H86.719V127H85.315ZM86.017 121.483C85.759 121.483 85.549 121.408 85.387 121.258C85.225 121.108 85.144 120.922 85.144 120.7C85.144 120.478 85.225 120.292 85.387 120.142C85.549 119.992 85.759 119.917 86.017 119.917C86.275 119.917 86.485 119.989 86.647 120.133C86.809 120.271 86.89 120.451 86.89 120.673C86.89 120.907 86.809 121.102 86.647 121.258C86.491 121.408 86.281 121.483 86.017 121.483ZM89.651 127.072C89.237 127.072 88.838 127.024 88.454 126.928C88.076 126.826 87.776 126.7 87.554 126.55L88.022 125.542C88.244 125.68 88.505 125.794 88.805 125.884C89.111 125.968 89.411 126.01 89.705 126.01C90.029 126.01 90.257 125.971 90.389 125.893C90.527 125.815 90.596 125.707 90.596 125.569C90.596 125.455 90.542 125.371 90.434 125.317C90.332 125.257 90.194 125.212 90.02 125.182C89.846 125.152 89.654 125.122 89.444 125.092C89.24 125.062 89.033 125.023 88.823 124.975C88.613 124.921 88.421 124.843 88.247 124.741C88.073 124.639 87.932 124.501 87.824 124.327C87.722 124.153 87.671 123.928 87.671 123.652C87.671 123.346 87.758 123.076 87.932 122.842C88.112 122.608 88.37 122.425 88.706 122.293C89.042 122.155 89.444 122.086 89.912 122.086C90.242 122.086 90.578 122.122 90.92 122.194C91.262 122.266 91.547 122.371 91.775 122.509L91.307 123.508C91.073 123.37 90.836 123.277 90.596 123.229C90.362 123.175 90.134 123.148 89.912 123.148C89.6 123.148 89.372 123.19 89.228 123.274C89.084 123.358 89.012 123.466 89.012 123.598C89.012 123.718 89.063 123.808 89.165 123.868C89.273 123.928 89.414 123.976 89.588 124.012C89.762 124.048 89.951 124.081 90.155 124.111C90.365 124.135 90.575 124.174 90.785 124.228C90.995 124.282 91.184 124.36 91.352 124.462C91.526 124.558 91.667 124.693 91.775 124.867C91.883 125.035 91.937 125.257 91.937 125.533C91.937 125.833 91.847 126.1 91.667 126.334C91.487 126.562 91.226 126.742 90.884 126.874C90.548 127.006 90.137 127.072 89.651 127.072ZM93.9643 126.01L94.0003 124.3L96.2593 122.158H97.9333L95.7643 124.363L95.0353 124.957L93.9643 126.01ZM92.8033 127V120.322H94.2073V127H92.8033ZM96.4123 127L94.7743 124.966L95.6563 123.877L98.1133 127H96.4123Z" fill="black"/>
<path d="M59.789 164.072C59.303 164.072 58.856 163.994 58.448 163.838C58.04 163.676 57.686 163.451 57.386 163.163C57.086 162.869 56.852 162.527 56.684 162.137C56.516 161.747 56.432 161.318 56.432 160.85C56.432 160.382 56.516 159.953 56.684 159.563C56.852 159.173 57.086 158.834 57.386 158.546C57.692 158.252 58.049 158.027 58.457 157.871C58.865 157.709 59.315 157.628 59.807 157.628C60.305 157.628 60.761 157.709 61.175 157.871C61.589 158.033 61.94 158.276 62.228 158.6L61.67 159.158C61.412 158.906 61.13 158.723 60.824 158.609C60.524 158.489 60.197 158.429 59.843 158.429C59.483 158.429 59.147 158.489 58.835 158.609C58.529 158.729 58.262 158.897 58.034 159.113C57.812 159.329 57.638 159.587 57.512 159.887C57.392 160.181 57.332 160.502 57.332 160.85C57.332 161.192 57.392 161.513 57.512 161.813C57.638 162.107 57.812 162.365 58.034 162.587C58.262 162.803 58.529 162.971 58.835 163.091C59.141 163.211 59.474 163.271 59.834 163.271C60.17 163.271 60.491 163.22 60.797 163.118C61.109 163.01 61.397 162.833 61.661 162.587L62.174 163.271C61.862 163.535 61.496 163.736 61.076 163.874C60.662 164.006 60.233 164.072 59.789 164.072ZM61.31 163.154V160.814H62.174V163.271L61.31 163.154ZM65.8141 164.054C65.3341 164.054 64.9081 163.949 64.5361 163.739C64.1641 163.529 63.8701 163.241 63.6541 162.875C63.4381 162.503 63.3301 162.083 63.3301 161.615C63.3301 161.141 63.4381 160.721 63.6541 160.355C63.8701 159.989 64.1641 159.704 64.5361 159.5C64.9081 159.29 65.3341 159.185 65.8141 159.185C66.2881 159.185 66.7111 159.29 67.0831 159.5C67.4611 159.704 67.7551 159.989 67.9651 160.355C68.1811 160.715 68.2891 161.135 68.2891 161.615C68.2891 162.089 68.1811 162.509 67.9651 162.875C67.7551 163.241 67.4611 163.529 67.0831 163.739C66.7111 163.949 66.2881 164.054 65.8141 164.054ZM65.8141 163.298C66.1201 163.298 66.3931 163.229 66.6331 163.091C66.8791 162.953 67.0711 162.758 67.2091 162.506C67.3471 162.248 67.4161 161.951 67.4161 161.615C67.4161 161.273 67.3471 160.979 67.2091 160.733C67.0711 160.481 66.8791 160.286 66.6331 160.148C66.3931 160.01 66.1201 159.941 65.8141 159.941C65.5081 159.941 65.2351 160.01 64.9951 160.148C64.7551 160.286 64.5631 160.481 64.4191 160.733C64.2751 160.979 64.2031 161.273 64.2031 161.615C64.2031 161.951 64.2751 162.248 64.4191 162.506C64.5631 162.758 64.7551 162.953 64.9951 163.091C65.2351 163.229 65.5081 163.298 65.8141 163.298ZM71.527 164.054C71.047 164.054 70.621 163.949 70.249 163.739C69.877 163.529 69.583 163.241 69.367 162.875C69.151 162.503 69.043 162.083 69.043 161.615C69.043 161.141 69.151 160.721 69.367 160.355C69.583 159.989 69.877 159.704 70.249 159.5C70.621 159.29 71.047 159.185 71.527 159.185C72.001 159.185 72.424 159.29 72.796 159.5C73.174 159.704 73.468 159.989 73.678 160.355C73.894 160.715 74.002 161.135 74.002 161.615C74.002 162.089 73.894 162.509 73.678 162.875C73.468 163.241 73.174 163.529 72.796 163.739C72.424 163.949 72.001 164.054 71.527 164.054ZM71.527 163.298C71.833 163.298 72.106 163.229 72.346 163.091C72.592 162.953 72.784 162.758 72.922 162.506C73.06 162.248 73.129 161.951 73.129 161.615C73.129 161.273 73.06 160.979 72.922 160.733C72.784 160.481 72.592 160.286 72.346 160.148C72.106 160.01 71.833 159.941 71.527 159.941C71.221 159.941 70.948 160.01 70.708 160.148C70.468 160.286 70.276 160.481 70.132 160.733C69.988 160.979 69.916 161.273 69.916 161.615C69.916 161.951 69.988 162.248 70.132 162.506C70.276 162.758 70.468 162.953 70.708 163.091C70.948 163.229 71.221 163.298 71.527 163.298ZM77.2849 165.8C76.8469 165.8 76.4209 165.737 76.0069 165.611C75.5989 165.491 75.2659 165.317 75.0079 165.089L75.4219 164.423C75.6439 164.615 75.9169 164.765 76.2409 164.873C76.5649 164.987 76.9039 165.044 77.2579 165.044C77.8219 165.044 78.2359 164.912 78.4999 164.648C78.7639 164.384 78.8959 163.982 78.8959 163.442V162.434L78.9859 161.489L78.9409 160.535V159.23H79.7599V163.352C79.7599 164.192 79.5499 164.81 79.1299 165.206C78.7099 165.602 78.0949 165.8 77.2849 165.8ZM77.1769 163.802C76.7149 163.802 76.3009 163.706 75.9349 163.514C75.5749 163.316 75.2869 163.043 75.0709 162.695C74.8609 162.347 74.7559 161.945 74.7559 161.489C74.7559 161.027 74.8609 160.625 75.0709 160.283C75.2869 159.935 75.5749 159.665 75.9349 159.473C76.3009 159.281 76.7149 159.185 77.1769 159.185C77.5849 159.185 77.9569 159.269 78.2929 159.437C78.6289 159.599 78.8959 159.851 79.0939 160.193C79.2979 160.535 79.3999 160.967 79.3999 161.489C79.3999 162.005 79.2979 162.434 79.0939 162.776C78.8959 163.118 78.6289 163.376 78.2929 163.55C77.9569 163.718 77.5849 163.802 77.1769 163.802ZM77.2759 163.046C77.5939 163.046 77.8759 162.98 78.1219 162.848C78.3679 162.716 78.5599 162.533 78.6979 162.299C78.8419 162.065 78.9139 161.795 78.9139 161.489C78.9139 161.183 78.8419 160.913 78.6979 160.679C78.5599 160.445 78.3679 160.265 78.1219 160.139C77.8759 160.007 77.5939 159.941 77.2759 159.941C76.9579 159.941 76.6729 160.007 76.4209 160.139C76.1749 160.265 75.9799 160.445 75.8359 160.679C75.6979 160.913 75.6289 161.183 75.6289 161.489C75.6289 161.795 75.6979 162.065 75.8359 162.299C75.9799 162.533 76.1749 162.716 76.4209 162.848C76.6729 162.98 76.9579 163.046 77.2759 163.046ZM81.4108 164V157.322H82.2748V164H81.4108ZM86.0485 164.054C85.5385 164.054 85.0885 163.949 84.6985 163.739C84.3145 163.529 84.0145 163.241 83.7985 162.875C83.5885 162.509 83.4835 162.089 83.4835 161.615C83.4835 161.141 83.5855 160.721 83.7895 160.355C83.9995 159.989 84.2845 159.704 84.6445 159.5C85.0105 159.29 85.4215 159.185 85.8775 159.185C86.3395 159.185 86.7475 159.287 87.1015 159.491C87.4555 159.695 87.7315 159.983 87.9295 160.355C88.1335 160.721 88.2355 161.15 88.2355 161.642C88.2355 161.678 88.2325 161.72 88.2265 161.768C88.2265 161.816 88.2235 161.861 88.2175 161.903H84.1585V161.282H87.7675L87.4165 161.498C87.4225 161.192 87.3595 160.919 87.2275 160.679C87.0955 160.439 86.9125 160.253 86.6785 160.121C86.4505 159.983 86.1835 159.914 85.8775 159.914C85.5775 159.914 85.3105 159.983 85.0765 160.121C84.8425 160.253 84.6595 160.442 84.5275 160.688C84.3955 160.928 84.3295 161.204 84.3295 161.516V161.66C84.3295 161.978 84.4015 162.263 84.5455 162.515C84.6955 162.761 84.9025 162.953 85.1665 163.091C85.4305 163.229 85.7335 163.298 86.0755 163.298C86.3575 163.298 86.6125 163.25 86.8405 163.154C87.0745 163.058 87.2785 162.914 87.4525 162.722L87.9295 163.28C87.7135 163.532 87.4435 163.724 87.1195 163.856C86.8015 163.988 86.4445 164.054 86.0485 164.054ZM94.7952 164.072C94.3152 164.072 93.8712 163.994 93.4632 163.838C93.0612 163.676 92.7102 163.451 92.4102 163.163C92.1162 162.869 91.8852 162.527 91.7172 162.137C91.5492 161.747 91.4652 161.318 91.4652 160.85C91.4652 160.382 91.5492 159.953 91.7172 159.563C91.8852 159.173 92.1192 158.834 92.4192 158.546C92.7192 158.252 93.0702 158.027 93.4722 157.871C93.8802 157.709 94.3242 157.628 94.8042 157.628C95.2902 157.628 95.7372 157.712 96.1452 157.88C96.5592 158.042 96.9102 158.285 97.1982 158.609L96.6132 159.176C96.3732 158.924 96.1032 158.738 95.8032 158.618C95.5032 158.492 95.1822 158.429 94.8402 158.429C94.4862 158.429 94.1562 158.489 93.8502 158.609C93.5502 158.729 93.2892 158.897 93.0672 159.113C92.8452 159.329 92.6712 159.587 92.5452 159.887C92.4252 160.181 92.3652 160.502 92.3652 160.85C92.3652 161.198 92.4252 161.522 92.5452 161.822C92.6712 162.116 92.8452 162.371 93.0672 162.587C93.2892 162.803 93.5502 162.971 93.8502 163.091C94.1562 163.211 94.4862 163.271 94.8402 163.271C95.1822 163.271 95.5032 163.211 95.8032 163.091C96.1032 162.965 96.3732 162.773 96.6132 162.515L97.1982 163.082C96.9102 163.406 96.5592 163.652 96.1452 163.82C95.7372 163.988 95.2872 164.072 94.7952 164.072ZM100.903 159.185C101.293 159.185 101.635 159.26 101.929 159.41C102.229 159.56 102.463 159.788 102.631 160.094C102.799 160.4 102.883 160.787 102.883 161.255V164H102.019V161.354C102.019 160.892 101.905 160.544 101.677 160.31C101.455 160.076 101.14 159.959 100.732 159.959C100.426 159.959 100.159 160.019 99.9311 160.139C99.7031 160.259 99.5261 160.436 99.4001 160.67C99.2801 160.904 99.2201 161.195 99.2201 161.543V164H98.3561V157.322H99.2201V160.517L99.0491 160.175C99.2051 159.863 99.4451 159.62 99.7691 159.446C100.093 159.272 100.471 159.185 100.903 159.185ZM104.482 164V159.23H105.31V160.526L105.229 160.202C105.361 159.872 105.583 159.62 105.895 159.446C106.207 159.272 106.591 159.185 107.047 159.185V160.022C107.011 160.016 106.975 160.013 106.939 160.013C106.909 160.013 106.879 160.013 106.849 160.013C106.387 160.013 106.021 160.151 105.751 160.427C105.481 160.703 105.346 161.102 105.346 161.624V164H104.482ZM110.111 164.054C109.631 164.054 109.205 163.949 108.833 163.739C108.461 163.529 108.167 163.241 107.951 162.875C107.735 162.503 107.627 162.083 107.627 161.615C107.627 161.141 107.735 160.721 107.951 160.355C108.167 159.989 108.461 159.704 108.833 159.5C109.205 159.29 109.631 159.185 110.111 159.185C110.585 159.185 111.008 159.29 111.38 159.5C111.758 159.704 112.052 159.989 112.262 160.355C112.478 160.715 112.586 161.135 112.586 161.615C112.586 162.089 112.478 162.509 112.262 162.875C112.052 163.241 111.758 163.529 111.38 163.739C111.008 163.949 110.585 164.054 110.111 164.054ZM110.111 163.298C110.417 163.298 110.69 163.229 110.93 163.091C111.176 162.953 111.368 162.758 111.506 162.506C111.644 162.248 111.713 161.951 111.713 161.615C111.713 161.273 111.644 160.979 111.506 160.733C111.368 160.481 111.176 160.286 110.93 160.148C110.69 160.01 110.417 159.941 110.111 159.941C109.805 159.941 109.532 160.01 109.292 160.148C109.052 160.286 108.86 160.481 108.716 160.733C108.572 160.979 108.5 161.273 108.5 161.615C108.5 161.951 108.572 162.248 108.716 162.506C108.86 162.758 109.052 162.953 109.292 163.091C109.532 163.229 109.805 163.298 110.111 163.298ZM119.748 159.185C120.132 159.185 120.471 159.26 120.765 159.41C121.059 159.56 121.287 159.788 121.449 160.094C121.617 160.4 121.701 160.787 121.701 161.255V164H120.837V161.354C120.837 160.892 120.729 160.544 120.513 160.31C120.297 160.076 119.994 159.959 119.604 159.959C119.316 159.959 119.064 160.019 118.848 160.139C118.632 160.259 118.464 160.436 118.344 160.67C118.23 160.904 118.173 161.195 118.173 161.543V164H117.309V161.354C117.309 160.892 117.201 160.544 116.985 160.31C116.775 160.076 116.472 159.959 116.076 159.959C115.794 159.959 115.545 160.019 115.329 160.139C115.113 160.259 114.945 160.436 114.825 160.67C114.705 160.904 114.645 161.195 114.645 161.543V164H113.781V159.23H114.609V160.499L114.474 160.175C114.624 159.863 114.855 159.62 115.167 159.446C115.479 159.272 115.842 159.185 116.256 159.185C116.712 159.185 117.105 159.299 117.435 159.527C117.765 159.749 117.981 160.088 118.083 160.544L117.732 160.4C117.876 160.034 118.128 159.74 118.488 159.518C118.848 159.296 119.268 159.185 119.748 159.185ZM125.415 164.054C124.905 164.054 124.455 163.949 124.065 163.739C123.681 163.529 123.381 163.241 123.165 162.875C122.955 162.509 122.85 162.089 122.85 161.615C122.85 161.141 122.952 160.721 123.156 160.355C123.366 159.989 123.651 159.704 124.011 159.5C124.377 159.29 124.788 159.185 125.244 159.185C125.706 159.185 126.114 159.287 126.468 159.491C126.822 159.695 127.098 159.983 127.296 160.355C127.5 160.721 127.602 161.15 127.602 161.642C127.602 161.678 127.599 161.72 127.593 161.768C127.593 161.816 127.59 161.861 127.584 161.903H123.525V161.282H127.134L126.783 161.498C126.789 161.192 126.726 160.919 126.594 160.679C126.462 160.439 126.279 160.253 126.045 160.121C125.817 159.983 125.55 159.914 125.244 159.914C124.944 159.914 124.677 159.983 124.443 160.121C124.209 160.253 124.026 160.442 123.894 160.688C123.762 160.928 123.696 161.204 123.696 161.516V161.66C123.696 161.978 123.768 162.263 123.912 162.515C124.062 162.761 124.269 162.953 124.533 163.091C124.797 163.229 125.1 163.298 125.442 163.298C125.724 163.298 125.979 163.25 126.207 163.154C126.441 163.058 126.645 162.914 126.819 162.722L127.296 163.28C127.08 163.532 126.81 163.724 126.486 163.856C126.168 163.988 125.811 164.054 125.415 164.054Z" fill="white"/>
<g clip-path="url(#clip0_0_148)">
<path d="M41.5 165.248C43.5711 165.248 45.25 163.569 45.25 161.498C45.25 159.427 43.5711 157.748 41.5 157.748C39.4289 157.748 37.75 159.427 37.75 161.498C37.75 163.569 39.4289 165.248 41.5 165.248Z" fill="white"/>
<path d="M41.5 157.75H47.9941C47.336 156.61 46.3894 155.663 45.2493 155.005C44.1092 154.346 42.8159 154 41.4995 154C40.183 154 38.8898 154.347 37.7498 155.005C36.6098 155.664 35.6633 156.611 35.0054 157.751L38.2524 163.375L38.2553 163.374C37.925 162.805 37.7507 162.158 37.75 161.5C37.7492 160.841 37.9221 160.194 38.2511 159.624C38.5802 159.053 39.0537 158.58 39.6241 158.251C40.1945 157.922 40.8415 157.749 41.5 157.75Z" fill="url(#paint0_linear_0_148)"/>
<path d="M41.5 164.469C43.1396 164.469 44.4688 163.14 44.4688 161.5C44.4688 159.86 43.1396 158.531 41.5 158.531C39.8604 158.531 38.5312 159.86 38.5312 161.5C38.5312 163.14 39.8604 164.469 41.5 164.469Z" fill="#1A73E8"/>
<path d="M44.7473 163.376L41.5002 169C42.8167 169 44.11 168.654 45.2501 167.996C46.3902 167.337 47.337 166.391 47.9951 165.25C48.6533 164.11 48.9996 162.817 48.9994 161.501C48.9992 160.184 48.6523 158.891 47.9938 157.751H41.4997L41.4989 157.754C42.1574 157.753 42.8045 157.925 43.3751 158.254C43.9457 158.582 44.4196 159.055 44.749 159.625C45.0784 160.196 45.2517 160.842 45.2514 161.501C45.2511 162.159 45.0772 162.806 44.7473 163.376Z" fill="url(#paint1_linear_0_148)"/>
<path d="M38.2527 163.376L35.0056 157.752C34.3472 158.892 34.0005 160.185 34.0005 161.502C34.0004 162.818 34.347 164.111 35.0053 165.251C35.6636 166.391 36.6105 167.338 37.7507 167.996C38.8909 168.654 40.1843 169 41.5007 169L44.7478 163.376L44.7457 163.374C44.4176 163.945 43.9447 164.419 43.3749 164.749C42.805 165.079 42.1583 165.252 41.4998 165.253C40.8414 165.253 40.1945 165.08 39.6244 164.75C39.0543 164.421 38.5812 163.947 38.2527 163.376Z" fill="url(#paint2_linear_0_148)"/>
</g>
</g>
<defs>
<filter id="filter0_d_0_148" x="0" y="0" width="268" height="265" filterUnits="userSpaceOnUse" color-interpolation-filters="sRGB">
<feFlood flood-opacity="0" result="BackgroundImageFix"/>
<feColorMatrix in="SourceAlpha" type="matrix" values="0 0 0 0 0 0 0 0 0 0 0 0 0 0 0 0 0 0 127 0" result="hardAlpha"/>
<feOffset dy="4"/>
<feGaussianBlur stdDeviation="10"/>
<feComposite in2="hardAlpha" operator="out"/>
<feColorMatrix type="matrix" values="0 0 0 0 0.0488428 0 0 0 0 0.0628443 0 0 0 0 0.188858 0 0 0 0.57 0"/>
<feBlend mode="normal" in2="BackgroundImageFix" result="effect1_dropShadow_0_148"/>
<feBlend mode="normal" in="SourceGraphic" in2="effect1_dropShadow_0_148" result="shape"/>
</filter>
<linearGradient id="paint0_linear_0_148" x1="35.0054" y1="158.687" x2="47.9941" y2="158.687" gradientUnits="userSpaceOnUse">
<stop stop-color="#D93025"/>
<stop offset="1" stop-color="#EA4335"/>
</linearGradient>
<linearGradient id="paint1_linear_0_148" x1="40.4756" y1="168.9" x2="46.97" y2="157.651" gradientUnits="userSpaceOnUse">
<stop stop-color="#FCC934"/>
<stop offset="1" stop-color="#FBBC04"/>
</linearGradient>
<linearGradient id="paint2_linear_0_148" x1="42.3119" y1="168.532" x2="35.8175" y2="157.283" gradientUnits="userSpaceOnUse">
<stop stop-color="#1E8E3E"/>
<stop offset="1" stop-color="#34A853"/>
</linearGradient>
<clipPath id="clip0_0_148">
<rect width="15" height="15" fill="white" transform="translate(34 154)"/>
</clipPath>
</defs>
</svg>
