<svg width="124" height="195" viewBox="0 0 124 195" fill="none" xmlns="http://www.w3.org/2000/svg">
<path fill-rule="evenodd" clip-rule="evenodd" d="M21.4747 0.627238C21.3605 0.619823 21.2458 0.612853 21.1311 0.605882C21.0165 0.598911 20.9018 0.59194 20.7876 0.584525C20.8131 0.487404 20.8391 0.389839 20.865 0.292274L20.865 0.292262C20.891 0.194693 20.917 0.097125 20.9425 0L21.4747 0.627238ZM47.197 30.9437C46.1941 31.0755 45.8414 30.6556 46.1327 29.6892L47.197 30.9437ZM124.009 121.475C123.006 121.607 122.651 121.189 122.945 120.221L124.009 121.475ZM72.4506 154.918C72.4518 155.047 72.4512 155.173 72.4505 155.299L72.4402 155.283C72.3704 155.784 72.3019 156.284 72.2249 156.847L72.2237 156.855C72.1656 157.28 72.1025 157.741 72.0305 158.263C70.83 157.662 69.6469 157.076 68.4775 156.496C65.8662 155.202 63.3232 153.941 60.8066 152.629C53.8761 149.012 47.358 144.755 41.2258 139.896C33.6594 133.903 26.9621 127.086 21.4479 119.15C14.1572 108.654 9.17587 97.1847 6.79657 84.586C5.05668 75.3643 4.67553 66.1082 5.57241 56.7817C5.60418 56.4757 5.58225 56.1644 5.56035 55.8535L5.56033 55.8532C5.55035 55.7114 5.54037 55.5697 5.53549 55.4286C5.17981 55.6621 5.09415 55.9002 5.04473 56.1471C4.65448 58.0981 4.2278 60.0444 3.80113 61.9906L3.80111 61.9907L3.8011 61.9908L3.80108 61.9909L3.80107 61.9909L3.80106 61.991L3.80104 61.9911L3.80103 61.9912C2.85816 66.292 1.91535 70.5927 1.36585 74.9431C-1.16763 95.0255 0.435518 114.647 8.98205 133.315C13.8292 143.907 20.7408 152.951 29.6493 160.442C36.9306 166.565 45.0813 171.268 53.9755 174.614C57.191 175.822 60.4618 176.881 63.766 177.952C65.2732 178.44 66.7874 178.93 68.3064 179.438C67.0574 184.374 65.7681 189.47 64.4005 194.881C72.9622 191.332 81.4398 187.816 89.9195 184.3C96.7975 181.448 103.677 178.595 110.603 175.723C103.83 169.876 97.084 164.053 90.3193 158.214L90.229 158.136L90.0494 157.981C84.3514 153.063 78.6396 148.133 72.8868 143.167C72.7894 145.769 72.694 148.277 72.5999 150.751L72.5988 150.781C72.5463 152.161 72.4942 153.531 72.4424 154.9C72.5344 154.93 72.6258 154.963 72.7172 154.997L72.7173 154.997C72.9268 155.074 73.1362 155.151 73.3528 155.185C73.5932 155.223 73.8396 155.224 74.0855 155.224C74.1931 155.225 74.3006 155.225 74.4075 155.228C74.3922 155.19 74.3764 155.153 74.3605 155.115C74.3337 155.051 74.3063 154.988 74.2789 154.925C74.1829 154.703 74.0867 154.482 74.0187 154.253C73.8666 153.735 73.7348 153.206 73.6325 152.675C73.6161 152.584 73.6427 152.473 73.6679 152.367L73.6679 152.367C73.6932 152.261 73.717 152.161 73.6943 152.095C73.7284 152.161 73.7026 152.269 73.6752 152.384C73.65 152.49 73.6232 152.602 73.6408 152.693C73.7431 153.225 73.8731 153.751 74.0269 154.271C74.095 154.5 74.1911 154.722 74.2871 154.943C74.3309 155.044 74.3747 155.145 74.4158 155.247C74.309 155.243 74.2015 155.243 74.094 155.243L74.0938 155.243C73.8478 155.242 73.6015 155.242 73.3611 155.203C73.1429 155.167 72.9338 155.091 72.7244 155.015C72.6334 154.981 72.5424 154.948 72.4506 154.918ZM67.3325 156.981C69.7675 158.97 71.1547 159.228 74.1741 157.752L74.1857 157.768C71.1661 159.244 69.7767 158.988 67.3408 156.999C66.8371 156.587 66.13 156.423 65.3862 156.251C65.0344 156.169 64.6745 156.086 64.324 155.974L64.331 155.96C64.6765 156.07 65.0307 156.152 65.377 156.233L65.3771 156.233L65.3773 156.233C66.1207 156.405 66.8273 156.57 67.3325 156.981ZM64.7296 155.201L64.7221 155.215C64.331 155.103 63.9422 154.994 63.5556 154.886L63.552 154.885C62.5494 154.605 61.5621 154.329 60.5906 154.006C59.9582 153.795 59.3559 153.454 58.792 153.094C57.4238 152.223 56.9011 152.264 55.7891 153.441C54.9627 154.315 54.4175 154.202 53.6138 153.209C53.4467 153.001 53.2565 152.807 53.071 152.618C52.7649 152.306 52.4712 152.007 52.3135 151.679C52.4736 152.002 52.764 152.297 53.0663 152.605C53.2506 152.793 53.4393 152.985 53.6056 153.19C54.411 154.186 54.9544 154.297 55.7809 153.423C56.8928 152.246 57.4156 152.205 58.7838 153.076C59.3494 153.437 59.9517 153.779 60.5824 153.988C61.5364 154.305 62.5049 154.576 63.4892 154.851C63.8999 154.966 64.3133 155.081 64.7296 155.201ZM52.2661 150.76L52.2632 150.767C51.9724 150.49 51.6977 150.226 51.4335 149.973C50.8957 149.457 50.4011 148.982 49.9016 148.515C49.5186 148.156 49.1302 147.801 48.7417 147.447C48.4505 147.181 48.1592 146.915 47.8702 146.647C47.6338 146.428 47.3921 146.213 47.1503 145.999L47.1502 145.999L47.1501 145.998L47.15 145.998L47.1499 145.998L47.1498 145.998L47.1497 145.998L47.1496 145.998L47.1495 145.998C46.5539 145.469 45.9577 144.939 45.4365 144.346C44.7675 143.583 44.1652 143.195 43.2446 144.102L43.2386 144.082C44.1579 143.178 44.7598 143.566 45.4282 144.328C45.9482 144.92 46.5421 145.447 47.1364 145.975L47.1366 145.975L47.1369 145.976C47.3802 146.192 47.6235 146.408 47.8619 146.629C48.1509 146.896 48.4422 147.162 48.7335 147.428C49.122 147.783 49.5104 148.138 49.8934 148.497C50.394 148.968 50.8899 149.443 51.4295 149.96L51.4313 149.961L51.4337 149.964L51.4385 149.968L51.4398 149.969L51.44 149.97L51.4401 149.97C51.7032 150.222 51.9766 150.484 52.2661 150.76ZM41.0327 142.797C41.6936 142.079 42.5369 142.193 42.9273 143.065C42.5334 142.21 41.6972 142.102 41.041 142.815C40.1355 143.799 39.502 143.671 38.8781 142.55C38.5652 141.991 38.1415 141.492 37.7188 140.994C37.5661 140.813 37.4134 140.633 37.2662 140.451C36.8856 139.977 36.5059 139.502 36.1261 139.027C34.8574 137.44 33.5882 135.853 32.2828 134.298C31.3628 133.205 30.3834 132.148 29.3192 131.199C29.04 130.95 28.2579 130.999 27.8655 131.206C27.5516 131.372 27.281 131.622 27.0115 131.872C26.7153 132.147 26.4203 132.421 26.0702 132.578C25.6565 132.764 25.0566 132.61 24.5425 132.479L24.5417 132.479L24.5373 132.478L24.4158 132.447C24.3366 132.426 24.2831 132.33 24.2326 132.211C24.2811 132.322 24.333 132.41 24.4076 132.429C24.4564 132.441 24.5063 132.453 24.5569 132.466L24.5592 132.467C25.0693 132.596 25.6563 132.744 26.062 132.56C26.4132 132.402 26.7096 132.128 27.0071 131.852C27.2758 131.603 27.5454 131.354 27.8572 131.188C28.2517 130.979 29.0318 130.932 29.311 131.181C30.3751 132.13 31.3566 133.185 32.2746 134.28C33.5345 135.783 34.7618 137.317 35.9887 138.85L35.9889 138.85L35.989 138.85L35.9891 138.85L35.9893 138.851L35.9894 138.851L35.9896 138.851L35.9897 138.851L35.9916 138.853C36.4133 139.38 36.835 139.907 37.258 140.433C37.4062 140.617 37.56 140.797 37.7139 140.979C38.1361 141.475 38.5592 141.973 38.8698 142.532C39.4956 143.655 40.1272 143.781 41.0327 142.797ZM24.002 131.751C24.0553 131.809 24.0971 131.889 24.1342 131.973C24.0992 131.896 24.0598 131.823 24.0103 131.77C22.4143 130.024 22.41 130.028 20.5567 131.589L20.5502 131.595C19.1144 132.806 18.8998 132.79 17.679 131.356C17.3476 130.966 17.0195 130.575 16.6916 130.183L16.6913 130.183C15.9922 129.348 15.2936 128.513 14.5641 127.706C14.3736 127.495 14.2317 127.297 14.1472 127.107C14.2325 127.292 14.3714 127.483 14.5559 127.687C15.3106 128.523 16.0341 129.387 16.7572 130.251L16.7574 130.251L16.7576 130.251L16.7578 130.252L16.758 130.252L16.7582 130.252L16.7584 130.252L16.7586 130.253L16.7588 130.253L16.759 130.253L16.7592 130.253C17.0623 130.616 17.3654 130.978 17.6707 131.337C18.8936 132.77 19.1062 132.788 20.5419 131.577L20.542 131.577C22.4018 130.009 22.406 130.006 24.002 131.751ZM15.6642 122.176C16.0479 122.6 16.3425 122.926 16.4806 123.237C16.3392 122.932 16.0487 122.61 15.6724 122.194C15.4573 121.956 15.2142 121.687 14.9549 121.372L14.9546 121.372C14.0543 120.277 13.154 119.182 12.199 118.137C12.0356 117.958 11.9213 117.788 11.8518 117.625C11.9218 117.783 12.0336 117.947 12.1908 118.119C13.1082 119.127 13.9769 120.179 14.8456 121.232L14.8457 121.232L14.8457 121.232L14.8458 121.232L14.8458 121.232L14.8459 121.232L14.8459 121.232L14.8459 121.232L14.9467 121.354C15.206 121.669 15.4491 121.938 15.6642 122.176ZM14.6614 114.275L14.6572 114.279C14.4106 113.988 14.1708 113.701 13.9348 113.42L13.9344 113.419L13.9341 113.419L13.9337 113.419C13.2461 112.598 12.5904 111.815 11.8931 111.072C11.7492 110.917 11.342 110.975 11.0241 111.019C10.9865 111.025 10.9502 111.03 10.9157 111.034C10.8165 111.049 10.7275 111.137 10.6374 111.227L10.6373 111.227C10.5878 111.276 10.5381 111.325 10.4861 111.363C8.86583 112.539 7.39079 112.378 6.06095 110.881C5.89204 110.691 5.73171 110.492 5.57143 110.292C5.27204 109.919 4.97282 109.546 4.61815 109.236C4.35137 109.002 3.79504 108.859 3.4875 108.98C3.19993 109.094 2.84886 109.651 2.90721 109.936C3.07252 110.733 3.31446 111.515 3.60287 112.447C3.72078 112.828 3.84645 113.235 3.97782 113.677C3.56242 114.163 3.49143 114.852 3.89578 115.586C3.48017 114.846 3.54943 114.15 3.96957 113.659C3.83947 113.221 3.71511 112.818 3.59838 112.44L3.59802 112.439L3.59627 112.434L3.59621 112.434C3.30765 111.5 3.06577 110.717 2.89896 109.918C2.83852 109.635 3.1899 109.074 3.47925 108.962C3.7847 108.843 4.34312 108.984 4.60991 109.218C4.96439 109.528 5.26273 109.9 5.56194 110.272L5.5621 110.272C5.72246 110.472 5.88308 110.672 6.05271 110.863C7.38276 112.357 8.85779 112.518 10.4778 111.345C10.5306 111.306 10.5805 111.256 10.6297 111.207C10.7194 111.117 10.8072 111.029 10.9075 111.016C10.9478 111.011 10.9905 111.005 11.0347 110.999C11.3507 110.956 11.7437 110.902 11.8849 111.053C12.5822 111.797 13.2378 112.579 13.9255 113.4C14.1658 113.687 14.4101 113.979 14.6614 114.275ZM4.68984 117.259C4.71518 116.974 4.73854 116.712 4.67061 116.551C4.74938 116.71 4.72502 116.984 4.6985 117.282L4.69849 117.282L4.69849 117.282C4.68351 117.451 4.66786 117.627 4.66968 117.794L4.66168 117.793C4.6578 117.619 4.67418 117.435 4.68983 117.259L4.68984 117.259ZM5.56493 118.221C5.59609 118.136 5.63053 118.042 5.67497 117.94L5.69028 117.942C5.64239 118.051 5.60597 118.15 5.57318 118.239C5.511 118.409 5.46189 118.542 5.37241 118.639C4.79987 119.258 4.67976 119.88 4.88822 120.425C4.67063 119.875 4.78671 119.246 5.36416 118.621C5.45364 118.524 5.50276 118.39 5.56493 118.221ZM6.5508 125.076C6.85194 124.085 6.98121 123.235 6.63016 122.47C6.99235 123.241 6.86381 124.097 6.55905 125.094C6.51931 125.224 6.54303 125.379 6.60623 125.546C6.53754 125.371 6.51018 125.21 6.5508 125.076ZM11.4881 133.548C12.0379 133.052 12.1058 132.664 11.9371 132.297C12.1169 132.669 12.0557 133.062 11.4963 133.566C10.7934 134.2 10.7724 134.92 11.184 135.71C10.7605 134.913 10.778 134.188 11.4881 133.548ZM37.1597 161.991C37.1527 161.969 37.1447 161.947 37.1358 161.925C37.148 161.953 37.1588 161.981 37.168 162.009C37.3153 162.467 37.3909 163.158 37.146 163.488C36.7969 163.958 36.7564 164.309 36.8983 164.59C36.746 164.305 36.7814 163.949 37.1377 163.47C37.3827 163.14 37.3049 162.45 37.1597 161.991ZM68.8153 183.03C69.8112 182.046 70.084 180.715 69.5687 179.565C70.0951 180.719 69.8247 182.059 68.8236 183.048C68.6389 183.23 68.4475 183.406 68.2354 183.601L68.1281 183.7C68.0428 183.779 67.9541 183.861 67.8611 183.948L67.8505 183.932C67.9841 183.807 68.1089 183.692 68.2273 183.583L68.2277 183.583C68.4395 183.388 68.6308 183.212 68.8153 183.03ZM68.1367 185.777C68.3083 185.565 68.4805 185.352 68.6486 185.136L68.659 185.151C68.4893 185.37 68.3151 185.585 68.1413 185.8C67.7313 186.306 67.3235 186.81 66.9824 187.354C66.8182 187.616 66.7856 187.84 66.8635 188.002C66.7747 187.838 66.804 187.608 66.9741 187.336C67.3165 186.79 67.725 186.285 68.1367 185.777ZM98.245 178.827L98.2409 178.83L96.4137 176.677C95.9724 176.157 95.5332 175.635 95.094 175.113C94.0327 173.851 92.9713 172.59 91.8797 171.354C91.7362 171.191 91.6258 171.039 91.5484 170.893C91.6255 171.033 91.7332 171.18 91.8714 171.336C92.9631 172.572 94.0244 173.833 95.0858 175.094C95.5249 175.616 95.9641 176.138 96.4054 176.659L98.245 178.827ZM93.0123 165.865C93.3947 166.303 93.683 166.634 93.8197 166.941C93.6799 166.639 93.3954 166.313 93.0206 165.883C92.8255 165.659 92.606 165.408 92.3696 165.117C91.5533 164.112 90.7527 163.094 89.9521 162.076L89.9518 162.075C89.0785 160.965 88.2052 159.854 87.3114 158.761C86.2171 157.42 85.099 156.085 83.8679 154.872C83.2325 154.246 82.3373 153.776 81.4681 154.696C81.4058 154.761 81.3337 154.818 81.2617 154.876L81.2614 154.876C81.2254 154.904 81.1893 154.933 81.1545 154.963C79.2984 156.523 79.2982 156.523 77.7961 154.767L77.6942 154.648C77.517 154.441 77.391 154.25 77.312 154.072C77.3914 154.244 77.5147 154.43 77.6859 154.63L77.788 154.749C79.2917 156.507 79.2918 156.507 81.1462 154.944C81.181 154.915 81.2171 154.886 81.2532 154.858C81.3253 154.8 81.3974 154.743 81.4598 154.678C82.329 153.757 83.2242 154.228 83.8596 154.854C85.0908 156.067 86.2068 157.404 87.3031 158.743C88.2116 159.854 89.0995 160.982 89.9874 162.111L89.9877 162.111C90.7741 163.111 91.5606 164.111 92.3614 165.098C92.5977 165.389 92.8172 165.641 93.0122 165.865L93.0123 165.865ZM77.1503 148.065C78.0609 148.863 78.881 149.892 79.3809 150.987L79.3763 150.977C78.8768 149.879 78.0549 148.847 77.142 148.047C76.456 147.446 75.4322 147.642 74.8324 148.456C74.6483 148.706 74.4046 148.939 74.1594 149.173C73.4975 149.805 72.825 150.448 73.2863 151.452C72.8414 150.459 73.5098 149.82 74.1677 149.191C74.4128 148.957 74.6565 148.724 74.8406 148.475C75.4401 147.664 76.466 147.466 77.1503 148.065ZM67.1158 192.399C67.1156 192.4 67.1155 192.402 67.1153 192.403C67.6685 191.903 67.8521 191.378 67.6663 190.829C67.8507 191.376 67.6673 191.899 67.1158 192.399ZM67.0614 192.867C67.0556 192.915 67.05 192.961 67.0442 193.008L67.0458 193.011L67.046 193.01L67.046 193.009C67.0515 192.962 67.057 192.914 67.0614 192.867ZM2.78266 95.0473C3.41506 94.8309 4.12456 95.0234 4.66288 95.663C4.89496 95.9382 5.10351 96.18 5.28844 96.3945C6.04801 97.2753 6.40921 97.6941 6.36574 98.0656C6.32632 98.4025 5.95419 98.7004 5.24466 99.2684C5.00152 99.463 4.71877 99.6894 4.39622 99.9599C3.56294 100.656 3.48773 101.241 4.26061 101.97C4.34575 102.053 4.42211 102.149 4.49822 102.244L4.49827 102.244L4.49831 102.244L4.49836 102.245L4.4984 102.245L4.49845 102.245L4.49849 102.245L4.49867 102.245L4.49888 102.245C4.53684 102.293 4.57473 102.34 4.61363 102.386C6.09633 104.138 5.86544 105.341 3.73316 106.197L3.72712 106.199C5.85752 105.343 6.08989 104.139 4.60556 102.389C4.5737 102.351 4.54252 102.311 4.51128 102.271C4.42973 102.168 4.34778 102.064 4.25254 101.973C3.47967 101.244 3.55874 100.66 4.38815 99.963C4.7107 99.6926 4.99345 99.4662 5.23658 99.2716C5.94612 98.7036 6.31826 98.4057 6.35767 98.0688C6.40115 97.6973 6.03995 97.2785 5.28038 96.3977C5.09545 96.1832 4.8869 95.9414 4.65482 95.6662C4.11852 95.0291 3.4131 94.8349 2.78266 95.0473ZM105.969 173.434L105.969 173.433C105.729 173.022 105.484 172.6 105.169 172.242C105.479 172.595 105.721 173.011 105.957 173.416C106.064 173.599 106.169 173.781 106.279 173.953C106.174 173.786 106.072 173.611 105.969 173.434ZM57.4428 174.824C57.5843 174.876 57.7259 174.927 57.8674 174.98L57.8653 174.981C57.7237 174.929 57.582 174.877 57.4403 174.826C57.2986 174.774 57.157 174.723 57.0154 174.67C57.0351 174.62 57.0544 174.568 57.0737 174.517C57.093 174.465 57.1123 174.414 57.132 174.363L57.1332 174.363C57.1137 174.414 57.0946 174.465 57.0755 174.516L57.0746 174.518L57.0736 174.521C57.055 174.57 57.0365 174.62 57.0175 174.669C57.1592 174.721 57.301 174.773 57.4428 174.824ZM4.57071 84.3172C4.59241 84.3439 4.60192 84.3945 4.61155 84.4457L4.61156 84.4458C4.617 84.4747 4.62247 84.5038 4.6302 84.5289L4.62018 84.5322L4.63022 84.529C4.62341 84.5058 4.61847 84.4787 4.6135 84.4514L4.61345 84.4511C4.60389 84.3985 4.59419 84.3452 4.57071 84.3172ZM20.1952 119.716C20.207 119.756 20.2188 119.795 20.2301 119.833L20.2288 119.834C20.2178 119.796 20.2064 119.758 20.195 119.72C20.1832 119.681 20.1713 119.642 20.1599 119.603C20.1355 119.61 20.1077 119.616 20.0799 119.621C20.017 119.633 19.9547 119.645 19.9356 119.682C19.9284 119.696 19.9283 119.714 19.9323 119.735C19.9277 119.713 19.9277 119.693 19.9358 119.678C19.955 119.642 20.0173 119.629 20.0802 119.617C20.1079 119.612 20.1358 119.606 20.1602 119.599C20.1716 119.638 20.1834 119.677 20.1952 119.716Z" fill="#293A4C"/>
</svg>
