<svg width="40" height="43" viewBox="0 0 40 43" fill="none" xmlns="http://www.w3.org/2000/svg">
<path d="M37.3817 6.43027C39.6607 8.68993 39.6607 12.3535 37.3817 14.6132C35.1027 16.8728 31.4077 16.8728 29.1287 14.6132C25.2924 10.8094 19.0725 10.8094 15.2362 14.6132C11.3999 18.4169 11.3999 24.584 15.2362 28.3878C19.0725 32.1915 25.2924 32.1915 29.1287 28.3878C31.4077 26.1281 35.1027 26.1281 37.3817 28.3878C39.6607 30.6474 39.6607 34.3111 37.3817 36.5707C28.9874 44.8938 15.3775 44.8938 6.98322 36.5707C-1.41108 28.2477 -1.41108 14.7533 6.98322 6.43027C15.3775 -1.89277 28.9874 -1.89277 37.3817 6.43027ZM36.1437 7.65771C28.4331 0.012559 15.9318 0.012559 8.22117 7.65771C0.510569 15.3029 0.510569 27.6981 8.22117 35.3433C15.9318 42.9884 28.4331 42.9884 36.1437 35.3433C37.739 33.7615 37.739 31.197 36.1437 29.6152C34.5484 28.0335 31.9619 28.0335 30.3666 29.6152C25.8466 34.0969 18.5183 34.0969 13.9983 29.6152C9.47824 25.1336 9.47824 17.8674 13.9983 13.3858C18.5183 8.90412 25.8466 8.90412 30.3666 13.3858C31.9619 14.9675 34.5484 14.9675 36.1437 13.3858C37.739 11.804 37.739 9.23947 36.1437 7.65771Z" fill="#526A83"/>
<path d="M14.61 10.6269C19.8029 7.06269 26.9806 7.57314 31.605 12.1583C32.5166 13.0621 33.9946 13.0621 34.9062 12.1583C35.8178 11.2544 35.8178 9.78897 34.9062 8.88511C28.5496 2.58247 18.6202 1.98125 11.582 7.08147C12.315 7.17977 13.0226 7.50822 13.586 8.06682C14.2967 8.77148 14.638 9.70369 14.61 10.6269Z" fill="#4AE2DD"/>
<path d="M11.2154 29.0091C7.62063 23.8603 8.13545 16.7435 12.7598 12.1583C13.6714 11.2545 13.6714 9.78903 12.7598 8.88517C11.8482 7.98131 10.3703 7.98131 9.45865 8.88517C3.10205 15.1878 2.49569 25.0329 7.63957 32.0113C7.73871 31.2846 8.06997 30.583 8.63336 30.0244C9.34405 29.3197 10.2842 28.9813 11.2154 29.0091Z" fill="#4A90E2"/>
<path d="M9.45909 34.1158C16.486 41.0831 27.8789 41.0831 34.9058 34.1158C35.8174 33.2119 35.8174 31.7465 34.9058 30.8426C33.9942 29.9388 32.5162 29.9388 31.6046 30.8426C26.4009 36.0022 17.964 36.0022 12.7603 30.8426C11.8487 29.9388 10.3707 29.9388 9.45909 30.8426C8.54749 31.7465 8.54749 33.2119 9.45909 34.1158Z" fill="#7D4AE2"/>
</svg>
