<svg width="268" height="265" viewBox="0 0 268 265" fill="none" xmlns="http://www.w3.org/2000/svg">
<g filter="url(#filter0_d_0_182)">
<rect x="20" y="16" width="228" height="225" rx="8" fill="white"/>
<path d="M20 24C20 19.5817 23.5817 16 28 16H240C244.418 16 248 19.5817 248 24V116H20V24Z" fill="#293A4C"/>
<path d="M20 233C20 237.418 23.5817 241 28 241H240C244.418 241 248 237.418 248 233V116H20V233Z" fill="#1E2D3D"/>
<path d="M59.789 140.072C59.303 140.072 58.856 139.994 58.448 139.838C58.04 139.676 57.686 139.451 57.386 139.163C57.086 138.869 56.852 138.527 56.684 138.137C56.516 137.747 56.432 137.318 56.432 136.85C56.432 136.382 56.516 135.953 56.684 135.563C56.852 135.173 57.086 134.834 57.386 134.546C57.692 134.252 58.049 134.027 58.457 133.871C58.865 133.709 59.315 133.628 59.807 133.628C60.305 133.628 60.761 133.709 61.175 133.871C61.589 134.033 61.94 134.276 62.228 134.6L61.67 135.158C61.412 134.906 61.13 134.723 60.824 134.609C60.524 134.489 60.197 134.429 59.843 134.429C59.483 134.429 59.147 134.489 58.835 134.609C58.529 134.729 58.262 134.897 58.034 135.113C57.812 135.329 57.638 135.587 57.512 135.887C57.392 136.181 57.332 136.502 57.332 136.85C57.332 137.192 57.392 137.513 57.512 137.813C57.638 138.107 57.812 138.365 58.034 138.587C58.262 138.803 58.529 138.971 58.835 139.091C59.141 139.211 59.474 139.271 59.834 139.271C60.17 139.271 60.491 139.22 60.797 139.118C61.109 139.01 61.397 138.833 61.661 138.587L62.174 139.271C61.862 139.535 61.496 139.736 61.076 139.874C60.662 140.006 60.233 140.072 59.789 140.072ZM61.31 139.154V136.814H62.174V139.271L61.31 139.154ZM65.8141 140.054C65.3341 140.054 64.9081 139.949 64.5361 139.739C64.1641 139.529 63.8701 139.241 63.6541 138.875C63.4381 138.503 63.3301 138.083 63.3301 137.615C63.3301 137.141 63.4381 136.721 63.6541 136.355C63.8701 135.989 64.1641 135.704 64.5361 135.5C64.9081 135.29 65.3341 135.185 65.8141 135.185C66.2881 135.185 66.7111 135.29 67.0831 135.5C67.4611 135.704 67.7551 135.989 67.9651 136.355C68.1811 136.715 68.2891 137.135 68.2891 137.615C68.2891 138.089 68.1811 138.509 67.9651 138.875C67.7551 139.241 67.4611 139.529 67.0831 139.739C66.7111 139.949 66.2881 140.054 65.8141 140.054ZM65.8141 139.298C66.1201 139.298 66.3931 139.229 66.6331 139.091C66.8791 138.953 67.0711 138.758 67.2091 138.506C67.3471 138.248 67.4161 137.951 67.4161 137.615C67.4161 137.273 67.3471 136.979 67.2091 136.733C67.0711 136.481 66.8791 136.286 66.6331 136.148C66.3931 136.01 66.1201 135.941 65.8141 135.941C65.5081 135.941 65.2351 136.01 64.9951 136.148C64.7551 136.286 64.5631 136.481 64.4191 136.733C64.2751 136.979 64.2031 137.273 64.2031 137.615C64.2031 137.951 64.2751 138.248 64.4191 138.506C64.5631 138.758 64.7551 138.953 64.9951 139.091C65.2351 139.229 65.5081 139.298 65.8141 139.298ZM71.527 140.054C71.047 140.054 70.621 139.949 70.249 139.739C69.877 139.529 69.583 139.241 69.367 138.875C69.151 138.503 69.043 138.083 69.043 137.615C69.043 137.141 69.151 136.721 69.367 136.355C69.583 135.989 69.877 135.704 70.249 135.5C70.621 135.29 71.047 135.185 71.527 135.185C72.001 135.185 72.424 135.29 72.796 135.5C73.174 135.704 73.468 135.989 73.678 136.355C73.894 136.715 74.002 137.135 74.002 137.615C74.002 138.089 73.894 138.509 73.678 138.875C73.468 139.241 73.174 139.529 72.796 139.739C72.424 139.949 72.001 140.054 71.527 140.054ZM71.527 139.298C71.833 139.298 72.106 139.229 72.346 139.091C72.592 138.953 72.784 138.758 72.922 138.506C73.06 138.248 73.129 137.951 73.129 137.615C73.129 137.273 73.06 136.979 72.922 136.733C72.784 136.481 72.592 136.286 72.346 136.148C72.106 136.01 71.833 135.941 71.527 135.941C71.221 135.941 70.948 136.01 70.708 136.148C70.468 136.286 70.276 136.481 70.132 136.733C69.988 136.979 69.916 137.273 69.916 137.615C69.916 137.951 69.988 138.248 70.132 138.506C70.276 138.758 70.468 138.953 70.708 139.091C70.948 139.229 71.221 139.298 71.527 139.298ZM77.2849 141.8C76.8469 141.8 76.4209 141.737 76.0069 141.611C75.5989 141.491 75.2659 141.317 75.0079 141.089L75.4219 140.423C75.6439 140.615 75.9169 140.765 76.2409 140.873C76.5649 140.987 76.9039 141.044 77.2579 141.044C77.8219 141.044 78.2359 140.912 78.4999 140.648C78.7639 140.384 78.8959 139.982 78.8959 139.442V138.434L78.9859 137.489L78.9409 136.535V135.23H79.7599V139.352C79.7599 140.192 79.5499 140.81 79.1299 141.206C78.7099 141.602 78.0949 141.8 77.2849 141.8ZM77.1769 139.802C76.7149 139.802 76.3009 139.706 75.9349 139.514C75.5749 139.316 75.2869 139.043 75.0709 138.695C74.8609 138.347 74.7559 137.945 74.7559 137.489C74.7559 137.027 74.8609 136.625 75.0709 136.283C75.2869 135.935 75.5749 135.665 75.9349 135.473C76.3009 135.281 76.7149 135.185 77.1769 135.185C77.5849 135.185 77.9569 135.269 78.2929 135.437C78.6289 135.599 78.8959 135.851 79.0939 136.193C79.2979 136.535 79.3999 136.967 79.3999 137.489C79.3999 138.005 79.2979 138.434 79.0939 138.776C78.8959 139.118 78.6289 139.376 78.2929 139.55C77.9569 139.718 77.5849 139.802 77.1769 139.802ZM77.2759 139.046C77.5939 139.046 77.8759 138.98 78.1219 138.848C78.3679 138.716 78.5599 138.533 78.6979 138.299C78.8419 138.065 78.9139 137.795 78.9139 137.489C78.9139 137.183 78.8419 136.913 78.6979 136.679C78.5599 136.445 78.3679 136.265 78.1219 136.139C77.8759 136.007 77.5939 135.941 77.2759 135.941C76.9579 135.941 76.6729 136.007 76.4209 136.139C76.1749 136.265 75.9799 136.445 75.8359 136.679C75.6979 136.913 75.6289 137.183 75.6289 137.489C75.6289 137.795 75.6979 138.065 75.8359 138.299C75.9799 138.533 76.1749 138.716 76.4209 138.848C76.6729 138.98 76.9579 139.046 77.2759 139.046ZM81.4108 140V133.322H82.2748V140H81.4108ZM86.0485 140.054C85.5385 140.054 85.0885 139.949 84.6985 139.739C84.3145 139.529 84.0145 139.241 83.7985 138.875C83.5885 138.509 83.4835 138.089 83.4835 137.615C83.4835 137.141 83.5855 136.721 83.7895 136.355C83.9995 135.989 84.2845 135.704 84.6445 135.5C85.0105 135.29 85.4215 135.185 85.8775 135.185C86.3395 135.185 86.7475 135.287 87.1015 135.491C87.4555 135.695 87.7315 135.983 87.9295 136.355C88.1335 136.721 88.2355 137.15 88.2355 137.642C88.2355 137.678 88.2325 137.72 88.2265 137.768C88.2265 137.816 88.2235 137.861 88.2175 137.903H84.1585V137.282H87.7675L87.4165 137.498C87.4225 137.192 87.3595 136.919 87.2275 136.679C87.0955 136.439 86.9125 136.253 86.6785 136.121C86.4505 135.983 86.1835 135.914 85.8775 135.914C85.5775 135.914 85.3105 135.983 85.0765 136.121C84.8425 136.253 84.6595 136.442 84.5275 136.688C84.3955 136.928 84.3295 137.204 84.3295 137.516V137.66C84.3295 137.978 84.4015 138.263 84.5455 138.515C84.6955 138.761 84.9025 138.953 85.1665 139.091C85.4305 139.229 85.7335 139.298 86.0755 139.298C86.3575 139.298 86.6125 139.25 86.8405 139.154C87.0745 139.058 87.2785 138.914 87.4525 138.722L87.9295 139.28C87.7135 139.532 87.4435 139.724 87.1195 139.856C86.8015 139.988 86.4445 140.054 86.0485 140.054ZM94.7952 140.072C94.3152 140.072 93.8712 139.994 93.4632 139.838C93.0612 139.676 92.7102 139.451 92.4102 139.163C92.1162 138.869 91.8852 138.527 91.7172 138.137C91.5492 137.747 91.4652 137.318 91.4652 136.85C91.4652 136.382 91.5492 135.953 91.7172 135.563C91.8852 135.173 92.1192 134.834 92.4192 134.546C92.7192 134.252 93.0702 134.027 93.4722 133.871C93.8802 133.709 94.3242 133.628 94.8042 133.628C95.2902 133.628 95.7372 133.712 96.1452 133.88C96.5592 134.042 96.9102 134.285 97.1982 134.609L96.6132 135.176C96.3732 134.924 96.1032 134.738 95.8032 134.618C95.5032 134.492 95.1822 134.429 94.8402 134.429C94.4862 134.429 94.1562 134.489 93.8502 134.609C93.5502 134.729 93.2892 134.897 93.0672 135.113C92.8452 135.329 92.6712 135.587 92.5452 135.887C92.4252 136.181 92.3652 136.502 92.3652 136.85C92.3652 137.198 92.4252 137.522 92.5452 137.822C92.6712 138.116 92.8452 138.371 93.0672 138.587C93.2892 138.803 93.5502 138.971 93.8502 139.091C94.1562 139.211 94.4862 139.271 94.8402 139.271C95.1822 139.271 95.5032 139.211 95.8032 139.091C96.1032 138.965 96.3732 138.773 96.6132 138.515L97.1982 139.082C96.9102 139.406 96.5592 139.652 96.1452 139.82C95.7372 139.988 95.2872 140.072 94.7952 140.072ZM100.903 135.185C101.293 135.185 101.635 135.26 101.929 135.41C102.229 135.56 102.463 135.788 102.631 136.094C102.799 136.4 102.883 136.787 102.883 137.255V140H102.019V137.354C102.019 136.892 101.905 136.544 101.677 136.31C101.455 136.076 101.14 135.959 100.732 135.959C100.426 135.959 100.159 136.019 99.9311 136.139C99.7031 136.259 99.5261 136.436 99.4001 136.67C99.2801 136.904 99.2201 137.195 99.2201 137.543V140H98.3561V133.322H99.2201V136.517L99.0491 136.175C99.2051 135.863 99.4451 135.62 99.7691 135.446C100.093 135.272 100.471 135.185 100.903 135.185ZM104.482 140V135.23H105.31V136.526L105.229 136.202C105.361 135.872 105.583 135.62 105.895 135.446C106.207 135.272 106.591 135.185 107.047 135.185V136.022C107.011 136.016 106.975 136.013 106.939 136.013C106.909 136.013 106.879 136.013 106.849 136.013C106.387 136.013 106.021 136.151 105.751 136.427C105.481 136.703 105.346 137.102 105.346 137.624V140H104.482ZM110.111 140.054C109.631 140.054 109.205 139.949 108.833 139.739C108.461 139.529 108.167 139.241 107.951 138.875C107.735 138.503 107.627 138.083 107.627 137.615C107.627 137.141 107.735 136.721 107.951 136.355C108.167 135.989 108.461 135.704 108.833 135.5C109.205 135.29 109.631 135.185 110.111 135.185C110.585 135.185 111.008 135.29 111.38 135.5C111.758 135.704 112.052 135.989 112.262 136.355C112.478 136.715 112.586 137.135 112.586 137.615C112.586 138.089 112.478 138.509 112.262 138.875C112.052 139.241 111.758 139.529 111.38 139.739C111.008 139.949 110.585 140.054 110.111 140.054ZM110.111 139.298C110.417 139.298 110.69 139.229 110.93 139.091C111.176 138.953 111.368 138.758 111.506 138.506C111.644 138.248 111.713 137.951 111.713 137.615C111.713 137.273 111.644 136.979 111.506 136.733C111.368 136.481 111.176 136.286 110.93 136.148C110.69 136.01 110.417 135.941 110.111 135.941C109.805 135.941 109.532 136.01 109.292 136.148C109.052 136.286 108.86 136.481 108.716 136.733C108.572 136.979 108.5 137.273 108.5 137.615C108.5 137.951 108.572 138.248 108.716 138.506C108.86 138.758 109.052 138.953 109.292 139.091C109.532 139.229 109.805 139.298 110.111 139.298ZM119.748 135.185C120.132 135.185 120.471 135.26 120.765 135.41C121.059 135.56 121.287 135.788 121.449 136.094C121.617 136.4 121.701 136.787 121.701 137.255V140H120.837V137.354C120.837 136.892 120.729 136.544 120.513 136.31C120.297 136.076 119.994 135.959 119.604 135.959C119.316 135.959 119.064 136.019 118.848 136.139C118.632 136.259 118.464 136.436 118.344 136.67C118.23 136.904 118.173 137.195 118.173 137.543V140H117.309V137.354C117.309 136.892 117.201 136.544 116.985 136.31C116.775 136.076 116.472 135.959 116.076 135.959C115.794 135.959 115.545 136.019 115.329 136.139C115.113 136.259 114.945 136.436 114.825 136.67C114.705 136.904 114.645 137.195 114.645 137.543V140H113.781V135.23H114.609V136.499L114.474 136.175C114.624 135.863 114.855 135.62 115.167 135.446C115.479 135.272 115.842 135.185 116.256 135.185C116.712 135.185 117.105 135.299 117.435 135.527C117.765 135.749 117.981 136.088 118.083 136.544L117.732 136.4C117.876 136.034 118.128 135.74 118.488 135.518C118.848 135.296 119.268 135.185 119.748 135.185ZM125.415 140.054C124.905 140.054 124.455 139.949 124.065 139.739C123.681 139.529 123.381 139.241 123.165 138.875C122.955 138.509 122.85 138.089 122.85 137.615C122.85 137.141 122.952 136.721 123.156 136.355C123.366 135.989 123.651 135.704 124.011 135.5C124.377 135.29 124.788 135.185 125.244 135.185C125.706 135.185 126.114 135.287 126.468 135.491C126.822 135.695 127.098 135.983 127.296 136.355C127.5 136.721 127.602 137.15 127.602 137.642C127.602 137.678 127.599 137.72 127.593 137.768C127.593 137.816 127.59 137.861 127.584 137.903H123.525V137.282H127.134L126.783 137.498C126.789 137.192 126.726 136.919 126.594 136.679C126.462 136.439 126.279 136.253 126.045 136.121C125.817 135.983 125.55 135.914 125.244 135.914C124.944 135.914 124.677 135.983 124.443 136.121C124.209 136.253 124.026 136.442 123.894 136.688C123.762 136.928 123.696 137.204 123.696 137.516V137.66C123.696 137.978 123.768 138.263 123.912 138.515C124.062 138.761 124.269 138.953 124.533 139.091C124.797 139.229 125.1 139.298 125.442 139.298C125.724 139.298 125.979 139.25 126.207 139.154C126.441 139.058 126.645 138.914 126.819 138.722L127.296 139.28C127.08 139.532 126.81 139.724 126.486 139.856C126.168 139.988 125.811 140.054 125.415 140.054Z" fill="white"/>
<g clip-path="url(#clip0_0_182)">
<path d="M41.5 141.248C43.5711 141.248 45.25 139.569 45.25 137.498C45.25 135.427 43.5711 133.748 41.5 133.748C39.4289 133.748 37.75 135.427 37.75 137.498C37.75 139.569 39.4289 141.248 41.5 141.248Z" fill="white"/>
<path d="M41.5 133.75H47.9941C47.336 132.61 46.3894 131.663 45.2493 131.005C44.1092 130.346 42.8159 130 41.4995 130C40.183 130 38.8898 130.347 37.7498 131.005C36.6098 131.664 35.6633 132.611 35.0054 133.751L38.2524 139.375L38.2553 139.374C37.925 138.805 37.7507 138.158 37.75 137.5C37.7492 136.841 37.9221 136.194 38.2511 135.624C38.5802 135.053 39.0537 134.58 39.6241 134.251C40.1945 133.922 40.8415 133.749 41.5 133.75Z" fill="url(#paint0_linear_0_182)"/>
<path d="M41.5 140.469C43.1396 140.469 44.4688 139.14 44.4688 137.5C44.4688 135.86 43.1396 134.531 41.5 134.531C39.8604 134.531 38.5312 135.86 38.5312 137.5C38.5312 139.14 39.8604 140.469 41.5 140.469Z" fill="#1A73E8"/>
<path d="M44.7473 139.376L41.5002 145C42.8167 145 44.11 144.654 45.2501 143.996C46.3902 143.337 47.337 142.391 47.9951 141.25C48.6533 140.11 48.9996 138.817 48.9994 137.501C48.9992 136.184 48.6523 134.891 47.9938 133.751H41.4997L41.4989 133.754C42.1574 133.753 42.8045 133.925 43.3751 134.254C43.9457 134.582 44.4196 135.055 44.749 135.625C45.0784 136.196 45.2517 136.842 45.2514 137.501C45.2511 138.159 45.0772 138.806 44.7473 139.376Z" fill="url(#paint1_linear_0_182)"/>
<path d="M38.2527 139.376L35.0056 133.752C34.3472 134.892 34.0005 136.185 34.0005 137.502C34.0004 138.818 34.347 140.111 35.0053 141.251C35.6636 142.391 36.6105 143.338 37.7507 143.996C38.8909 144.654 40.1843 145 41.5007 145L44.7478 139.376L44.7457 139.374C44.4176 139.945 43.9447 140.419 43.3749 140.749C42.805 141.079 42.1583 141.252 41.4998 141.253C40.8414 141.253 40.1945 141.08 39.6244 140.75C39.0543 140.421 38.5812 139.947 38.2527 139.376Z" fill="url(#paint2_linear_0_182)"/>
</g>
<g clip-path="url(#clip1_0_182)">
<path d="M87.0123 34.9921L82.7468 49.8891H80.6729L77.5661 39.0022C77.4332 38.5382 77.3517 38.0326 77.324 37.4854H77.2822C77.2412 37.9918 77.1495 38.4929 77.0086 38.9815L73.8813 49.8891H71.8276L67.4047 34.9921H69.3524L72.5645 46.4193C72.6997 46.9083 72.7844 47.4095 72.8173 47.9154H72.8703C72.9053 47.5481 73.0132 47.0498 73.1962 46.4193L76.5346 34.9921H78.2299L81.4308 46.5027C81.543 46.8971 81.6269 47.3615 81.6835 47.8945H81.7253C81.7533 47.5349 81.8481 47.057 82.0102 46.4612L85.0954 34.9928H87.0123V34.9921ZM89.3907 36.5501C89.0815 36.5501 88.8183 36.446 88.6008 36.2382C88.3833 36.0303 88.2749 35.7677 88.2749 35.4486C88.2749 35.1307 88.384 34.865 88.6008 34.6533C88.819 34.4423 89.0815 34.3368 89.3907 34.3368C89.7066 34.3368 89.975 34.443 90.1966 34.6533C90.4173 34.865 90.5281 35.13 90.5281 35.4486C90.5281 35.7536 90.4173 36.0133 90.1966 36.2279C89.975 36.4429 89.7069 36.5501 89.3907 36.5501ZM90.2331 49.8891H88.506V39.251H90.2331V49.8891ZM101.839 49.8891H100.112V43.8226C100.112 41.565 99.2767 40.4362 97.6065 40.4362C96.743 40.4362 96.0282 40.7565 95.4631 41.3972C94.8976 42.0378 94.6154 42.8463 94.6154 43.8226V49.8891H92.8881V39.251H94.6154V41.0169H94.6572C95.4714 39.6735 96.6507 39.0019 98.1954 39.0019C99.3747 39.0019 100.277 39.3776 100.902 40.1288C101.527 40.8802 101.839 41.9659 101.839 43.3853V49.8889H101.84L101.839 49.8891ZM114.125 49.8891H112.398V48.0813H112.356C111.556 49.4527 110.319 50.1385 108.649 50.1385C107.294 50.1385 106.211 49.6623 105.4 48.7097C104.59 47.7579 104.184 46.4607 104.184 44.8193C104.184 43.0602 104.633 41.6506 105.532 40.5918C106.431 39.5316 107.627 39.0022 109.123 39.0022C110.604 39.0022 111.682 39.5771 112.356 40.7265H112.398V34.1402H114.125V49.8891ZM112.398 45.0795V43.5107C112.398 42.6523 112.11 41.9254 111.535 41.3288C110.959 40.734 110.23 40.4355 109.345 40.4355C108.291 40.4355 107.463 40.8167 106.859 41.5782C106.256 42.3406 105.954 43.3927 105.954 44.7361C105.954 45.9623 106.243 46.93 106.823 47.6394C107.401 48.3491 108.179 48.7042 109.155 48.7042C110.117 48.7042 110.897 48.3621 111.498 47.6756C112.098 46.9906 112.398 46.1241 112.398 45.0795ZM121.674 50.1382C120.08 50.1382 118.808 49.6417 117.857 48.6479C116.906 47.6538 116.431 46.3361 116.431 44.6949C116.431 42.9082 116.926 41.5125 117.916 40.5086C118.905 39.504 120.242 39.0014 121.928 39.0014C123.535 39.0014 124.791 39.4896 125.692 40.4664C126.594 41.4422 127.045 42.7969 127.045 44.5282C127.045 46.2253 126.559 47.584 125.587 48.6059C124.614 49.6275 123.31 50.1382 121.674 50.1382ZM121.801 40.4355C120.691 40.4355 119.813 40.8076 119.168 41.552C118.522 42.2975 118.2 43.3234 118.2 44.6323C118.2 45.893 118.526 46.8861 119.18 47.6138C119.832 48.3402 120.706 48.7042 121.801 48.7042C122.918 48.7042 123.776 48.3474 124.376 47.6339C124.977 46.9208 125.277 45.9062 125.277 44.5903C125.277 43.2601 124.976 42.2359 124.376 41.5151C123.776 40.7958 122.917 40.4355 121.801 40.4355ZM142.608 39.2513L139.376 49.8891H137.585L135.363 42.2742C135.279 41.9831 135.222 41.6549 135.195 41.2878H135.153C135.133 41.5369 135.059 41.8585 134.932 42.2541L132.521 49.8896H130.794L127.529 39.252H129.34L131.572 47.2503C131.642 47.4929 131.691 47.8113 131.719 48.2057H131.804C131.825 47.9012 131.888 47.5761 131.993 47.2297L134.478 39.2513H136.058L138.29 47.2709C138.36 47.5274 138.413 47.8461 138.449 48.2266H138.533C138.547 47.9566 138.606 47.6382 138.712 47.2709L140.902 39.2513H142.608ZM143.408 49.5043V47.6759C144.349 48.3621 145.384 48.7044 146.515 48.7044C148.031 48.7044 148.789 48.2057 148.789 47.2083C148.789 46.9244 148.724 46.6837 148.595 46.4861C148.465 46.2886 148.289 46.1143 148.069 45.9615C147.847 45.8095 147.587 45.6721 147.29 45.5513C146.97 45.422 146.649 45.2955 146.326 45.172C145.849 44.9847 145.429 44.7963 145.068 44.6054C144.706 44.4151 144.405 44.2005 144.162 43.9612C143.925 43.7292 143.738 43.4515 143.614 43.1453C143.492 42.8408 143.43 42.4845 143.43 42.0755C143.43 41.577 143.546 41.1351 143.777 40.751C144.009 40.3662 144.318 40.0447 144.704 39.7845C145.09 39.5248 145.531 39.329 146.026 39.1971C146.525 39.0653 147.04 38.9992 147.557 39.0005C148.491 39.0005 149.326 39.1602 150.064 39.4781V41.2025C149.27 40.6901 148.357 40.4335 147.326 40.4335C147.003 40.4335 146.712 40.47 146.452 40.5431C146.192 40.6153 145.969 40.7181 145.783 40.8493C145.597 40.9812 145.454 41.1387 145.352 41.3216C145.249 41.5081 145.197 41.7175 145.199 41.9297C145.199 42.2068 145.25 42.4385 145.352 42.6262C145.454 42.8127 145.603 42.9786 145.799 43.1247C145.996 43.2692 146.235 43.4013 146.515 43.5186C146.797 43.6366 147.116 43.7648 147.475 43.9034C147.951 44.084 148.38 44.2693 148.759 44.4589C149.138 44.6493 149.461 44.8644 149.727 45.1032C149.988 45.3341 150.197 45.615 150.344 45.9287C150.487 46.2411 150.559 46.6113 150.559 47.0405C150.559 47.567 150.443 48.024 150.207 48.4119C149.971 48.8004 149.649 49.1307 149.265 49.3777C148.871 49.6343 148.419 49.8246 147.906 49.9493C147.395 50.074 146.857 50.1363 146.295 50.1363C145.184 50.1382 144.222 49.9268 143.408 49.5043ZM59.8467 29.6221L45.5356 31.6822V41.9127H59.8463L59.8467 29.6221ZM34.1351 33.3222V41.9127H44.527V31.8267L34.1351 33.3222ZM34.1351 51.6068L44.527 53.1192V42.907H34.1351V51.6068ZM59.8467 55.3488V42.907H45.5356V53.2664L59.8467 55.3488Z" fill="#0078D6"/>
</g>
<rect x="87" y="158" width="144" height="7" rx="3.5" fill="white"/>
<rect x="87" y="173" width="84" height="4" rx="2" fill="white"/>
<rect opacity="0.5" x="87" y="181" width="84" height="4" rx="2" fill="white"/>
<g clip-path="url(#clip2_0_182)">
<path d="M111.16 163.56L105.067 184.842H102.104L97.6658 169.289C97.4759 168.626 97.3596 167.904 97.32 167.122H97.2603C97.2017 167.845 97.0708 168.561 96.8693 169.259L92.4019 184.842H89.468L83.1495 163.56H85.932L90.5207 179.885C90.7138 180.583 90.8348 181.299 90.8818 182.022H90.9575C91.0075 181.497 91.1616 180.785 91.4231 179.885L96.1923 163.56H98.6141L103.187 180.004C103.347 180.567 103.467 181.231 103.548 181.992H103.608C103.647 181.478 103.783 180.796 104.014 179.945L108.422 163.561H111.16V163.56ZM114.558 165.786C114.116 165.786 113.74 165.637 113.43 165.34C113.119 165.043 112.964 164.668 112.964 164.212C112.964 163.758 113.12 163.379 113.43 163.076C113.741 162.775 114.116 162.624 114.558 162.624C115.009 162.624 115.393 162.776 115.709 163.076C116.025 163.379 116.183 163.757 116.183 164.212C116.183 164.648 116.025 165.019 115.709 165.326C115.393 165.633 115.01 165.786 114.558 165.786ZM115.761 184.842H113.294V169.644H115.761V184.842ZM132.342 184.842H129.875V176.175C129.875 172.95 128.681 171.337 126.295 171.337C125.061 171.337 124.04 171.795 123.233 172.71C122.425 173.625 122.022 174.78 122.022 176.175V184.842H119.554V169.644H122.022V172.167H122.082C123.245 170.248 124.929 169.288 127.136 169.288C128.821 169.288 130.11 169.825 131.002 170.898C131.896 171.972 132.341 173.523 132.341 175.55V184.841H132.342L132.342 184.842ZM149.893 184.842H147.425V182.259H147.366C146.222 184.218 144.456 185.198 142.07 185.198C140.134 185.198 138.587 184.518 137.429 183.157C136.272 181.797 135.691 179.944 135.691 177.599C135.691 175.086 136.333 173.072 137.617 171.56C138.901 170.045 140.61 169.289 142.748 169.289C144.863 169.289 146.402 170.11 147.366 171.752H147.425V162.343H149.893V184.842ZM147.426 177.971V175.73C147.426 174.503 147.014 173.465 146.193 172.613C145.37 171.763 144.328 171.336 143.064 171.336C141.559 171.336 140.375 171.881 139.513 172.969C138.651 174.058 138.219 175.561 138.219 177.48C138.219 179.232 138.633 180.614 139.461 181.628C140.287 182.642 141.398 183.149 142.792 183.149C144.167 183.149 145.282 182.66 146.14 181.679C146.997 180.701 147.426 179.463 147.426 177.971ZM160.678 185.197C158.4 185.197 156.584 184.488 155.225 183.068C153.865 181.648 153.186 179.766 153.186 177.421C153.186 174.869 153.894 172.875 155.308 171.441C156.721 170.006 158.632 169.288 161.04 169.288C163.335 169.288 165.129 169.985 166.417 171.381C167.706 172.775 168.35 174.71 168.35 177.183C168.35 179.608 167.656 181.549 166.267 183.008C164.878 184.468 163.015 185.197 160.678 185.197ZM160.858 171.336C159.273 171.336 158.019 171.868 157.098 172.932C156.174 173.996 155.714 175.462 155.714 177.332C155.714 179.133 156.18 180.552 157.114 181.591C158.046 182.629 159.295 183.149 160.859 183.149C162.454 183.149 163.679 182.639 164.538 181.62C165.395 180.601 165.824 179.152 165.824 177.272C165.824 175.372 165.395 173.908 164.538 172.879C163.679 171.851 162.453 171.336 160.858 171.336ZM190.583 169.645L185.965 184.842H183.407L180.233 173.963C180.113 173.547 180.032 173.078 179.993 172.554H179.933C179.904 172.91 179.798 173.369 179.617 173.934L176.173 184.842H173.705L169.042 169.646H171.629L174.817 181.072C174.917 181.418 174.987 181.873 175.027 182.437H175.148C175.178 182.002 175.269 181.537 175.419 181.042L178.969 169.645H181.225L184.414 181.101C184.514 181.468 184.59 181.923 184.641 182.467H184.761C184.781 182.081 184.866 181.626 185.017 181.101L188.146 169.645H190.583ZM191.726 184.292V181.68C193.07 182.66 194.549 183.149 196.164 183.149C198.33 183.149 199.413 182.437 199.413 181.012C199.413 180.606 199.32 180.262 199.136 179.98C198.951 179.698 198.699 179.449 198.384 179.231C198.068 179.014 197.696 178.817 197.271 178.645C196.814 178.46 196.355 178.279 195.894 178.103C195.212 177.835 194.613 177.566 194.097 177.293C193.58 177.022 193.15 176.715 192.803 176.373C192.464 176.042 192.197 175.645 192.02 175.208C191.845 174.773 191.757 174.264 191.757 173.679C191.757 172.967 191.923 172.336 192.253 171.787C192.585 171.237 193.026 170.778 193.577 170.406C194.129 170.035 194.758 169.756 195.466 169.567C196.179 169.379 196.915 169.285 197.653 169.286C198.987 169.286 200.18 169.515 201.234 169.969V172.432C200.099 171.7 198.796 171.334 197.322 171.334C196.861 171.334 196.445 171.386 196.074 171.49C195.702 171.593 195.385 171.74 195.119 171.928C194.853 172.116 194.648 172.341 194.503 172.602C194.356 172.869 194.281 173.168 194.284 173.471C194.284 173.867 194.357 174.198 194.503 174.466C194.648 174.732 194.861 174.969 195.142 175.178C195.423 175.385 195.764 175.573 196.165 175.741C196.567 175.909 197.023 176.093 197.535 176.291C198.216 176.549 198.828 176.813 199.37 177.084C199.911 177.356 200.372 177.663 200.753 178.005C201.125 178.334 201.425 178.736 201.634 179.184C201.839 179.63 201.942 180.159 201.942 180.772C201.942 181.524 201.775 182.177 201.438 182.731C201.102 183.286 200.641 183.758 200.092 184.111C199.53 184.478 198.884 184.749 198.151 184.928C197.421 185.106 196.653 185.195 195.85 185.195C194.263 185.197 192.889 184.895 191.726 184.292ZM72.3525 155.889L51.908 158.832V173.447H72.3518L72.3525 155.889ZM35.6216 161.175V173.447H50.4671V159.038L35.6216 161.175ZM35.6216 187.295L50.4671 189.456V174.867H35.6216V187.295ZM72.3525 192.641V174.867H51.908V189.666L72.3525 192.641Z" fill="#0078D6"/>
</g>
<rect x="34" y="71" width="203" height="4" rx="2" fill="white"/>
<rect x="35" y="84" width="100" height="22" rx="11" fill="#D1140E"/>
<rect x="49" y="93" width="65" height="4" rx="2" fill="white"/>
<path d="M69.128 46V43.784L69.36 44.424L66.928 40.4H68.04L69.992 43.64H69.368L71.336 40.4H72.36L69.928 44.424L70.168 43.784V46H69.128ZM75.4229 46.08C74.9855 46.08 74.5829 46.008 74.2149 45.864C73.8469 45.72 73.5269 45.52 73.2549 45.264C72.9829 45.0027 72.7722 44.6987 72.6229 44.352C72.4735 44 72.3989 43.616 72.3989 43.2C72.3989 42.784 72.4735 42.4027 72.6229 42.056C72.7722 41.704 72.9829 41.4 73.2549 41.144C73.5269 40.8827 73.8469 40.68 74.2149 40.536C74.5829 40.392 74.9829 40.32 75.4149 40.32C75.8522 40.32 76.2522 40.392 76.6149 40.536C76.9829 40.68 77.3029 40.8827 77.5749 41.144C77.8469 41.4 78.0575 41.704 78.2069 42.056C78.3562 42.4027 78.4309 42.784 78.4309 43.2C78.4309 43.616 78.3562 44 78.2069 44.352C78.0575 44.704 77.8469 45.008 77.5749 45.264C77.3029 45.52 76.9829 45.72 76.6149 45.864C76.2522 46.008 75.8549 46.08 75.4229 46.08ZM75.4149 45.168C75.6975 45.168 75.9589 45.12 76.1989 45.024C76.4389 44.928 76.6469 44.792 76.8229 44.616C76.9989 44.4347 77.1349 44.2267 77.2309 43.992C77.3322 43.752 77.3829 43.488 77.3829 43.2C77.3829 42.912 77.3322 42.6507 77.2309 42.416C77.1349 42.176 76.9989 41.968 76.8229 41.792C76.6469 41.6107 76.4389 41.472 76.1989 41.376C75.9589 41.28 75.6975 41.232 75.4149 41.232C75.1322 41.232 74.8709 41.28 74.6309 41.376C74.3962 41.472 74.1882 41.6107 74.0069 41.792C73.8309 41.968 73.6922 42.176 73.5909 42.416C73.4949 42.6507 73.4469 42.912 73.4469 43.2C73.4469 43.4827 73.4949 43.744 73.5909 43.984C73.6922 44.224 73.8309 44.4347 74.0069 44.616C74.1829 44.792 74.3909 44.928 74.6309 45.024C74.8709 45.12 75.1322 45.168 75.4149 45.168ZM81.9413 46.08C81.1733 46.08 80.5706 45.864 80.1333 45.432C79.7013 45 79.4853 44.376 79.4853 43.56V40.4H80.5253V43.52C80.5253 44.096 80.6479 44.5147 80.8932 44.776C81.1439 45.0373 81.4959 45.168 81.9493 45.168C82.4026 45.168 82.7519 45.0373 82.9973 44.776C83.2426 44.5147 83.3653 44.096 83.3653 43.52V40.4H84.3893V43.56C84.3893 44.376 84.1706 45 83.7333 45.432C83.3013 45.864 82.7039 46.08 81.9413 46.08ZM85.8458 46V40.4H88.1498C88.6458 40.4 89.0698 40.48 89.4218 40.64C89.7791 40.8 90.0538 41.0293 90.2458 41.328C90.4378 41.6267 90.5338 41.9813 90.5338 42.392C90.5338 42.8027 90.4378 43.1573 90.2458 43.456C90.0538 43.7493 89.7791 43.976 89.4218 44.136C89.0698 44.2907 88.6458 44.368 88.1498 44.368H86.4218L86.8858 43.896V46H85.8458ZM89.5098 46L88.0938 43.968H89.2057L90.6298 46H89.5098ZM86.8858 44.008L86.4218 43.512H88.1018C88.5604 43.512 88.9044 43.4133 89.1337 43.216C89.3684 43.0187 89.4858 42.744 89.4858 42.392C89.4858 42.0347 89.3684 41.76 89.1337 41.568C88.9044 41.376 88.5604 41.28 88.1018 41.28H86.4218L86.8858 40.768V44.008ZM93.9083 46V40.4H96.2123C96.7083 40.4 97.1323 40.48 97.4843 40.64C97.8416 40.8 98.1163 41.0293 98.3083 41.328C98.5003 41.6267 98.5963 41.9813 98.5963 42.392C98.5963 42.8027 98.5003 43.1573 98.3083 43.456C98.1163 43.7547 97.8416 43.984 97.4843 44.144C97.1323 44.304 96.7083 44.384 96.2123 44.384H94.4843L94.9483 43.896V46H93.9083ZM94.9483 44.008L94.4843 43.504H96.1643C96.6229 43.504 96.9669 43.408 97.1962 43.216C97.4309 43.0187 97.5483 42.744 97.5483 42.392C97.5483 42.0347 97.4309 41.76 97.1962 41.568C96.9669 41.376 96.6229 41.28 96.1643 41.28H94.4843L94.9483 40.768V44.008ZM102.305 46.08C101.878 46.08 101.481 46.0107 101.113 45.872C100.75 45.728 100.433 45.528 100.161 45.272C99.8943 45.0107 99.6863 44.704 99.5369 44.352C99.3876 44 99.3129 43.616 99.3129 43.2C99.3129 42.784 99.3876 42.4 99.5369 42.048C99.6863 41.696 99.8969 41.392 100.169 41.136C100.441 40.8747 100.758 40.6747 101.121 40.536C101.484 40.392 101.881 40.32 102.313 40.32C102.772 40.32 103.19 40.4 103.569 40.56C103.948 40.7147 104.268 40.9467 104.529 41.256L103.857 41.888C103.654 41.6693 103.428 41.5067 103.177 41.4C102.926 41.288 102.654 41.232 102.361 41.232C102.068 41.232 101.798 41.28 101.553 41.376C101.313 41.472 101.102 41.608 100.921 41.784C100.745 41.96 100.606 42.168 100.505 42.408C100.409 42.648 100.361 42.912 100.361 43.2C100.361 43.488 100.409 43.752 100.505 43.992C100.606 44.232 100.745 44.44 100.921 44.616C101.102 44.792 101.313 44.928 101.553 45.024C101.798 45.12 102.068 45.168 102.361 45.168C102.654 45.168 102.926 45.1147 103.177 45.008C103.428 44.896 103.654 44.728 103.857 44.504L104.529 45.144C104.268 45.448 103.948 45.68 103.569 45.84C103.19 46 102.769 46.08 102.305 46.08ZM107.736 46V40.4H108.776V46H107.736ZM112.027 46.08C111.59 46.08 111.171 46.0187 110.771 45.896C110.371 45.768 110.054 45.6053 109.819 45.408L110.179 44.6C110.403 44.776 110.68 44.9227 111.011 45.04C111.342 45.1573 111.68 45.216 112.027 45.216C112.32 45.216 112.558 45.184 112.739 45.12C112.92 45.056 113.054 44.9707 113.139 44.864C113.224 44.752 113.267 44.6267 113.267 44.488C113.267 44.3173 113.206 44.1813 113.083 44.08C112.96 43.9733 112.8 43.8907 112.603 43.832C112.411 43.768 112.195 43.7093 111.955 43.656C111.72 43.6027 111.483 43.5413 111.243 43.472C111.008 43.3973 110.792 43.304 110.595 43.192C110.403 43.0747 110.246 42.92 110.123 42.728C110 42.536 109.939 42.2907 109.939 41.992C109.939 41.688 110.019 41.4107 110.179 41.16C110.344 40.904 110.592 40.7013 110.923 40.552C111.259 40.3973 111.683 40.32 112.195 40.32C112.531 40.32 112.864 40.3627 113.195 40.448C113.526 40.5333 113.814 40.656 114.059 40.816L113.731 41.624C113.48 41.4747 113.222 41.3653 112.955 41.296C112.688 41.2213 112.432 41.184 112.187 41.184C111.899 41.184 111.664 41.2187 111.483 41.288C111.307 41.3573 111.176 41.448 111.091 41.56C111.011 41.672 110.971 41.8 110.971 41.944C110.971 42.1147 111.03 42.2533 111.147 42.36C111.27 42.4613 111.427 42.5413 111.619 42.6C111.816 42.6587 112.035 42.7173 112.275 42.776C112.515 42.8293 112.752 42.8907 112.987 42.96C113.227 43.0293 113.443 43.12 113.635 43.232C113.832 43.344 113.99 43.496 114.107 43.688C114.23 43.88 114.291 44.1227 114.291 44.416C114.291 44.7147 114.208 44.992 114.043 45.248C113.883 45.4987 113.635 45.7013 113.299 45.856C112.963 46.0053 112.539 46.08 112.027 46.08ZM117.533 46V40.4H118.573V46H117.533ZM120.088 46V40.4H120.944L124.456 44.712H124.032V40.4H125.064V46H124.208L120.696 41.688H121.12V46H120.088ZM127.517 42.976H130.309V43.856H127.517V42.976ZM127.605 46H126.565V40.4H130.653V41.272H127.605V46ZM132.618 42.728H135.402V43.584H132.618V42.728ZM132.698 45.128H135.858V46H131.658V40.4H135.746V41.272H132.698V45.128ZM139.61 46.08C139.183 46.08 138.786 46.0107 138.418 45.872C138.055 45.728 137.738 45.528 137.466 45.272C137.199 45.0107 136.991 44.704 136.842 44.352C136.692 44 136.618 43.616 136.618 43.2C136.618 42.784 136.692 42.4 136.842 42.048C136.991 41.696 137.202 41.392 137.474 41.136C137.746 40.8747 138.063 40.6747 138.426 40.536C138.788 40.392 139.186 40.32 139.618 40.32C140.076 40.32 140.495 40.4 140.874 40.56C141.252 40.7147 141.572 40.9467 141.834 41.256L141.162 41.888C140.959 41.6693 140.732 41.5067 140.482 41.4C140.231 41.288 139.959 41.232 139.666 41.232C139.372 41.232 139.103 41.28 138.858 41.376C138.618 41.472 138.407 41.608 138.226 41.784C138.05 41.96 137.911 42.168 137.81 42.408C137.714 42.648 137.666 42.912 137.666 43.2C137.666 43.488 137.714 43.752 137.81 43.992C137.911 44.232 138.05 44.44 138.226 44.616C138.407 44.792 138.618 44.928 138.858 45.024C139.103 45.12 139.372 45.168 139.666 45.168C139.959 45.168 140.231 45.1147 140.482 45.008C140.732 44.896 140.959 44.728 141.162 44.504L141.834 45.144C141.572 45.448 141.252 45.68 140.874 45.84C140.495 46 140.074 46.08 139.61 46.08ZM143.904 46V41.28H142.048V40.4H146.8V41.28H144.944V46H143.904ZM148.54 42.728H151.324V43.584H148.54V42.728ZM148.62 45.128H151.78V46H147.58V40.4H151.668V41.272H148.62V45.128ZM152.94 46V40.4H155.388C155.996 40.4 156.529 40.5173 156.988 40.752C157.446 40.9867 157.804 41.312 158.06 41.728C158.316 42.144 158.444 42.6347 158.444 43.2C158.444 43.76 158.316 44.2507 158.06 44.672C157.804 45.088 157.446 45.4133 156.988 45.648C156.529 45.8827 155.996 46 155.388 46H152.94ZM153.98 45.12H155.34C155.761 45.12 156.124 45.04 156.428 44.88C156.737 44.72 156.974 44.496 157.14 44.208C157.31 43.92 157.396 43.584 157.396 43.2C157.396 42.8107 157.31 42.4747 157.14 42.192C156.974 41.904 156.737 41.68 156.428 41.52C156.124 41.36 155.761 41.28 155.34 41.28H153.98V45.12ZM163.08 46L161.224 40.4H162.304L163.96 45.464H163.424L165.144 40.4H166.104L167.776 45.464H167.256L168.952 40.4H169.944L168.088 46H166.984L165.456 41.432H165.744L164.192 46H163.08ZM170.791 46V40.4H171.831V46H170.791ZM174.482 46V41.28H172.626V40.4H177.378V41.28H175.522V46H174.482ZM182.094 40.4H183.134V46H182.094V40.4ZM179.198 46H178.158V40.4H179.198V46ZM182.174 43.6H179.11V42.712H182.174V43.6ZM187.742 47.552C187.427 47.0667 187.184 46.5067 187.014 45.872C186.848 45.232 186.766 44.544 186.766 43.808C186.766 43.072 186.848 42.384 187.014 41.744C187.184 41.0987 187.427 40.5387 187.742 40.064H188.694C188.368 40.6507 188.128 41.2507 187.974 41.864C187.824 42.472 187.75 43.12 187.75 43.808C187.75 44.496 187.824 45.1467 187.974 45.76C188.128 46.368 188.368 46.9653 188.694 47.552H187.742ZM190.155 46L192.467 40.816L192.739 41.28H189.563L190.059 40.776V42.232H189.091V40.4H193.443V41.096L191.267 46H190.155ZM194.862 47.552H193.91C194.241 46.9653 194.481 46.368 194.63 45.76C194.785 45.1467 194.862 44.496 194.862 43.808C194.862 43.12 194.785 42.472 194.63 41.864C194.481 41.2507 194.241 40.6507 193.91 40.064H194.862C195.182 40.5387 195.425 41.0987 195.59 41.744C195.756 42.384 195.838 43.072 195.838 43.808C195.838 44.544 195.756 45.232 195.59 45.872C195.425 46.5067 195.182 47.0667 194.862 47.552ZM201.135 46L198.687 40.4H199.815L201.999 45.464H201.351L203.559 40.4H204.599L202.159 46H201.135ZM205.19 46V40.4H206.23V46H205.19ZM207.744 46V40.4H210.048C210.544 40.4 210.968 40.48 211.32 40.64C211.678 40.8 211.952 41.0293 212.144 41.328C212.336 41.6267 212.432 41.9813 212.432 42.392C212.432 42.8027 212.336 43.1573 212.144 43.456C211.952 43.7493 211.678 43.976 211.32 44.136C210.968 44.2907 210.544 44.368 210.048 44.368H208.32L208.784 43.896V46H207.744ZM211.408 46L209.992 43.968H211.104L212.528 46H211.408ZM208.784 44.008L208.32 43.512H210C210.459 43.512 210.803 43.4133 211.032 43.216C211.267 43.0187 211.384 42.744 211.384 42.392C211.384 42.0347 211.267 41.76 211.032 41.568C210.803 41.376 210.459 41.28 210 41.28H208.32L208.784 40.768V44.008ZM216.004 46.08C215.236 46.08 214.633 45.864 214.196 45.432C213.764 45 213.548 44.376 213.548 43.56V40.4H214.588V43.52C214.588 44.096 214.71 44.5147 214.956 44.776C215.206 45.0373 215.558 45.168 216.012 45.168C216.465 45.168 216.814 45.0373 217.06 44.776C217.305 44.5147 217.428 44.096 217.428 43.52V40.4H218.452V43.56C218.452 44.376 218.233 45 217.796 45.432C217.364 45.864 216.766 46.08 216.004 46.08ZM221.644 46.08C221.207 46.08 220.788 46.0187 220.388 45.896C219.988 45.768 219.671 45.6053 219.436 45.408L219.796 44.6C220.02 44.776 220.298 44.9227 220.628 45.04C220.959 45.1573 221.298 45.216 221.644 45.216C221.938 45.216 222.175 45.184 222.356 45.12C222.538 45.056 222.671 44.9707 222.756 44.864C222.842 44.752 222.884 44.6267 222.884 44.488C222.884 44.3173 222.823 44.1813 222.7 44.08C222.578 43.9733 222.418 43.8907 222.22 43.832C222.028 43.768 221.812 43.7093 221.572 43.656C221.338 43.6027 221.1 43.5413 220.86 43.472C220.626 43.3973 220.41 43.304 220.212 43.192C220.02 43.0747 219.863 42.92 219.74 42.728C219.618 42.536 219.556 42.2907 219.556 41.992C219.556 41.688 219.636 41.4107 219.796 41.16C219.962 40.904 220.21 40.7013 220.54 40.552C220.876 40.3973 221.3 40.32 221.812 40.32C222.148 40.32 222.482 40.3627 222.812 40.448C223.143 40.5333 223.431 40.656 223.676 40.816L223.348 41.624C223.098 41.4747 222.839 41.3653 222.572 41.296C222.306 41.2213 222.05 41.184 221.804 41.184C221.516 41.184 221.282 41.2187 221.1 41.288C220.924 41.3573 220.794 41.448 220.708 41.56C220.628 41.672 220.588 41.8 220.588 41.944C220.588 42.1147 220.647 42.2533 220.764 42.36C220.887 42.4613 221.044 42.5413 221.236 42.6C221.434 42.6587 221.652 42.7173 221.892 42.776C222.132 42.8293 222.37 42.8907 222.604 42.96C222.844 43.0293 223.06 43.12 223.252 43.232C223.45 43.344 223.607 43.496 223.724 43.688C223.847 43.88 223.908 44.1227 223.908 44.416C223.908 44.7147 223.826 44.992 223.66 45.248C223.5 45.4987 223.252 45.7013 222.916 45.856C222.58 46.0053 222.156 46.08 221.644 46.08ZM225.9 42.728H228.684V43.584H225.9V42.728ZM225.98 45.128H229.14V46H224.94V40.4H229.028V41.272H225.98V45.128ZM232.035 46.08C231.598 46.08 231.179 46.0187 230.779 45.896C230.379 45.768 230.062 45.6053 229.827 45.408L230.187 44.6C230.411 44.776 230.688 44.9227 231.019 45.04C231.35 45.1573 231.688 45.216 232.035 45.216C232.328 45.216 232.566 45.184 232.747 45.12C232.928 45.056 233.062 44.9707 233.147 44.864C233.232 44.752 233.275 44.6267 233.275 44.488C233.275 44.3173 233.214 44.1813 233.091 44.08C232.968 43.9733 232.808 43.8907 232.611 43.832C232.419 43.768 232.203 43.7093 231.963 43.656C231.728 43.6027 231.491 43.5413 231.251 43.472C231.016 43.3973 230.8 43.304 230.603 43.192C230.411 43.0747 230.254 42.92 230.131 42.728C230.008 42.536 229.947 42.2907 229.947 41.992C229.947 41.688 230.027 41.4107 230.187 41.16C230.352 40.904 230.6 40.7013 230.931 40.552C231.267 40.3973 231.691 40.32 232.203 40.32C232.539 40.32 232.872 40.3627 233.203 40.448C233.534 40.5333 233.822 40.656 234.067 40.816L233.739 41.624C233.488 41.4747 233.23 41.3653 232.963 41.296C232.696 41.2213 232.44 41.184 232.195 41.184C231.907 41.184 231.672 41.2187 231.491 41.288C231.315 41.3573 231.184 41.448 231.099 41.56C231.019 41.672 230.979 41.8 230.979 41.944C230.979 42.1147 231.038 42.2533 231.155 42.36C231.278 42.4613 231.435 42.5413 231.627 42.6C231.824 42.6587 232.043 42.7173 232.283 42.776C232.523 42.8293 232.76 42.8907 232.995 42.96C233.235 43.0293 233.451 43.12 233.643 43.232C233.84 43.344 233.998 43.496 234.115 43.688C234.238 43.88 234.299 44.1227 234.299 44.416C234.299 44.7147 234.216 44.992 234.051 45.248C233.891 45.4987 233.643 45.7013 233.307 45.856C232.971 46.0053 232.547 46.08 232.035 46.08ZM235.298 44.144L235.106 40.4H236.29L236.09 44.144H235.298ZM235.698 46.056C235.511 46.056 235.357 45.9947 235.234 45.872C235.111 45.7493 235.05 45.6027 235.05 45.432C235.05 45.2613 235.111 45.1173 235.234 45C235.357 44.8773 235.511 44.816 235.698 44.816C235.885 44.816 236.037 44.8773 236.154 45C236.271 45.1173 236.33 45.2613 236.33 45.432C236.33 45.6027 236.271 45.7493 236.154 45.872C236.037 45.9947 235.885 46.056 235.698 46.056Z" fill="white"/>
<rect x="33" y="207" width="100" height="21" fill="#4A565F"/>
<rect x="135" y="207" width="100" height="21" fill="#4B565E"/>
<rect x="51" y="218" width="63" height="2" rx="1" fill="white"/>
<rect x="151" y="215" width="63" height="2" rx="1" fill="white"/>
<rect x="151" y="220" width="29" height="2" rx="1" fill="white"/>
</g>
<defs>
<filter id="filter0_d_0_182" x="0" y="0" width="268" height="265" filterUnits="userSpaceOnUse" color-interpolation-filters="sRGB">
<feFlood flood-opacity="0" result="BackgroundImageFix"/>
<feColorMatrix in="SourceAlpha" type="matrix" values="0 0 0 0 0 0 0 0 0 0 0 0 0 0 0 0 0 0 127 0" result="hardAlpha"/>
<feOffset dy="4"/>
<feGaussianBlur stdDeviation="10"/>
<feComposite in2="hardAlpha" operator="out"/>
<feColorMatrix type="matrix" values="0 0 0 0 0.0488428 0 0 0 0 0.0628443 0 0 0 0 0.188858 0 0 0 0.57 0"/>
<feBlend mode="normal" in2="BackgroundImageFix" result="effect1_dropShadow_0_182"/>
<feBlend mode="normal" in="SourceGraphic" in2="effect1_dropShadow_0_182" result="shape"/>
</filter>
<linearGradient id="paint0_linear_0_182" x1="35.0054" y1="134.687" x2="47.9941" y2="134.687" gradientUnits="userSpaceOnUse">
<stop stop-color="#D93025"/>
<stop offset="1" stop-color="#EA4335"/>
</linearGradient>
<linearGradient id="paint1_linear_0_182" x1="40.4756" y1="144.9" x2="46.97" y2="133.651" gradientUnits="userSpaceOnUse">
<stop stop-color="#FCC934"/>
<stop offset="1" stop-color="#FBBC04"/>
</linearGradient>
<linearGradient id="paint2_linear_0_182" x1="42.3119" y1="144.532" x2="35.8175" y2="133.283" gradientUnits="userSpaceOnUse">
<stop stop-color="#1E8E3E"/>
<stop offset="1" stop-color="#34A853"/>
</linearGradient>
<clipPath id="clip0_0_182">
<rect width="15" height="15" fill="white" transform="translate(34 130)"/>
</clipPath>
<clipPath id="clip1_0_182">
<rect width="28" height="27" fill="white" transform="translate(33 29)"/>
</clipPath>
<clipPath id="clip2_0_182">
<rect width="40" height="38.5714" fill="white" transform="translate(34 155)"/>
</clipPath>
</defs>
</svg>
