<svg width="289" height="285" viewBox="0 0 289 285" fill="none" xmlns="http://www.w3.org/2000/svg">
<g filter="url(#filter0_d_0_216)">
<rect x="20" y="16" width="249" height="245" rx="8" fill="white"/>
<path d="M20 24C20 19.5817 23.5817 16 28 16H261C265.418 16 269 19.5817 269 24V61H20V24Z" fill="#FFE019"/>
<path d="M20 253C20 257.418 23.5817 261 28 261H261C265.418 261 269 257.418 269 253V124.889H20V253Z" fill="#1E2D3D"/>
<path d="M63.1044 149.583C62.6184 149.583 62.1714 149.505 61.7634 149.349C61.3554 149.187 61.0014 148.962 60.7014 148.674C60.4014 148.38 60.1674 148.038 59.9994 147.648C59.8314 147.258 59.7474 146.829 59.7474 146.361C59.7474 145.893 59.8314 145.464 59.9994 145.074C60.1674 144.684 60.4014 144.345 60.7014 144.057C61.0074 143.763 61.3644 143.538 61.7724 143.382C62.1804 143.22 62.6304 143.139 63.1224 143.139C63.6204 143.139 64.0764 143.22 64.4904 143.382C64.9044 143.544 65.2554 143.787 65.5434 144.111L64.9854 144.669C64.7274 144.417 64.4454 144.234 64.1394 144.12C63.8394 144 63.5124 143.94 63.1584 143.94C62.7984 143.94 62.4624 144 62.1504 144.12C61.8444 144.24 61.5774 144.408 61.3494 144.624C61.1274 144.84 60.9534 145.098 60.8274 145.398C60.7074 145.692 60.6474 146.013 60.6474 146.361C60.6474 146.703 60.7074 147.024 60.8274 147.324C60.9534 147.618 61.1274 147.876 61.3494 148.098C61.5774 148.314 61.8444 148.482 62.1504 148.602C62.4564 148.722 62.7894 148.782 63.1494 148.782C63.4854 148.782 63.8064 148.731 64.1124 148.629C64.4244 148.521 64.7124 148.344 64.9764 148.098L65.4894 148.782C65.1774 149.046 64.8114 149.247 64.3914 149.385C63.9774 149.517 63.5484 149.583 63.1044 149.583ZM64.6254 148.665V146.325H65.4894V148.782L64.6254 148.665ZM69.1296 149.565C68.6496 149.565 68.2236 149.46 67.8516 149.25C67.4796 149.04 67.1856 148.752 66.9696 148.386C66.7536 148.014 66.6456 147.594 66.6456 147.126C66.6456 146.652 66.7536 146.232 66.9696 145.866C67.1856 145.5 67.4796 145.215 67.8516 145.011C68.2236 144.801 68.6496 144.696 69.1296 144.696C69.6036 144.696 70.0266 144.801 70.3986 145.011C70.7766 145.215 71.0706 145.5 71.2806 145.866C71.4966 146.226 71.6046 146.646 71.6046 147.126C71.6046 147.6 71.4966 148.02 71.2806 148.386C71.0706 148.752 70.7766 149.04 70.3986 149.25C70.0266 149.46 69.6036 149.565 69.1296 149.565ZM69.1296 148.809C69.4356 148.809 69.7086 148.74 69.9486 148.602C70.1946 148.464 70.3866 148.269 70.5246 148.017C70.6626 147.759 70.7316 147.462 70.7316 147.126C70.7316 146.784 70.6626 146.49 70.5246 146.244C70.3866 145.992 70.1946 145.797 69.9486 145.659C69.7086 145.521 69.4356 145.452 69.1296 145.452C68.8236 145.452 68.5506 145.521 68.3106 145.659C68.0706 145.797 67.8786 145.992 67.7346 146.244C67.5906 146.49 67.5186 146.784 67.5186 147.126C67.5186 147.462 67.5906 147.759 67.7346 148.017C67.8786 148.269 68.0706 148.464 68.3106 148.602C68.5506 148.74 68.8236 148.809 69.1296 148.809ZM74.8425 149.565C74.3625 149.565 73.9365 149.46 73.5645 149.25C73.1925 149.04 72.8985 148.752 72.6825 148.386C72.4665 148.014 72.3585 147.594 72.3585 147.126C72.3585 146.652 72.4665 146.232 72.6825 145.866C72.8985 145.5 73.1925 145.215 73.5645 145.011C73.9365 144.801 74.3625 144.696 74.8425 144.696C75.3165 144.696 75.7395 144.801 76.1115 145.011C76.4895 145.215 76.7835 145.5 76.9935 145.866C77.2095 146.226 77.3175 146.646 77.3175 147.126C77.3175 147.6 77.2095 148.02 76.9935 148.386C76.7835 148.752 76.4895 149.04 76.1115 149.25C75.7395 149.46 75.3165 149.565 74.8425 149.565ZM74.8425 148.809C75.1485 148.809 75.4215 148.74 75.6615 148.602C75.9075 148.464 76.0995 148.269 76.2375 148.017C76.3755 147.759 76.4445 147.462 76.4445 147.126C76.4445 146.784 76.3755 146.49 76.2375 146.244C76.0995 145.992 75.9075 145.797 75.6615 145.659C75.4215 145.521 75.1485 145.452 74.8425 145.452C74.5365 145.452 74.2635 145.521 74.0235 145.659C73.7835 145.797 73.5915 145.992 73.4475 146.244C73.3035 146.49 73.2315 146.784 73.2315 147.126C73.2315 147.462 73.3035 147.759 73.4475 148.017C73.5915 148.269 73.7835 148.464 74.0235 148.602C74.2635 148.74 74.5365 148.809 74.8425 148.809ZM80.6004 151.311C80.1624 151.311 79.7364 151.248 79.3224 151.122C78.9144 151.002 78.5814 150.828 78.3234 150.6L78.7374 149.934C78.9594 150.126 79.2324 150.276 79.5564 150.384C79.8804 150.498 80.2194 150.555 80.5734 150.555C81.1374 150.555 81.5514 150.423 81.8154 150.159C82.0794 149.895 82.2114 149.493 82.2114 148.953V147.945L82.3014 147L82.2564 146.046V144.741H83.0754V148.863C83.0754 149.703 82.8654 150.321 82.4454 150.717C82.0254 151.113 81.4104 151.311 80.6004 151.311ZM80.4924 149.313C80.0304 149.313 79.6164 149.217 79.2504 149.025C78.8904 148.827 78.6024 148.554 78.3864 148.206C78.1764 147.858 78.0714 147.456 78.0714 147C78.0714 146.538 78.1764 146.136 78.3864 145.794C78.6024 145.446 78.8904 145.176 79.2504 144.984C79.6164 144.792 80.0304 144.696 80.4924 144.696C80.9004 144.696 81.2724 144.78 81.6084 144.948C81.9444 145.11 82.2114 145.362 82.4094 145.704C82.6134 146.046 82.7154 146.478 82.7154 147C82.7154 147.516 82.6134 147.945 82.4094 148.287C82.2114 148.629 81.9444 148.887 81.6084 149.061C81.2724 149.229 80.9004 149.313 80.4924 149.313ZM80.5914 148.557C80.9094 148.557 81.1914 148.491 81.4374 148.359C81.6834 148.227 81.8754 148.044 82.0134 147.81C82.1574 147.576 82.2294 147.306 82.2294 147C82.2294 146.694 82.1574 146.424 82.0134 146.19C81.8754 145.956 81.6834 145.776 81.4374 145.65C81.1914 145.518 80.9094 145.452 80.5914 145.452C80.2734 145.452 79.9884 145.518 79.7364 145.65C79.4904 145.776 79.2954 145.956 79.1514 146.19C79.0134 146.424 78.9444 146.694 78.9444 147C78.9444 147.306 79.0134 147.576 79.1514 147.81C79.2954 148.044 79.4904 148.227 79.7364 148.359C79.9884 148.491 80.2734 148.557 80.5914 148.557ZM84.7262 149.511V142.833H85.5902V149.511H84.7262ZM89.3639 149.565C88.8539 149.565 88.4039 149.46 88.0139 149.25C87.6299 149.04 87.3299 148.752 87.1139 148.386C86.9039 148.02 86.7989 147.6 86.7989 147.126C86.7989 146.652 86.9009 146.232 87.1049 145.866C87.3149 145.5 87.5999 145.215 87.9599 145.011C88.3259 144.801 88.7369 144.696 89.1929 144.696C89.6549 144.696 90.0629 144.798 90.4169 145.002C90.7709 145.206 91.0469 145.494 91.2449 145.866C91.4489 146.232 91.5509 146.661 91.5509 147.153C91.5509 147.189 91.5479 147.231 91.5419 147.279C91.5419 147.327 91.5389 147.372 91.5329 147.414H87.4739V146.793H91.0829L90.7319 147.009C90.7379 146.703 90.6749 146.43 90.5429 146.19C90.4109 145.95 90.2279 145.764 89.9939 145.632C89.7659 145.494 89.4989 145.425 89.1929 145.425C88.8929 145.425 88.6259 145.494 88.3919 145.632C88.1579 145.764 87.9749 145.953 87.8429 146.199C87.7109 146.439 87.6449 146.715 87.6449 147.027V147.171C87.6449 147.489 87.7169 147.774 87.8609 148.026C88.0109 148.272 88.2179 148.464 88.4819 148.602C88.7459 148.74 89.0489 148.809 89.3909 148.809C89.6729 148.809 89.9279 148.761 90.1559 148.665C90.3899 148.569 90.5939 148.425 90.7679 148.233L91.2449 148.791C91.0289 149.043 90.7589 149.235 90.4349 149.367C90.1169 149.499 89.7599 149.565 89.3639 149.565ZM98.1106 149.583C97.6306 149.583 97.1866 149.505 96.7786 149.349C96.3766 149.187 96.0256 148.962 95.7256 148.674C95.4316 148.38 95.2006 148.038 95.0326 147.648C94.8646 147.258 94.7806 146.829 94.7806 146.361C94.7806 145.893 94.8646 145.464 95.0326 145.074C95.2006 144.684 95.4346 144.345 95.7346 144.057C96.0346 143.763 96.3856 143.538 96.7876 143.382C97.1956 143.22 97.6396 143.139 98.1196 143.139C98.6056 143.139 99.0526 143.223 99.4606 143.391C99.8746 143.553 100.226 143.796 100.514 144.12L99.9286 144.687C99.6886 144.435 99.4186 144.249 99.1186 144.129C98.8186 144.003 98.4976 143.94 98.1556 143.94C97.8016 143.94 97.4716 144 97.1656 144.12C96.8656 144.24 96.6046 144.408 96.3826 144.624C96.1606 144.84 95.9866 145.098 95.8606 145.398C95.7406 145.692 95.6806 146.013 95.6806 146.361C95.6806 146.709 95.7406 147.033 95.8606 147.333C95.9866 147.627 96.1606 147.882 96.3826 148.098C96.6046 148.314 96.8656 148.482 97.1656 148.602C97.4716 148.722 97.8016 148.782 98.1556 148.782C98.4976 148.782 98.8186 148.722 99.1186 148.602C99.4186 148.476 99.6886 148.284 99.9286 148.026L100.514 148.593C100.226 148.917 99.8746 149.163 99.4606 149.331C99.0526 149.499 98.6026 149.583 98.1106 149.583ZM104.219 144.696C104.609 144.696 104.951 144.771 105.245 144.921C105.545 145.071 105.779 145.299 105.947 145.605C106.115 145.911 106.199 146.298 106.199 146.766V149.511H105.335V146.865C105.335 146.403 105.221 146.055 104.993 145.821C104.771 145.587 104.456 145.47 104.048 145.47C103.742 145.47 103.475 145.53 103.247 145.65C103.019 145.77 102.842 145.947 102.716 146.181C102.596 146.415 102.536 146.706 102.536 147.054V149.511H101.672V142.833H102.536V146.028L102.365 145.686C102.521 145.374 102.761 145.131 103.085 144.957C103.409 144.783 103.787 144.696 104.219 144.696ZM107.798 149.511V144.741H108.626V146.037L108.545 145.713C108.677 145.383 108.899 145.131 109.211 144.957C109.523 144.783 109.907 144.696 110.363 144.696V145.533C110.327 145.527 110.291 145.524 110.255 145.524C110.225 145.524 110.195 145.524 110.165 145.524C109.703 145.524 109.337 145.662 109.067 145.938C108.797 146.214 108.662 146.613 108.662 147.135V149.511H107.798ZM113.426 149.565C112.946 149.565 112.52 149.46 112.148 149.25C111.776 149.04 111.482 148.752 111.266 148.386C111.05 148.014 110.942 147.594 110.942 147.126C110.942 146.652 111.05 146.232 111.266 145.866C111.482 145.5 111.776 145.215 112.148 145.011C112.52 144.801 112.946 144.696 113.426 144.696C113.9 144.696 114.323 144.801 114.695 145.011C115.073 145.215 115.367 145.5 115.577 145.866C115.793 146.226 115.901 146.646 115.901 147.126C115.901 147.6 115.793 148.02 115.577 148.386C115.367 148.752 115.073 149.04 114.695 149.25C114.323 149.46 113.9 149.565 113.426 149.565ZM113.426 148.809C113.732 148.809 114.005 148.74 114.245 148.602C114.491 148.464 114.683 148.269 114.821 148.017C114.959 147.759 115.028 147.462 115.028 147.126C115.028 146.784 114.959 146.49 114.821 146.244C114.683 145.992 114.491 145.797 114.245 145.659C114.005 145.521 113.732 145.452 113.426 145.452C113.12 145.452 112.847 145.521 112.607 145.659C112.367 145.797 112.175 145.992 112.031 146.244C111.887 146.49 111.815 146.784 111.815 147.126C111.815 147.462 111.887 147.759 112.031 148.017C112.175 148.269 112.367 148.464 112.607 148.602C112.847 148.74 113.12 148.809 113.426 148.809ZM123.063 144.696C123.447 144.696 123.786 144.771 124.08 144.921C124.374 145.071 124.602 145.299 124.764 145.605C124.932 145.911 125.016 146.298 125.016 146.766V149.511H124.152V146.865C124.152 146.403 124.044 146.055 123.828 145.821C123.612 145.587 123.309 145.47 122.919 145.47C122.631 145.47 122.379 145.53 122.163 145.65C121.947 145.77 121.779 145.947 121.659 146.181C121.545 146.415 121.488 146.706 121.488 147.054V149.511H120.624V146.865C120.624 146.403 120.516 146.055 120.3 145.821C120.09 145.587 119.787 145.47 119.391 145.47C119.109 145.47 118.86 145.53 118.644 145.65C118.428 145.77 118.26 145.947 118.14 146.181C118.02 146.415 117.96 146.706 117.96 147.054V149.511H117.096V144.741H117.924V146.01L117.789 145.686C117.939 145.374 118.17 145.131 118.482 144.957C118.794 144.783 119.157 144.696 119.571 144.696C120.027 144.696 120.42 144.81 120.75 145.038C121.08 145.26 121.296 145.599 121.398 146.055L121.047 145.911C121.191 145.545 121.443 145.251 121.803 145.029C122.163 144.807 122.583 144.696 123.063 144.696ZM128.73 149.565C128.22 149.565 127.77 149.46 127.38 149.25C126.996 149.04 126.696 148.752 126.48 148.386C126.27 148.02 126.165 147.6 126.165 147.126C126.165 146.652 126.267 146.232 126.471 145.866C126.681 145.5 126.966 145.215 127.326 145.011C127.692 144.801 128.103 144.696 128.559 144.696C129.021 144.696 129.429 144.798 129.783 145.002C130.137 145.206 130.413 145.494 130.611 145.866C130.815 146.232 130.917 146.661 130.917 147.153C130.917 147.189 130.914 147.231 130.908 147.279C130.908 147.327 130.905 147.372 130.899 147.414H126.84V146.793H130.449L130.098 147.009C130.104 146.703 130.041 146.43 129.909 146.19C129.777 145.95 129.594 145.764 129.36 145.632C129.132 145.494 128.865 145.425 128.559 145.425C128.259 145.425 127.992 145.494 127.758 145.632C127.524 145.764 127.341 145.953 127.209 146.199C127.077 146.439 127.011 146.715 127.011 147.027V147.171C127.011 147.489 127.083 147.774 127.227 148.026C127.377 148.272 127.584 148.464 127.848 148.602C128.112 148.74 128.415 148.809 128.757 148.809C129.039 148.809 129.294 148.761 129.522 148.665C129.756 148.569 129.96 148.425 130.134 148.233L130.611 148.791C130.395 149.043 130.125 149.235 129.801 149.367C129.483 149.499 129.126 149.565 128.73 149.565Z" fill="white"/>
<g clip-path="url(#clip0_0_216)">
<path d="M43.4808 152.381C45.7426 152.381 47.5762 150.553 47.5762 148.298C47.5762 146.043 45.7426 144.215 43.4808 144.215C41.2189 144.215 39.3854 146.043 39.3854 148.298C39.3854 150.553 41.2189 152.381 43.4808 152.381Z" fill="white"/>
<path d="M43.4808 144.217H50.5731C49.8544 142.975 48.8206 141.944 47.5755 141.227C46.3304 140.511 44.918 140.133 43.4803 140.133C42.0426 140.133 40.6302 140.511 39.3852 141.228C38.1403 141.945 37.1066 142.976 36.3881 144.218L39.9342 150.342L39.9374 150.341C39.5766 149.721 39.3863 149.016 39.3855 148.3C39.3846 147.583 39.5734 146.878 39.9328 146.257C40.2921 145.636 40.8093 145.12 41.4322 144.762C42.0551 144.404 42.7617 144.216 43.4808 144.217Z" fill="url(#paint0_linear_0_216)"/>
<path d="M43.4808 151.533C45.2714 151.533 46.723 150.085 46.723 148.3C46.723 146.515 45.2714 145.067 43.4808 145.067C41.6902 145.067 40.2386 146.515 40.2386 148.3C40.2386 150.085 41.6902 151.533 43.4808 151.533Z" fill="#1A73E8"/>
<path d="M47.0272 150.343L43.4811 156.467C44.9188 156.467 46.3312 156.09 47.5763 155.373C48.8215 154.656 49.8554 153.625 50.5742 152.384C51.2929 151.142 51.6712 149.734 51.6709 148.301C51.6707 146.867 51.2919 145.459 50.5727 144.218H43.4805L43.4796 144.221C44.1987 144.219 44.9055 144.407 45.5286 144.765C46.1518 145.123 46.6693 145.638 47.0291 146.259C47.3889 146.88 47.5781 147.584 47.5778 148.301C47.5774 149.018 47.3875 149.722 47.0272 150.343Z" fill="url(#paint1_linear_0_216)"/>
<path d="M39.9343 150.343L36.3882 144.219C35.6692 145.46 35.2906 146.868 35.2905 148.302C35.2905 149.735 35.6689 151.143 36.3879 152.385C37.1068 153.626 38.1409 154.657 39.3862 155.374C40.6314 156.09 42.0439 156.467 43.4816 156.467L47.0277 150.343L47.0254 150.34C46.6671 150.962 46.1507 151.478 45.5284 151.838C44.906 152.197 44.1997 152.386 43.4806 152.386C42.7615 152.386 42.055 152.198 41.4324 151.839C40.8098 151.48 40.2931 150.964 39.9343 150.343Z" fill="url(#paint2_linear_0_216)"/>
</g>
<rect x="93.1709" y="170.622" width="157.263" height="7.62222" rx="3.81111" fill="white"/>
<rect x="93.1709" y="186.956" width="91.7368" height="4.35556" rx="2.17778" fill="white"/>
<rect opacity="0.5" x="93.1709" y="195.667" width="91.7368" height="4.35556" rx="2.17778" fill="white"/>
<rect x="34.1973" y="223.978" width="109.211" height="22.8667" fill="#4A565F"/>
<rect x="145.592" y="223.978" width="109.211" height="22.8667" fill="#4B565E"/>
<rect x="53.8555" y="235.956" width="68.8026" height="2.17778" rx="1.08889" fill="white"/>
<rect x="163.065" y="232.689" width="68.8026" height="2.17778" rx="1.08889" fill="white"/>
<rect x="163.065" y="238.133" width="31.6711" height="2.17778" rx="1.08889" fill="white"/>
<rect x="20" y="61" width="249" height="64" fill="#293A4C"/>
<rect x="66" y="80" width="153" height="4" rx="2" fill="white"/>
<rect x="66" y="88" width="153" height="4" rx="2" fill="white"/>
<rect opacity="0.5" x="35" y="110" width="212" height="4" rx="2" fill="white"/>
<circle cx="57.5" cy="187.5" r="21.5" fill="#D1140E"/>
<path d="M65.2988 197.47C64.5178 198.251 63.2514 198.251 62.4704 197.47L47.5296 182.53C46.7486 181.749 46.7485 180.482 47.5296 179.701L49.6627 177.568C50.4438 176.787 51.7101 176.787 52.4911 177.568L67.4319 192.509C68.213 193.29 68.213 194.556 67.4319 195.337L65.2988 197.47ZM52.1065 197.586C51.3255 198.367 50.0591 198.367 49.2781 197.586L47.4142 195.722C46.6332 194.941 46.6332 193.675 47.4142 192.893L62.8935 177.414C63.6745 176.633 64.9409 176.633 65.7219 177.414L67.5858 179.278C68.3668 180.059 68.3668 181.325 67.5858 182.107L52.1065 197.586Z" fill="white"/>
</g>
<defs>
<filter id="filter0_d_0_216" x="0" y="0" width="289" height="285" filterUnits="userSpaceOnUse" color-interpolation-filters="sRGB">
<feFlood flood-opacity="0" result="BackgroundImageFix"/>
<feColorMatrix in="SourceAlpha" type="matrix" values="0 0 0 0 0 0 0 0 0 0 0 0 0 0 0 0 0 0 127 0" result="hardAlpha"/>
<feOffset dy="4"/>
<feGaussianBlur stdDeviation="10"/>
<feComposite in2="hardAlpha" operator="out"/>
<feColorMatrix type="matrix" values="0 0 0 0 0.0488428 0 0 0 0 0.0628443 0 0 0 0 0.188858 0 0 0 0.57 0"/>
<feBlend mode="normal" in2="BackgroundImageFix" result="effect1_dropShadow_0_216"/>
<feBlend mode="normal" in="SourceGraphic" in2="effect1_dropShadow_0_216" result="shape"/>
</filter>
<linearGradient id="paint0_linear_0_216" x1="36.3881" y1="145.237" x2="50.5731" y2="145.237" gradientUnits="userSpaceOnUse">
<stop stop-color="#D93025"/>
<stop offset="1" stop-color="#EA4335"/>
</linearGradient>
<linearGradient id="paint1_linear_0_216" x1="42.3621" y1="156.357" x2="49.4233" y2="144.091" gradientUnits="userSpaceOnUse">
<stop stop-color="#FCC934"/>
<stop offset="1" stop-color="#FBBC04"/>
</linearGradient>
<linearGradient id="paint2_linear_0_216" x1="44.3674" y1="155.957" x2="37.3062" y2="143.69" gradientUnits="userSpaceOnUse">
<stop stop-color="#1E8E3E"/>
<stop offset="1" stop-color="#34A853"/>
</linearGradient>
<clipPath id="clip0_0_216">
<rect width="16.3816" height="16.3333" fill="white" transform="translate(35.29 140.133)"/>
</clipPath>
</defs>
</svg>
