<svg width="246" height="244" viewBox="0 0 246 244" fill="none" xmlns="http://www.w3.org/2000/svg">
<g filter="url(#filter0_d_46_63)">
<rect x="20" y="16" width="206" height="204" rx="8" fill="white"/>
<path d="M20 212C20 216.418 23.5817 220 28 220H218C222.418 220 226 216.418 226 212V106.667H20V212Z" fill="#1E2D3D"/>
<path d="M56.3154 130.085C55.8294 130.085 55.3824 130.007 54.9744 129.851C54.5664 129.689 54.2124 129.464 53.9124 129.176C53.6124 128.882 53.3784 128.54 53.2104 128.15C53.0424 127.76 52.9584 127.331 52.9584 126.863C52.9584 126.395 53.0424 125.966 53.2104 125.576C53.3784 125.186 53.6124 124.847 53.9124 124.559C54.2184 124.265 54.5754 124.04 54.9834 123.884C55.3914 123.722 55.8414 123.641 56.3334 123.641C56.8314 123.641 57.2874 123.722 57.7014 123.884C58.1154 124.046 58.4664 124.289 58.7544 124.613L58.1964 125.171C57.9384 124.919 57.6564 124.736 57.3504 124.622C57.0504 124.502 56.7234 124.442 56.3694 124.442C56.0094 124.442 55.6734 124.502 55.3614 124.622C55.0554 124.742 54.7884 124.91 54.5604 125.126C54.3384 125.342 54.1644 125.6 54.0384 125.9C53.9184 126.194 53.8584 126.515 53.8584 126.863C53.8584 127.205 53.9184 127.526 54.0384 127.826C54.1644 128.12 54.3384 128.378 54.5604 128.6C54.7884 128.816 55.0554 128.984 55.3614 129.104C55.6674 129.224 56.0004 129.284 56.3604 129.284C56.6964 129.284 57.0174 129.233 57.3234 129.131C57.6354 129.023 57.9234 128.846 58.1874 128.6L58.7004 129.284C58.3884 129.548 58.0224 129.749 57.6024 129.887C57.1884 130.019 56.7594 130.085 56.3154 130.085ZM57.8364 129.167V126.827H58.7004V129.284L57.8364 129.167ZM62.3405 130.067C61.8605 130.067 61.4345 129.962 61.0625 129.752C60.6905 129.542 60.3965 129.254 60.1805 128.888C59.9645 128.516 59.8565 128.096 59.8565 127.628C59.8565 127.154 59.9645 126.734 60.1805 126.368C60.3965 126.002 60.6905 125.717 61.0625 125.513C61.4345 125.303 61.8605 125.198 62.3405 125.198C62.8145 125.198 63.2375 125.303 63.6095 125.513C63.9875 125.717 64.2815 126.002 64.4915 126.368C64.7075 126.728 64.8155 127.148 64.8155 127.628C64.8155 128.102 64.7075 128.522 64.4915 128.888C64.2815 129.254 63.9875 129.542 63.6095 129.752C63.2375 129.962 62.8145 130.067 62.3405 130.067ZM62.3405 129.311C62.6465 129.311 62.9195 129.242 63.1595 129.104C63.4055 128.966 63.5975 128.771 63.7355 128.519C63.8735 128.261 63.9425 127.964 63.9425 127.628C63.9425 127.286 63.8735 126.992 63.7355 126.746C63.5975 126.494 63.4055 126.299 63.1595 126.161C62.9195 126.023 62.6465 125.954 62.3405 125.954C62.0345 125.954 61.7615 126.023 61.5215 126.161C61.2815 126.299 61.0895 126.494 60.9455 126.746C60.8015 126.992 60.7295 127.286 60.7295 127.628C60.7295 127.964 60.8015 128.261 60.9455 128.519C61.0895 128.771 61.2815 128.966 61.5215 129.104C61.7615 129.242 62.0345 129.311 62.3405 129.311ZM68.0534 130.067C67.5734 130.067 67.1474 129.962 66.7754 129.752C66.4034 129.542 66.1094 129.254 65.8934 128.888C65.6774 128.516 65.5694 128.096 65.5694 127.628C65.5694 127.154 65.6774 126.734 65.8934 126.368C66.1094 126.002 66.4034 125.717 66.7754 125.513C67.1474 125.303 67.5734 125.198 68.0534 125.198C68.5274 125.198 68.9504 125.303 69.3224 125.513C69.7004 125.717 69.9944 126.002 70.2044 126.368C70.4204 126.728 70.5284 127.148 70.5284 127.628C70.5284 128.102 70.4204 128.522 70.2044 128.888C69.9944 129.254 69.7004 129.542 69.3224 129.752C68.9504 129.962 68.5274 130.067 68.0534 130.067ZM68.0534 129.311C68.3594 129.311 68.6324 129.242 68.8724 129.104C69.1184 128.966 69.3104 128.771 69.4484 128.519C69.5864 128.261 69.6554 127.964 69.6554 127.628C69.6554 127.286 69.5864 126.992 69.4484 126.746C69.3104 126.494 69.1184 126.299 68.8724 126.161C68.6324 126.023 68.3594 125.954 68.0534 125.954C67.7474 125.954 67.4744 126.023 67.2344 126.161C66.9944 126.299 66.8024 126.494 66.6584 126.746C66.5144 126.992 66.4424 127.286 66.4424 127.628C66.4424 127.964 66.5144 128.261 66.6584 128.519C66.8024 128.771 66.9944 128.966 67.2344 129.104C67.4744 129.242 67.7474 129.311 68.0534 129.311ZM73.8113 131.813C73.3733 131.813 72.9473 131.75 72.5333 131.624C72.1253 131.504 71.7923 131.33 71.5343 131.102L71.9483 130.436C72.1703 130.628 72.4433 130.778 72.7673 130.886C73.0913 131 73.4303 131.057 73.7843 131.057C74.3483 131.057 74.7623 130.925 75.0263 130.661C75.2903 130.397 75.4223 129.995 75.4223 129.455V128.447L75.5123 127.502L75.4673 126.548V125.243H76.2863V129.365C76.2863 130.205 76.0763 130.823 75.6563 131.219C75.2363 131.615 74.6213 131.813 73.8113 131.813ZM73.7033 129.815C73.2413 129.815 72.8273 129.719 72.4613 129.527C72.1013 129.329 71.8133 129.056 71.5973 128.708C71.3873 128.36 71.2823 127.958 71.2823 127.502C71.2823 127.04 71.3873 126.638 71.5973 126.296C71.8133 125.948 72.1013 125.678 72.4613 125.486C72.8273 125.294 73.2413 125.198 73.7033 125.198C74.1113 125.198 74.4833 125.282 74.8193 125.45C75.1553 125.612 75.4223 125.864 75.6203 126.206C75.8243 126.548 75.9263 126.98 75.9263 127.502C75.9263 128.018 75.8243 128.447 75.6203 128.789C75.4223 129.131 75.1553 129.389 74.8193 129.563C74.4833 129.731 74.1113 129.815 73.7033 129.815ZM73.8023 129.059C74.1203 129.059 74.4023 128.993 74.6483 128.861C74.8943 128.729 75.0863 128.546 75.2243 128.312C75.3683 128.078 75.4403 127.808 75.4403 127.502C75.4403 127.196 75.3683 126.926 75.2243 126.692C75.0863 126.458 74.8943 126.278 74.6483 126.152C74.4023 126.02 74.1203 125.954 73.8023 125.954C73.4843 125.954 73.1993 126.02 72.9473 126.152C72.7013 126.278 72.5063 126.458 72.3623 126.692C72.2243 126.926 72.1553 127.196 72.1553 127.502C72.1553 127.808 72.2243 128.078 72.3623 128.312C72.5063 128.546 72.7013 128.729 72.9473 128.861C73.1993 128.993 73.4843 129.059 73.8023 129.059ZM77.9372 130.013V123.335H78.8012V130.013H77.9372ZM82.5748 130.067C82.0648 130.067 81.6148 129.962 81.2248 129.752C80.8408 129.542 80.5408 129.254 80.3248 128.888C80.1148 128.522 80.0098 128.102 80.0098 127.628C80.0098 127.154 80.1118 126.734 80.3158 126.368C80.5258 126.002 80.8108 125.717 81.1708 125.513C81.5368 125.303 81.9478 125.198 82.4038 125.198C82.8658 125.198 83.2738 125.3 83.6278 125.504C83.9818 125.708 84.2578 125.996 84.4558 126.368C84.6598 126.734 84.7618 127.163 84.7618 127.655C84.7618 127.691 84.7588 127.733 84.7528 127.781C84.7528 127.829 84.7498 127.874 84.7438 127.916H80.6848V127.295H84.2938L83.9428 127.511C83.9488 127.205 83.8858 126.932 83.7538 126.692C83.6218 126.452 83.4388 126.266 83.2048 126.134C82.9768 125.996 82.7098 125.927 82.4038 125.927C82.1038 125.927 81.8368 125.996 81.6028 126.134C81.3688 126.266 81.1858 126.455 81.0538 126.701C80.9218 126.941 80.8558 127.217 80.8558 127.529V127.673C80.8558 127.991 80.9278 128.276 81.0718 128.528C81.2218 128.774 81.4288 128.966 81.6928 129.104C81.9568 129.242 82.2598 129.311 82.6018 129.311C82.8838 129.311 83.1388 129.263 83.3668 129.167C83.6008 129.071 83.8048 128.927 83.9788 128.735L84.4558 129.293C84.2398 129.545 83.9698 129.737 83.6458 129.869C83.3278 130.001 82.9708 130.067 82.5748 130.067ZM91.3216 130.085C90.8416 130.085 90.3976 130.007 89.9896 129.851C89.5876 129.689 89.2366 129.464 88.9366 129.176C88.6426 128.882 88.4116 128.54 88.2436 128.15C88.0756 127.76 87.9916 127.331 87.9916 126.863C87.9916 126.395 88.0756 125.966 88.2436 125.576C88.4116 125.186 88.6456 124.847 88.9456 124.559C89.2456 124.265 89.5966 124.04 89.9986 123.884C90.4066 123.722 90.8506 123.641 91.3306 123.641C91.8166 123.641 92.2636 123.725 92.6716 123.893C93.0856 124.055 93.4366 124.298 93.7246 124.622L93.1396 125.189C92.8996 124.937 92.6296 124.751 92.3296 124.631C92.0296 124.505 91.7086 124.442 91.3666 124.442C91.0126 124.442 90.6826 124.502 90.3766 124.622C90.0766 124.742 89.8156 124.91 89.5936 125.126C89.3716 125.342 89.1976 125.6 89.0716 125.9C88.9516 126.194 88.8916 126.515 88.8916 126.863C88.8916 127.211 88.9516 127.535 89.0716 127.835C89.1976 128.129 89.3716 128.384 89.5936 128.6C89.8156 128.816 90.0766 128.984 90.3766 129.104C90.6826 129.224 91.0126 129.284 91.3666 129.284C91.7086 129.284 92.0296 129.224 92.3296 129.104C92.6296 128.978 92.8996 128.786 93.1396 128.528L93.7246 129.095C93.4366 129.419 93.0856 129.665 92.6716 129.833C92.2636 130.001 91.8136 130.085 91.3216 130.085ZM97.4295 125.198C97.8195 125.198 98.1615 125.273 98.4555 125.423C98.7555 125.573 98.9895 125.801 99.1575 126.107C99.3255 126.413 99.4095 126.8 99.4095 127.268V130.013H98.5455V127.367C98.5455 126.905 98.4315 126.557 98.2035 126.323C97.9815 126.089 97.6665 125.972 97.2585 125.972C96.9525 125.972 96.6855 126.032 96.4575 126.152C96.2295 126.272 96.0525 126.449 95.9265 126.683C95.8065 126.917 95.7465 127.208 95.7465 127.556V130.013H94.8825V123.335H95.7465V126.53L95.5755 126.188C95.7315 125.876 95.9715 125.633 96.2955 125.459C96.6195 125.285 96.9975 125.198 97.4295 125.198ZM101.008 130.013V125.243H101.836V126.539L101.755 126.215C101.887 125.885 102.109 125.633 102.421 125.459C102.733 125.285 103.117 125.198 103.573 125.198V126.035C103.537 126.029 103.501 126.026 103.465 126.026C103.435 126.026 103.405 126.026 103.375 126.026C102.913 126.026 102.547 126.164 102.277 126.44C102.007 126.716 101.872 127.115 101.872 127.637V130.013H101.008ZM106.637 130.067C106.157 130.067 105.731 129.962 105.359 129.752C104.987 129.542 104.693 129.254 104.477 128.888C104.261 128.516 104.153 128.096 104.153 127.628C104.153 127.154 104.261 126.734 104.477 126.368C104.693 126.002 104.987 125.717 105.359 125.513C105.731 125.303 106.157 125.198 106.637 125.198C107.111 125.198 107.534 125.303 107.906 125.513C108.284 125.717 108.578 126.002 108.788 126.368C109.004 126.728 109.112 127.148 109.112 127.628C109.112 128.102 109.004 128.522 108.788 128.888C108.578 129.254 108.284 129.542 107.906 129.752C107.534 129.962 107.111 130.067 106.637 130.067ZM106.637 129.311C106.943 129.311 107.216 129.242 107.456 129.104C107.702 128.966 107.894 128.771 108.032 128.519C108.17 128.261 108.239 127.964 108.239 127.628C108.239 127.286 108.17 126.992 108.032 126.746C107.894 126.494 107.702 126.299 107.456 126.161C107.216 126.023 106.943 125.954 106.637 125.954C106.331 125.954 106.058 126.023 105.818 126.161C105.578 126.299 105.386 126.494 105.242 126.746C105.098 126.992 105.026 127.286 105.026 127.628C105.026 127.964 105.098 128.261 105.242 128.519C105.386 128.771 105.578 128.966 105.818 129.104C106.058 129.242 106.331 129.311 106.637 129.311ZM116.274 125.198C116.658 125.198 116.997 125.273 117.291 125.423C117.585 125.573 117.813 125.801 117.975 126.107C118.143 126.413 118.227 126.8 118.227 127.268V130.013H117.363V127.367C117.363 126.905 117.255 126.557 117.039 126.323C116.823 126.089 116.52 125.972 116.13 125.972C115.842 125.972 115.59 126.032 115.374 126.152C115.158 126.272 114.99 126.449 114.87 126.683C114.756 126.917 114.699 127.208 114.699 127.556V130.013H113.835V127.367C113.835 126.905 113.727 126.557 113.511 126.323C113.301 126.089 112.998 125.972 112.602 125.972C112.32 125.972 112.071 126.032 111.855 126.152C111.639 126.272 111.471 126.449 111.351 126.683C111.231 126.917 111.171 127.208 111.171 127.556V130.013H110.307V125.243H111.135V126.512L111 126.188C111.15 125.876 111.381 125.633 111.693 125.459C112.005 125.285 112.368 125.198 112.782 125.198C113.238 125.198 113.631 125.312 113.961 125.54C114.291 125.762 114.507 126.101 114.609 126.557L114.258 126.413C114.402 126.047 114.654 125.753 115.014 125.531C115.374 125.309 115.794 125.198 116.274 125.198ZM121.941 130.067C121.431 130.067 120.981 129.962 120.591 129.752C120.207 129.542 119.907 129.254 119.691 128.888C119.481 128.522 119.376 128.102 119.376 127.628C119.376 127.154 119.478 126.734 119.682 126.368C119.892 126.002 120.177 125.717 120.537 125.513C120.903 125.303 121.314 125.198 121.77 125.198C122.232 125.198 122.64 125.3 122.994 125.504C123.348 125.708 123.624 125.996 123.822 126.368C124.026 126.734 124.128 127.163 124.128 127.655C124.128 127.691 124.125 127.733 124.119 127.781C124.119 127.829 124.116 127.874 124.11 127.916H120.051V127.295H123.66L123.309 127.511C123.315 127.205 123.252 126.932 123.12 126.692C122.988 126.452 122.805 126.266 122.571 126.134C122.343 125.996 122.076 125.927 121.77 125.927C121.47 125.927 121.203 125.996 120.969 126.134C120.735 126.266 120.552 126.455 120.42 126.701C120.288 126.941 120.222 127.217 120.222 127.529V127.673C120.222 127.991 120.294 128.276 120.438 128.528C120.588 128.774 120.795 128.966 121.059 129.104C121.323 129.242 121.626 129.311 121.968 129.311C122.25 129.311 122.505 129.263 122.733 129.167C122.967 129.071 123.171 128.927 123.345 128.735L123.822 129.293C123.606 129.545 123.336 129.737 123.012 129.869C122.694 130.001 122.337 130.067 121.941 130.067Z" fill="white"/>
<g clip-path="url(#clip0_46_63)">
<path d="M39.4258 129.559C41.297 129.559 42.8139 128.036 42.8139 126.159C42.8139 124.281 41.297 122.759 39.4258 122.759C37.5545 122.759 36.0376 124.281 36.0376 126.159C36.0376 128.036 37.5545 129.559 39.4258 129.559Z" fill="white"/>
<path d="M39.4258 122.76H45.2933C44.6987 121.726 43.8434 120.868 42.8133 120.271C41.7833 119.674 40.6148 119.36 39.4253 119.36C38.2359 119.36 37.0674 119.674 36.0375 120.271C35.0075 120.868 34.1523 121.727 33.5579 122.761L36.4916 127.86L36.4942 127.859C36.1958 127.343 36.0383 126.757 36.0376 126.16C36.037 125.563 36.1931 124.976 36.4904 124.459C36.7877 123.942 37.2156 123.512 37.7309 123.214C38.2463 122.916 38.8309 122.759 39.4258 122.76Z" fill="url(#paint0_linear_46_63)"/>
<path d="M39.4257 128.852C40.9071 128.852 42.108 127.646 42.108 126.16C42.108 124.673 40.9071 123.468 39.4257 123.468C37.9443 123.468 36.7434 124.673 36.7434 126.16C36.7434 127.646 37.9443 128.852 39.4257 128.852Z" fill="#1A73E8"/>
<path d="M42.3596 127.861L39.4259 132.96C40.6153 132.96 41.7838 132.646 42.8139 132.049C43.8441 131.453 44.6994 130.594 45.2941 129.56C45.8887 128.527 46.2017 127.354 46.2014 126.16C46.2012 124.967 45.8879 123.794 45.2929 122.761H39.4254L39.4247 122.763C40.0196 122.762 40.6043 122.919 41.1198 123.217C41.6354 123.514 42.0636 123.943 42.3612 124.46C42.6588 124.977 42.8154 125.564 42.8151 126.161C42.8149 126.758 42.6578 127.344 42.3596 127.861Z" fill="url(#paint1_linear_46_63)"/>
<path d="M36.4918 127.861L33.558 122.762C32.9631 123.795 32.6499 124.968 32.6499 126.161C32.6499 127.355 32.963 128.528 33.5578 129.561C34.1526 130.595 35.0081 131.453 36.0383 132.05C37.0684 132.646 38.237 132.96 39.4264 132.96L42.3602 127.861L42.3583 127.859C42.0618 128.376 41.6346 128.806 41.1197 129.106C40.6049 129.405 40.0205 129.562 39.4256 129.562C38.8307 129.563 38.2462 129.405 37.7312 129.107C37.2161 128.808 36.7886 128.378 36.4918 127.861Z" fill="url(#paint2_linear_46_63)"/>
</g>
<rect x="80.5352" y="144.747" width="130.105" height="6.34667" rx="3.17333" fill="white"/>
<rect x="80.5352" y="158.347" width="75.8947" height="3.62667" rx="1.81333" fill="white"/>
<rect opacity="0.5" x="80.5352" y="165.6" width="75.8947" height="3.62667" rx="1.81333" fill="white"/>
<rect x="31.7451" y="189.173" width="90.3509" height="19.04" fill="#4A565F"/>
<rect x="123.903" y="189.173" width="90.3509" height="19.04" fill="#4B565E"/>
<rect x="48.0088" y="199.147" width="56.9211" height="1.81333" rx="0.906667" fill="white"/>
<rect x="138.359" y="196.427" width="56.9211" height="1.81333" rx="0.906667" fill="white"/>
<rect x="138.359" y="200.96" width="26.2018" height="1.81333" rx="0.906667" fill="white"/>
<path d="M20 24C20 19.5817 23.5817 16 28 16H218C222.418 16 226 19.5817 226 24V25H20V24Z" fill="#C01818"/>
<circle cx="53" cy="159" r="20" fill="#C01818"/>
<path d="M65.9666 151.967C65.9507 151.132 65.9356 150.342 65.9356 149.579C65.9356 148.981 65.4508 148.496 64.8525 148.496C60.2206 148.496 56.694 147.165 53.7545 144.307C53.3339 143.898 52.6648 143.898 52.2444 144.307C49.3051 147.165 45.7791 148.496 41.1475 148.496C40.5494 148.496 40.0644 148.981 40.0644 149.579C40.0644 150.343 40.0494 151.132 40.0334 151.968C39.8849 159.742 39.6816 170.389 52.6447 174.883C52.7596 174.922 52.8795 174.942 52.9994 174.942C53.1192 174.942 53.2392 174.922 53.354 174.883C66.3181 170.389 66.1151 159.742 65.9666 151.967ZM52.9995 172.71C41.882 168.671 42.05 159.824 42.1992 152.009C42.2082 151.54 42.2168 151.085 42.2229 150.64C46.5609 150.457 50.0299 149.142 52.9995 146.555C55.9694 149.142 59.4389 150.457 63.7773 150.64C63.7833 151.085 63.792 151.539 63.8009 152.008C63.95 159.824 64.1179 168.671 52.9995 172.71Z" fill="white"/>
<path d="M52.0489 162.944C52.0733 163.477 52.4027 163.743 53.0369 163.743C53.6712 163.743 54.0006 163.477 54.025 162.944L54.5739 153.956V151.226C54.5739 150.826 54.4275 150.493 54.1348 150.227C53.8176 149.961 53.4517 149.828 53.0369 149.828C52.5978 149.828 52.2319 149.972 51.9391 150.26C51.622 150.527 51.4634 150.848 51.4634 151.226V153.956L52.0489 162.944ZM54.7935 167.472C54.7935 167.028 54.6227 166.651 54.2811 166.34C53.9152 166.029 53.4883 165.874 53.0004 165.874C52.5124 165.874 52.0977 166.029 51.7562 166.34C51.3902 166.651 51.2073 167.028 51.2073 167.472C51.2073 167.916 51.3902 168.304 51.7562 168.637C52.0977 168.948 52.5124 169.103 53.0004 169.103C53.4883 169.103 53.9152 168.948 54.2811 168.637C54.6227 168.304 54.7935 167.916 54.7935 167.472Z" fill="white"/>
</g>
<path d="M104.199 60.276C102.911 60.276 101.677 60.1073 100.496 59.77C99.3153 59.4173 98.3647 58.965 97.644 58.413L98.909 55.607C99.599 56.0977 100.412 56.504 101.347 56.826C102.298 57.1327 103.256 57.286 104.222 57.286C104.958 57.286 105.548 57.217 105.993 57.079C106.453 56.9257 106.79 56.7187 107.005 56.458C107.22 56.1973 107.327 55.8983 107.327 55.561C107.327 55.1317 107.158 54.7943 106.821 54.549C106.484 54.2883 106.039 54.0813 105.487 53.928C104.935 53.7593 104.322 53.606 103.647 53.468C102.988 53.3147 102.321 53.1307 101.646 52.916C100.987 52.7013 100.381 52.4253 99.829 52.088C99.277 51.7507 98.8247 51.306 98.472 50.754C98.1347 50.202 97.966 49.4967 97.966 48.638C97.966 47.718 98.2113 46.8823 98.702 46.131C99.208 45.3643 99.9593 44.7587 100.956 44.314C101.968 43.854 103.233 43.624 104.751 43.624C105.763 43.624 106.76 43.7467 107.741 43.992C108.722 44.222 109.589 44.5747 110.34 45.05L109.19 47.879C108.439 47.4497 107.687 47.1353 106.936 46.936C106.185 46.7213 105.449 46.614 104.728 46.614C104.007 46.614 103.417 46.6983 102.957 46.867C102.497 47.0357 102.167 47.258 101.968 47.534C101.769 47.7947 101.669 48.1013 101.669 48.454C101.669 48.868 101.838 49.2053 102.175 49.466C102.512 49.7113 102.957 49.9107 103.509 50.064C104.061 50.2173 104.667 50.3707 105.326 50.524C106.001 50.6773 106.668 50.8537 107.327 51.053C108.002 51.2523 108.615 51.5207 109.167 51.858C109.719 52.1953 110.164 52.64 110.501 53.192C110.854 53.744 111.03 54.4417 111.03 55.285C111.03 56.1897 110.777 57.0177 110.271 57.769C109.765 58.5203 109.006 59.126 107.994 59.586C106.997 60.046 105.732 60.276 104.199 60.276ZM120.637 60.184C119.594 60.184 118.682 59.954 117.9 59.494C117.118 59.034 116.505 58.3363 116.06 57.401C115.631 56.4503 115.416 55.2543 115.416 53.813C115.416 52.3563 115.623 51.1603 116.037 50.225C116.451 49.2897 117.049 48.592 117.831 48.132C118.613 47.672 119.548 47.442 120.637 47.442C121.802 47.442 122.845 47.7103 123.765 48.247C124.7 48.7683 125.436 49.5043 125.973 50.455C126.525 51.4057 126.801 52.525 126.801 53.813C126.801 55.1163 126.525 56.2433 125.973 57.194C125.436 58.1447 124.7 58.8807 123.765 59.402C122.845 59.9233 121.802 60.184 120.637 60.184ZM113.323 64.462V47.626H116.75V50.156L116.681 53.836L116.911 57.493V64.462H113.323ZM120.016 57.24C120.614 57.24 121.143 57.102 121.603 56.826C122.078 56.55 122.454 56.159 122.73 55.653C123.021 55.1317 123.167 54.5183 123.167 53.813C123.167 53.0923 123.021 52.479 122.73 51.973C122.454 51.467 122.078 51.076 121.603 50.8C121.143 50.524 120.614 50.386 120.016 50.386C119.418 50.386 118.881 50.524 118.406 50.8C117.931 51.076 117.555 51.467 117.279 51.973C117.003 52.479 116.865 53.0923 116.865 53.813C116.865 54.5183 117.003 55.1317 117.279 55.653C117.555 56.159 117.931 56.55 118.406 56.826C118.881 57.102 119.418 57.24 120.016 57.24ZM130.43 64.646C129.786 64.646 129.15 64.5463 128.521 64.347C127.892 64.1477 127.379 63.8717 126.98 63.519L128.291 60.966C128.567 61.2113 128.881 61.403 129.234 61.541C129.602 61.679 129.962 61.748 130.315 61.748C130.821 61.748 131.22 61.6253 131.511 61.38C131.818 61.15 132.094 60.759 132.339 60.207L132.983 58.689L133.259 58.298L137.698 47.626H141.148L135.559 60.759C135.16 61.7557 134.7 62.5377 134.179 63.105C133.673 63.6723 133.106 64.071 132.477 64.301C131.864 64.531 131.181 64.646 130.43 64.646ZM132.546 60.483L127.026 47.626H130.729L135.007 57.976L132.546 60.483ZM145.127 60L140.665 47.626H144.046L147.749 58.275H146.139L150.003 47.626H153.039L156.788 58.275H155.178L158.996 47.626H162.17L157.685 60H154.212L150.923 50.869H151.981L148.577 60H145.127ZM171.023 60V57.585L170.793 57.056V52.732C170.793 51.9653 170.556 51.3673 170.08 50.938C169.62 50.5087 168.907 50.294 167.941 50.294C167.282 50.294 166.63 50.4013 165.986 50.616C165.358 50.8153 164.821 51.0913 164.376 51.444L163.088 48.937C163.763 48.4617 164.576 48.0937 165.526 47.833C166.477 47.5723 167.443 47.442 168.424 47.442C170.31 47.442 171.775 47.8867 172.817 48.776C173.86 49.6653 174.381 51.053 174.381 52.939V60H171.023ZM167.251 60.184C166.285 60.184 165.457 60.023 164.767 59.701C164.077 59.3637 163.548 58.9113 163.18 58.344C162.812 57.7767 162.628 57.1403 162.628 56.435C162.628 55.699 162.805 55.055 163.157 54.503C163.525 53.951 164.1 53.5217 164.882 53.215C165.664 52.893 166.684 52.732 167.941 52.732H171.23V54.825H168.332C167.489 54.825 166.906 54.963 166.584 55.239C166.278 55.515 166.124 55.86 166.124 56.274C166.124 56.734 166.301 57.102 166.653 57.378C167.021 57.6387 167.52 57.769 168.148 57.769C168.746 57.769 169.283 57.631 169.758 57.355C170.234 57.0637 170.579 56.642 170.793 56.09L171.345 57.746C171.085 58.5433 170.609 59.149 169.919 59.563C169.229 59.977 168.34 60.184 167.251 60.184ZM177.629 60V47.626H181.056V51.122L180.573 50.11C180.941 49.236 181.531 48.5767 182.344 48.132C183.156 47.672 184.145 47.442 185.311 47.442V50.754C185.157 50.7387 185.019 50.731 184.897 50.731C184.774 50.7157 184.644 50.708 184.506 50.708C183.524 50.708 182.727 50.9917 182.114 51.559C181.516 52.111 181.217 52.9773 181.217 54.158V60H177.629ZM193.495 60.184C192.085 60.184 190.843 59.908 189.769 59.356C188.711 58.804 187.891 58.0527 187.308 57.102C186.726 56.136 186.434 55.0397 186.434 53.813C186.434 52.571 186.718 51.4747 187.285 50.524C187.868 49.558 188.658 48.8067 189.654 48.27C190.651 47.718 191.778 47.442 193.035 47.442C194.247 47.442 195.335 47.7027 196.301 48.224C197.283 48.73 198.057 49.466 198.624 50.432C199.192 51.3827 199.475 52.525 199.475 53.859C199.475 53.997 199.468 54.158 199.452 54.342C199.437 54.5107 199.422 54.6717 199.406 54.825H189.355V52.732H197.52L196.14 53.353C196.14 52.709 196.01 52.1493 195.749 51.674C195.489 51.1987 195.128 50.8307 194.668 50.57C194.208 50.294 193.672 50.156 193.058 50.156C192.445 50.156 191.901 50.294 191.425 50.57C190.965 50.8307 190.605 51.2063 190.344 51.697C190.084 52.1723 189.953 52.7397 189.953 53.399V53.951C189.953 54.6257 190.099 55.2237 190.39 55.745C190.697 56.251 191.119 56.642 191.655 56.918C192.207 57.1787 192.851 57.309 193.587 57.309C194.247 57.309 194.822 57.2093 195.312 57.01C195.818 56.8107 196.278 56.5117 196.692 56.113L198.601 58.183C198.034 58.827 197.321 59.3253 196.462 59.678C195.604 60.0153 194.615 60.184 193.495 60.184ZM99.093 84V71.35C99.093 69.9547 99.507 68.843 100.335 68.015C101.163 67.1717 102.344 66.75 103.877 66.75C104.398 66.75 104.897 66.8037 105.372 66.911C105.863 67.0183 106.277 67.187 106.614 67.417L105.671 70.016C105.472 69.878 105.249 69.7707 105.004 69.694C104.759 69.6173 104.498 69.579 104.222 69.579C103.701 69.579 103.294 69.7323 103.003 70.039C102.727 70.3303 102.589 70.775 102.589 71.373V72.523L102.681 74.064V84H99.093ZM97.184 74.662V71.902H105.763V74.662H97.184ZM113.281 84.184C111.963 84.184 110.79 83.908 109.762 83.356C108.75 82.804 107.945 82.0527 107.347 81.102C106.765 80.136 106.473 79.0397 106.473 77.813C106.473 76.571 106.765 75.4747 107.347 74.524C107.945 73.558 108.75 72.8067 109.762 72.27C110.79 71.718 111.963 71.442 113.281 71.442C114.585 71.442 115.75 71.718 116.777 72.27C117.805 72.8067 118.61 73.5503 119.192 74.501C119.775 75.4517 120.066 76.5557 120.066 77.813C120.066 79.0397 119.775 80.136 119.192 81.102C118.61 82.0527 117.805 82.804 116.777 83.356C115.75 83.908 114.585 84.184 113.281 84.184ZM113.281 81.24C113.879 81.24 114.416 81.102 114.891 80.826C115.367 80.55 115.742 80.159 116.018 79.653C116.294 79.1317 116.432 78.5183 116.432 77.813C116.432 77.0923 116.294 76.479 116.018 75.973C115.742 75.467 115.367 75.076 114.891 74.8C114.416 74.524 113.879 74.386 113.281 74.386C112.683 74.386 112.147 74.524 111.671 74.8C111.196 75.076 110.813 75.467 110.521 75.973C110.245 76.479 110.107 77.0923 110.107 77.813C110.107 78.5183 110.245 79.1317 110.521 79.653C110.813 80.159 111.196 80.55 111.671 80.826C112.147 81.102 112.683 81.24 113.281 81.24ZM127.686 84.184C126.658 84.184 125.738 83.9847 124.926 83.586C124.128 83.1873 123.507 82.5817 123.063 81.769C122.618 80.941 122.396 79.8907 122.396 78.618V71.626H125.984V78.089C125.984 79.1163 126.198 79.8753 126.628 80.366C127.072 80.8413 127.693 81.079 128.491 81.079C129.043 81.079 129.533 80.964 129.963 80.734C130.392 80.4887 130.729 80.1207 130.975 79.63C131.22 79.124 131.343 78.4953 131.343 77.744V71.626H134.931V84H131.527V80.596L132.148 81.585C131.734 82.4437 131.12 83.0953 130.308 83.54C129.51 83.9693 128.636 84.184 127.686 84.184ZM145.776 71.442C146.757 71.442 147.631 71.6413 148.398 72.04C149.18 72.4233 149.793 73.0213 150.238 73.834C150.682 74.6313 150.905 75.6587 150.905 76.916V84H147.317V77.468C147.317 76.4713 147.094 75.7353 146.65 75.26C146.22 74.7847 145.607 74.547 144.81 74.547C144.242 74.547 143.729 74.6697 143.269 74.915C142.824 75.145 142.471 75.5053 142.211 75.996C141.965 76.4867 141.843 77.1153 141.843 77.882V84H138.255V71.626H141.682V75.053L141.038 74.018C141.482 73.19 142.119 72.5537 142.947 72.109C143.775 71.6643 144.718 71.442 145.776 71.442ZM159.56 84.184C158.394 84.184 157.344 83.9233 156.409 83.402C155.473 82.8653 154.73 82.1217 154.178 81.171C153.641 80.2203 153.373 79.101 153.373 77.813C153.373 76.5097 153.641 75.3827 154.178 74.432C154.73 73.4813 155.473 72.7453 156.409 72.224C157.344 71.7027 158.394 71.442 159.56 71.442C160.602 71.442 161.515 71.672 162.297 72.132C163.079 72.592 163.684 73.2897 164.114 74.225C164.543 75.1603 164.758 76.3563 164.758 77.813C164.758 79.2543 164.551 80.4503 164.137 81.401C163.723 82.3363 163.125 83.034 162.343 83.494C161.576 83.954 160.648 84.184 159.56 84.184ZM160.181 81.24C160.763 81.24 161.292 81.102 161.768 80.826C162.243 80.55 162.619 80.159 162.895 79.653C163.186 79.1317 163.332 78.5183 163.332 77.813C163.332 77.0923 163.186 76.479 162.895 75.973C162.619 75.467 162.243 75.076 161.768 74.8C161.292 74.524 160.763 74.386 160.181 74.386C159.583 74.386 159.046 74.524 158.571 74.8C158.095 75.076 157.712 75.467 157.421 75.973C157.145 76.479 157.007 77.0923 157.007 77.813C157.007 78.5183 157.145 79.1317 157.421 79.653C157.712 80.159 158.095 80.55 158.571 80.826C159.046 81.102 159.583 81.24 160.181 81.24ZM163.424 84V81.47L163.493 77.79L163.263 74.133V66.934H166.851V84H163.424Z" fill="#C01818"/>
<path d="M63.5883 52.8062C75.4338 52.8062 81.5926 51.2189 81.5926 49.2674C81.5926 48.0328 77.4933 47.3229 72.9003 46.9647C72.445 46.9292 72.0733 46.5774 72.0388 46.1221C71.8098 43.1111 70.5705 40.01 68.789 39.1022C67.9486 38.682 67.0523 39.6344 65.6144 40.5588C64.382 41.343 62.7947 41.343 61.5623 40.5588C60.1244 39.6344 59.228 38.682 58.3876 39.1022C56.6062 40.01 55.3669 43.1111 55.138 46.1221C55.1034 46.5774 54.7318 46.9292 54.2765 46.9647C49.6834 47.3229 45.5841 48.0328 45.5841 49.2674C45.5841 51.2189 51.7429 52.8062 63.5883 52.8062Z" fill="#C01818"/>
<path d="M45 68.932C47.6256 70.4688 50.364 71.9034 53.209 73.2231C51.8195 74.3027 50.3874 75.3552 48.9132 76.3775C53.267 80.864 58.1687 85.0894 63.5881 88.9527C59.6864 80.2468 56.4772 71.3595 53.9691 62.3726C51.1812 64.6912 48.1884 66.8868 45 68.932Z" fill="#C01818"/>
<path d="M82.176 68.932C78.9877 66.8868 75.9948 64.6912 73.207 62.3726C70.6989 71.3595 67.4897 80.2468 63.5879 88.9527C69.0073 85.0894 73.9091 80.864 78.2629 76.3775C76.7886 75.3552 75.3566 74.3027 73.967 73.2231C76.8121 71.9034 79.5504 70.4688 82.176 68.932Z" fill="#C01818"/>
<path d="M52.9621 54.405C52.61 55.8029 52.1405 58.129 52.7807 58.8653C54.1145 60.4338 59.6632 60.7433 61.1677 59.3241C61.1677 59.3241 61.5305 58.9719 61.6052 58.8226C61.9786 57.9903 62.5121 57.2754 63.4511 57.2967H63.7072C64.6462 57.2754 65.1904 57.9903 65.5639 58.8226C65.6386 58.9719 66.0014 59.3241 66.0014 59.3241C67.5059 60.7433 73.0439 60.4338 74.3883 58.8653C75.0286 58.1397 74.5484 55.8135 74.1856 54.405C71.486 54.7358 68.0288 54.9386 63.5899 54.9386C59.1296 54.9386 55.6617 54.7358 52.9621 54.405Z" fill="#C01818"/>
<defs>
<filter id="filter0_d_46_63" x="0" y="0" width="246" height="244" filterUnits="userSpaceOnUse" color-interpolation-filters="sRGB">
<feFlood flood-opacity="0" result="BackgroundImageFix"/>
<feColorMatrix in="SourceAlpha" type="matrix" values="0 0 0 0 0 0 0 0 0 0 0 0 0 0 0 0 0 0 127 0" result="hardAlpha"/>
<feOffset dy="4"/>
<feGaussianBlur stdDeviation="10"/>
<feComposite in2="hardAlpha" operator="out"/>
<feColorMatrix type="matrix" values="0 0 0 0 0.0488428 0 0 0 0 0.0628443 0 0 0 0 0.188858 0 0 0 0.57 0"/>
<feBlend mode="normal" in2="BackgroundImageFix" result="effect1_dropShadow_46_63"/>
<feBlend mode="normal" in="SourceGraphic" in2="effect1_dropShadow_46_63" result="shape"/>
</filter>
<linearGradient id="paint0_linear_46_63" x1="33.5579" y1="123.61" x2="45.2933" y2="123.61" gradientUnits="userSpaceOnUse">
<stop stop-color="#D93025"/>
<stop offset="1" stop-color="#EA4335"/>
</linearGradient>
<linearGradient id="paint1_linear_46_63" x1="38.5001" y1="132.869" x2="44.3986" y2="122.688" gradientUnits="userSpaceOnUse">
<stop stop-color="#FCC934"/>
<stop offset="1" stop-color="#FBBC04"/>
</linearGradient>
<linearGradient id="paint2_linear_46_63" x1="40.1593" y1="132.535" x2="34.2608" y2="122.355" gradientUnits="userSpaceOnUse">
<stop stop-color="#1E8E3E"/>
<stop offset="1" stop-color="#34A853"/>
</linearGradient>
<clipPath id="clip0_46_63">
<rect width="13.5526" height="13.6" fill="white" transform="translate(32.6494 119.36)"/>
</clipPath>
</defs>
</svg>
