<svg width="295" height="292" viewBox="0 0 295 292" fill="none" xmlns="http://www.w3.org/2000/svg">
<g filter="url(#filter0_d_0_270)">
<rect x="20" y="16" width="255" height="252" rx="8" fill="white"/>
<path d="M20 24C20 19.5817 23.5817 16 28 16H267C271.418 16 275 19.5817 275 24V132H20V24Z" fill="#C01818"/>
<rect x="36" y="77" width="153" height="4" rx="2" fill="white"/>
<rect x="36" y="109" width="190" height="4" rx="2" fill="white"/>
<rect x="36" y="85" width="105" height="4" rx="2" fill="white"/>
<g clip-path="url(#clip0_0_270)">
<path d="M52.2537 185.495L50.8765 184.706L50.7781 184.861C50.4707 185.34 50.0403 185.579 49.5116 185.579C48.6016 185.579 47.9253 184.909 47.9253 184.036C47.9253 183.151 48.6139 182.493 49.5116 182.493C50.0526 182.493 50.4461 182.72 50.7781 183.211L50.8765 183.366L52.2537 182.577L52.1308 182.409C51.4668 181.476 50.6183 181.034 49.4993 181.034C47.3965 181.034 46.2652 182.589 46.2652 184.048C46.2652 185.507 47.3965 187.062 49.4993 187.062C50.5691 187.062 51.5774 186.536 52.1308 185.675L52.2537 185.495Z" fill="white"/>
<path d="M52.18 187.038H54.0737L54.6393 185.675H57.4799L58.0456 187.038H59.9516L56.5576 179.06H54.8607L55.3156 180.124L52.18 187.038ZM56.0781 182.206L56.8405 184.084H55.2911L56.0781 182.206Z" fill="white"/>
<path d="M60.7386 187.05H62.3987V183.462H63.4807V181.954H62.3987V181.249C62.3987 180.938 62.6076 180.615 63.0013 180.615C63.2104 180.615 63.3454 180.65 63.4683 180.698L63.6529 180.77L64.3414 179.299L64.1448 179.215C63.8372 179.095 63.407 179.048 63.0994 179.048C62.3495 179.048 61.7223 179.287 61.3042 179.741C60.9353 180.136 60.7263 180.686 60.7263 181.296V181.942H59.9885V183.45H60.7263L60.7386 187.05Z" fill="white"/>
<path d="M38.4321 179.012V187.038H40.2397V182.445L41.9982 183.713L43.7443 182.445V187.038H45.552L45.5643 179.012L41.9982 181.631L38.4321 179.012Z" fill="white"/>
<path d="M67.2436 181.045C65.1533 181.045 64.0219 182.588 64.0219 184.048C64.0219 185.507 65.1533 187.05 67.2436 187.05C68.2028 187.038 69.1004 186.62 69.8013 185.842L68.4488 185.124C68.1043 185.471 67.6741 185.651 67.2068 185.651C66.5183 185.651 65.9155 185.208 65.7557 184.622H70.2811V184.227C70.2811 182.038 68.498 181.045 67.2436 181.045ZM65.7925 183.306C66.014 182.756 66.481 182.445 67.0838 182.445C67.6986 182.445 68.178 182.756 68.4239 183.318L65.7925 183.306Z" fill="white"/>
<path d="M74.0436 181.045C71.9533 181.045 70.8218 182.588 70.8218 184.048C70.8218 185.507 71.9533 187.05 74.0436 187.05C75.0028 187.038 75.9008 186.62 76.6017 185.842L75.2487 185.124C74.9047 185.471 74.4741 185.651 74.0067 185.651C73.3182 185.651 72.7159 185.208 72.5557 184.622H77.0811V184.227C77.0811 182.038 75.3104 181.045 74.0436 181.045ZM72.5929 183.306C72.814 182.756 73.2814 182.433 73.8838 182.445C74.4986 182.445 74.9784 182.756 75.2243 183.318L72.5929 183.306Z" fill="white"/>
<path fill-rule="evenodd" clip-rule="evenodd" d="M30.3784 181.008L26 179V186.99L30.3746 189L34.7568 186.99V179L30.3784 181.008ZM30.3784 182.97L30.3821 182.971V182.968L32.9509 181.787V185.854L30.3784 187.037L27.8058 185.854V181.787L30.3746 182.968V182.971L30.3784 182.97Z" fill="white"/>
<path d="M78.1363 181.112V181.343H77.7415V182.54H77.4441V181.343H77.0493V181.112H78.1363Z" fill="white"/>
<path d="M79.9683 181.112V182.54H79.6713V181.611L79.2743 182.54H79.0492L78.65 181.611V182.54H78.353V181.112H78.6905L79.1615 182.174L79.6329 181.112H79.9683Z" fill="white"/>
</g>
<path d="M20 260C20 264.418 23.5817 268 28 268H267C271.418 268 275 264.418 275 260V128H20V260Z" fill="#1E2D3D"/>
<path d="M64.0517 152.912C63.5657 152.912 63.1187 152.834 62.7107 152.678C62.3027 152.516 61.9487 152.291 61.6487 152.003C61.3487 151.709 61.1147 151.367 60.9467 150.977C60.7787 150.587 60.6947 150.158 60.6947 149.69C60.6947 149.222 60.7787 148.793 60.9467 148.403C61.1147 148.013 61.3487 147.674 61.6487 147.386C61.9547 147.092 62.3117 146.867 62.7197 146.711C63.1277 146.549 63.5777 146.468 64.0697 146.468C64.5677 146.468 65.0237 146.549 65.4377 146.711C65.8517 146.873 66.2027 147.116 66.4907 147.44L65.9327 147.998C65.6747 147.746 65.3927 147.563 65.0867 147.449C64.7867 147.329 64.4597 147.269 64.1057 147.269C63.7457 147.269 63.4097 147.329 63.0977 147.449C62.7917 147.569 62.5247 147.737 62.2967 147.953C62.0747 148.169 61.9007 148.427 61.7747 148.727C61.6547 149.021 61.5947 149.342 61.5947 149.69C61.5947 150.032 61.6547 150.353 61.7747 150.653C61.9007 150.947 62.0747 151.205 62.2967 151.427C62.5247 151.643 62.7917 151.811 63.0977 151.931C63.4037 152.051 63.7367 152.111 64.0967 152.111C64.4327 152.111 64.7537 152.06 65.0597 151.958C65.3717 151.85 65.6597 151.673 65.9237 151.427L66.4367 152.111C66.1247 152.375 65.7587 152.576 65.3387 152.714C64.9247 152.846 64.4957 152.912 64.0517 152.912ZM65.5727 151.994V149.654H66.4367V152.111L65.5727 151.994ZM70.0768 152.894C69.5968 152.894 69.1708 152.789 68.7988 152.579C68.4268 152.369 68.1328 152.081 67.9168 151.715C67.7008 151.343 67.5928 150.923 67.5928 150.455C67.5928 149.981 67.7008 149.561 67.9168 149.195C68.1328 148.829 68.4268 148.544 68.7988 148.34C69.1708 148.13 69.5968 148.025 70.0768 148.025C70.5508 148.025 70.9738 148.13 71.3458 148.34C71.7238 148.544 72.0178 148.829 72.2278 149.195C72.4438 149.555 72.5518 149.975 72.5518 150.455C72.5518 150.929 72.4438 151.349 72.2278 151.715C72.0178 152.081 71.7238 152.369 71.3458 152.579C70.9738 152.789 70.5508 152.894 70.0768 152.894ZM70.0768 152.138C70.3828 152.138 70.6558 152.069 70.8958 151.931C71.1418 151.793 71.3338 151.598 71.4718 151.346C71.6098 151.088 71.6788 150.791 71.6788 150.455C71.6788 150.113 71.6098 149.819 71.4718 149.573C71.3338 149.321 71.1418 149.126 70.8958 148.988C70.6558 148.85 70.3828 148.781 70.0768 148.781C69.7708 148.781 69.4978 148.85 69.2578 148.988C69.0178 149.126 68.8258 149.321 68.6818 149.573C68.5378 149.819 68.4658 150.113 68.4658 150.455C68.4658 150.791 68.5378 151.088 68.6818 151.346C68.8258 151.598 69.0178 151.793 69.2578 151.931C69.4978 152.069 69.7708 152.138 70.0768 152.138ZM75.7897 152.894C75.3097 152.894 74.8837 152.789 74.5117 152.579C74.1397 152.369 73.8457 152.081 73.6297 151.715C73.4137 151.343 73.3057 150.923 73.3057 150.455C73.3057 149.981 73.4137 149.561 73.6297 149.195C73.8457 148.829 74.1397 148.544 74.5117 148.34C74.8837 148.13 75.3097 148.025 75.7897 148.025C76.2637 148.025 76.6867 148.13 77.0587 148.34C77.4367 148.544 77.7307 148.829 77.9407 149.195C78.1567 149.555 78.2647 149.975 78.2647 150.455C78.2647 150.929 78.1567 151.349 77.9407 151.715C77.7307 152.081 77.4367 152.369 77.0587 152.579C76.6867 152.789 76.2637 152.894 75.7897 152.894ZM75.7897 152.138C76.0957 152.138 76.3687 152.069 76.6087 151.931C76.8547 151.793 77.0467 151.598 77.1847 151.346C77.3227 151.088 77.3917 150.791 77.3917 150.455C77.3917 150.113 77.3227 149.819 77.1847 149.573C77.0467 149.321 76.8547 149.126 76.6087 148.988C76.3687 148.85 76.0957 148.781 75.7897 148.781C75.4837 148.781 75.2107 148.85 74.9707 148.988C74.7307 149.126 74.5387 149.321 74.3947 149.573C74.2507 149.819 74.1787 150.113 74.1787 150.455C74.1787 150.791 74.2507 151.088 74.3947 151.346C74.5387 151.598 74.7307 151.793 74.9707 151.931C75.2107 152.069 75.4837 152.138 75.7897 152.138ZM81.5476 154.64C81.1096 154.64 80.6836 154.577 80.2696 154.451C79.8616 154.331 79.5286 154.157 79.2706 153.929L79.6846 153.263C79.9066 153.455 80.1796 153.605 80.5036 153.713C80.8276 153.827 81.1666 153.884 81.5206 153.884C82.0846 153.884 82.4986 153.752 82.7626 153.488C83.0266 153.224 83.1586 152.822 83.1586 152.282V151.274L83.2486 150.329L83.2036 149.375V148.07H84.0226V152.192C84.0226 153.032 83.8126 153.65 83.3926 154.046C82.9726 154.442 82.3576 154.64 81.5476 154.64ZM81.4396 152.642C80.9776 152.642 80.5636 152.546 80.1976 152.354C79.8376 152.156 79.5496 151.883 79.3336 151.535C79.1236 151.187 79.0186 150.785 79.0186 150.329C79.0186 149.867 79.1236 149.465 79.3336 149.123C79.5496 148.775 79.8376 148.505 80.1976 148.313C80.5636 148.121 80.9776 148.025 81.4396 148.025C81.8476 148.025 82.2196 148.109 82.5556 148.277C82.8916 148.439 83.1586 148.691 83.3566 149.033C83.5606 149.375 83.6626 149.807 83.6626 150.329C83.6626 150.845 83.5606 151.274 83.3566 151.616C83.1586 151.958 82.8916 152.216 82.5556 152.39C82.2196 152.558 81.8476 152.642 81.4396 152.642ZM81.5386 151.886C81.8566 151.886 82.1386 151.82 82.3846 151.688C82.6306 151.556 82.8226 151.373 82.9606 151.139C83.1046 150.905 83.1766 150.635 83.1766 150.329C83.1766 150.023 83.1046 149.753 82.9606 149.519C82.8226 149.285 82.6306 149.105 82.3846 148.979C82.1386 148.847 81.8566 148.781 81.5386 148.781C81.2206 148.781 80.9356 148.847 80.6836 148.979C80.4376 149.105 80.2426 149.285 80.0986 149.519C79.9606 149.753 79.8916 150.023 79.8916 150.329C79.8916 150.635 79.9606 150.905 80.0986 151.139C80.2426 151.373 80.4376 151.556 80.6836 151.688C80.9356 151.82 81.2206 151.886 81.5386 151.886ZM85.6735 152.84V146.162H86.5375V152.84H85.6735ZM90.3112 152.894C89.8012 152.894 89.3512 152.789 88.9612 152.579C88.5772 152.369 88.2772 152.081 88.0612 151.715C87.8512 151.349 87.7462 150.929 87.7462 150.455C87.7462 149.981 87.8482 149.561 88.0522 149.195C88.2622 148.829 88.5472 148.544 88.9072 148.34C89.2732 148.13 89.6842 148.025 90.1402 148.025C90.6022 148.025 91.0102 148.127 91.3642 148.331C91.7182 148.535 91.9942 148.823 92.1922 149.195C92.3962 149.561 92.4982 149.99 92.4982 150.482C92.4982 150.518 92.4952 150.56 92.4892 150.608C92.4892 150.656 92.4862 150.701 92.4802 150.743H88.4212V150.122H92.0302L91.6792 150.338C91.6852 150.032 91.6222 149.759 91.4902 149.519C91.3582 149.279 91.1752 149.093 90.9412 148.961C90.7132 148.823 90.4462 148.754 90.1402 148.754C89.8402 148.754 89.5732 148.823 89.3392 148.961C89.1052 149.093 88.9222 149.282 88.7902 149.528C88.6582 149.768 88.5922 150.044 88.5922 150.356V150.5C88.5922 150.818 88.6642 151.103 88.8082 151.355C88.9582 151.601 89.1652 151.793 89.4292 151.931C89.6932 152.069 89.9962 152.138 90.3382 152.138C90.6202 152.138 90.8752 152.09 91.1032 151.994C91.3372 151.898 91.5412 151.754 91.7152 151.562L92.1922 152.12C91.9762 152.372 91.7062 152.564 91.3822 152.696C91.0642 152.828 90.7072 152.894 90.3112 152.894ZM99.0579 152.912C98.5779 152.912 98.1339 152.834 97.7259 152.678C97.3239 152.516 96.9729 152.291 96.6729 152.003C96.3789 151.709 96.1479 151.367 95.9799 150.977C95.8119 150.587 95.7279 150.158 95.7279 149.69C95.7279 149.222 95.8119 148.793 95.9799 148.403C96.1479 148.013 96.3819 147.674 96.6819 147.386C96.9819 147.092 97.3329 146.867 97.7349 146.711C98.1429 146.549 98.5869 146.468 99.0669 146.468C99.5529 146.468 99.9999 146.552 100.408 146.72C100.822 146.882 101.173 147.125 101.461 147.449L100.876 148.016C100.636 147.764 100.366 147.578 100.066 147.458C99.7659 147.332 99.4449 147.269 99.1029 147.269C98.7489 147.269 98.4189 147.329 98.1129 147.449C97.8129 147.569 97.5519 147.737 97.3299 147.953C97.1079 148.169 96.9339 148.427 96.8079 148.727C96.6879 149.021 96.6279 149.342 96.6279 149.69C96.6279 150.038 96.6879 150.362 96.8079 150.662C96.9339 150.956 97.1079 151.211 97.3299 151.427C97.5519 151.643 97.8129 151.811 98.1129 151.931C98.4189 152.051 98.7489 152.111 99.1029 152.111C99.4449 152.111 99.7659 152.051 100.066 151.931C100.366 151.805 100.636 151.613 100.876 151.355L101.461 151.922C101.173 152.246 100.822 152.492 100.408 152.66C99.9999 152.828 99.5499 152.912 99.0579 152.912ZM105.166 148.025C105.556 148.025 105.898 148.1 106.192 148.25C106.492 148.4 106.726 148.628 106.894 148.934C107.062 149.24 107.146 149.627 107.146 150.095V152.84H106.282V150.194C106.282 149.732 106.168 149.384 105.94 149.15C105.718 148.916 105.403 148.799 104.995 148.799C104.689 148.799 104.422 148.859 104.194 148.979C103.966 149.099 103.789 149.276 103.663 149.51C103.543 149.744 103.483 150.035 103.483 150.383V152.84H102.619V146.162H103.483V149.357L103.312 149.015C103.468 148.703 103.708 148.46 104.032 148.286C104.356 148.112 104.734 148.025 105.166 148.025ZM108.745 152.84V148.07H109.573V149.366L109.492 149.042C109.624 148.712 109.846 148.46 110.158 148.286C110.47 148.112 110.854 148.025 111.31 148.025V148.862C111.274 148.856 111.238 148.853 111.202 148.853C111.172 148.853 111.142 148.853 111.112 148.853C110.65 148.853 110.284 148.991 110.014 149.267C109.744 149.543 109.609 149.942 109.609 150.464V152.84H108.745ZM114.374 152.894C113.894 152.894 113.468 152.789 113.096 152.579C112.724 152.369 112.43 152.081 112.214 151.715C111.998 151.343 111.89 150.923 111.89 150.455C111.89 149.981 111.998 149.561 112.214 149.195C112.43 148.829 112.724 148.544 113.096 148.34C113.468 148.13 113.894 148.025 114.374 148.025C114.848 148.025 115.271 148.13 115.643 148.34C116.021 148.544 116.315 148.829 116.525 149.195C116.741 149.555 116.849 149.975 116.849 150.455C116.849 150.929 116.741 151.349 116.525 151.715C116.315 152.081 116.021 152.369 115.643 152.579C115.271 152.789 114.848 152.894 114.374 152.894ZM114.374 152.138C114.68 152.138 114.953 152.069 115.193 151.931C115.439 151.793 115.631 151.598 115.769 151.346C115.907 151.088 115.976 150.791 115.976 150.455C115.976 150.113 115.907 149.819 115.769 149.573C115.631 149.321 115.439 149.126 115.193 148.988C114.953 148.85 114.68 148.781 114.374 148.781C114.068 148.781 113.795 148.85 113.555 148.988C113.315 149.126 113.123 149.321 112.979 149.573C112.835 149.819 112.763 150.113 112.763 150.455C112.763 150.791 112.835 151.088 112.979 151.346C113.123 151.598 113.315 151.793 113.555 151.931C113.795 152.069 114.068 152.138 114.374 152.138ZM124.011 148.025C124.395 148.025 124.734 148.1 125.028 148.25C125.322 148.4 125.55 148.628 125.712 148.934C125.88 149.24 125.964 149.627 125.964 150.095V152.84H125.1V150.194C125.1 149.732 124.992 149.384 124.776 149.15C124.56 148.916 124.257 148.799 123.867 148.799C123.579 148.799 123.327 148.859 123.111 148.979C122.895 149.099 122.727 149.276 122.607 149.51C122.493 149.744 122.436 150.035 122.436 150.383V152.84H121.572V150.194C121.572 149.732 121.464 149.384 121.248 149.15C121.038 148.916 120.735 148.799 120.339 148.799C120.057 148.799 119.808 148.859 119.592 148.979C119.376 149.099 119.208 149.276 119.088 149.51C118.968 149.744 118.908 150.035 118.908 150.383V152.84H118.044V148.07H118.872V149.339L118.737 149.015C118.887 148.703 119.118 148.46 119.43 148.286C119.742 148.112 120.105 148.025 120.519 148.025C120.975 148.025 121.368 148.139 121.698 148.367C122.028 148.589 122.244 148.928 122.346 149.384L121.995 149.24C122.139 148.874 122.391 148.58 122.751 148.358C123.111 148.136 123.531 148.025 124.011 148.025ZM129.677 152.894C129.167 152.894 128.717 152.789 128.327 152.579C127.943 152.369 127.643 152.081 127.427 151.715C127.217 151.349 127.112 150.929 127.112 150.455C127.112 149.981 127.214 149.561 127.418 149.195C127.628 148.829 127.913 148.544 128.273 148.34C128.639 148.13 129.05 148.025 129.506 148.025C129.968 148.025 130.376 148.127 130.73 148.331C131.084 148.535 131.36 148.823 131.558 149.195C131.762 149.561 131.864 149.99 131.864 150.482C131.864 150.518 131.861 150.56 131.855 150.608C131.855 150.656 131.852 150.701 131.846 150.743H127.787V150.122H131.396L131.045 150.338C131.051 150.032 130.988 149.759 130.856 149.519C130.724 149.279 130.541 149.093 130.307 148.961C130.079 148.823 129.812 148.754 129.506 148.754C129.206 148.754 128.939 148.823 128.705 148.961C128.471 149.093 128.288 149.282 128.156 149.528C128.024 149.768 127.958 150.044 127.958 150.356V150.5C127.958 150.818 128.03 151.103 128.174 151.355C128.324 151.601 128.531 151.793 128.795 151.931C129.059 152.069 129.362 152.138 129.704 152.138C129.986 152.138 130.241 152.09 130.469 151.994C130.703 151.898 130.907 151.754 131.081 151.562L131.558 152.12C131.342 152.372 131.072 152.564 130.748 152.696C130.43 152.828 130.073 152.894 129.677 152.894Z" fill="white"/>
<g clip-path="url(#clip1_0_270)">
<path d="M44.0474 156.278C46.3637 156.278 48.2414 154.398 48.2414 152.078C48.2414 149.759 46.3637 147.878 44.0474 147.878C41.731 147.878 39.8533 149.759 39.8533 152.078C39.8533 154.398 41.731 156.278 44.0474 156.278Z" fill="white"/>
<path d="M44.0474 147.88H51.3105C50.5745 146.603 49.5158 145.543 48.2407 144.805C46.9656 144.068 45.5192 143.68 44.0468 143.68C42.5744 143.68 41.128 144.068 39.8531 144.806C38.5781 145.543 37.5195 146.604 36.7837 147.881L40.4152 154.18L40.4185 154.179C40.0491 153.541 39.8541 152.817 39.8533 152.08C39.8525 151.342 40.0458 150.617 40.4138 149.979C40.7818 149.34 41.3114 148.809 41.9494 148.441C42.5873 148.073 43.3109 147.879 44.0474 147.88Z" fill="url(#paint0_linear_0_270)"/>
<path d="M44.0473 155.405C45.8811 155.405 47.3676 153.916 47.3676 152.08C47.3676 150.244 45.8811 148.755 44.0473 148.755C42.2136 148.755 40.727 150.244 40.727 152.08C40.727 153.916 42.2136 155.405 44.0473 155.405Z" fill="#1A73E8"/>
<path d="M47.6792 154.181L44.0476 160.48C45.5199 160.48 46.9664 160.092 48.2415 159.355C49.5167 158.618 50.5755 157.557 51.3116 156.281C52.0477 155.004 52.4351 153.555 52.4348 152.081C52.4345 150.606 52.0466 149.158 51.3101 147.881H44.047L44.0461 147.884C44.7825 147.883 45.5063 148.076 46.1445 148.444C46.7826 148.812 47.3127 149.342 47.6811 149.98C48.0495 150.619 48.2433 151.344 48.243 152.081C48.2427 152.818 48.0482 153.543 47.6792 154.181Z" fill="url(#paint1_linear_0_270)"/>
<path d="M40.4154 154.181L36.7838 147.882C36.0475 149.159 35.6598 150.607 35.6597 152.082C35.6596 153.556 36.0472 155.005 36.7835 156.282C37.5198 157.558 38.5788 158.619 39.854 159.356C41.1293 160.093 42.5758 160.48 44.0481 160.48L47.6797 154.181L47.6774 154.179C47.3104 154.818 46.7816 155.349 46.1442 155.719C45.5069 156.088 44.7835 156.283 44.0471 156.283C43.3107 156.283 42.5872 156.089 41.9496 155.72C41.312 155.351 40.7828 154.82 40.4154 154.181Z" fill="url(#paint2_linear_0_270)"/>
</g>
<rect x="94.9336" y="175.04" width="161.053" height="7.84" rx="3.92" fill="white"/>
<rect x="94.9336" y="191.84" width="93.9474" height="4.48" rx="2.24" fill="white"/>
<rect opacity="0.5" x="94.9336" y="200.8" width="93.9474" height="4.48" rx="2.24" fill="white"/>
<rect x="34.5391" y="229.92" width="111.842" height="23.52" fill="#4A565F"/>
<rect x="148.618" y="229.92" width="111.842" height="23.52" fill="#4B565E"/>
<rect x="54.6709" y="242.24" width="70.4605" height="2.24" rx="1.12" fill="white"/>
<rect x="166.513" y="238.88" width="70.4605" height="2.24" rx="1.12" fill="white"/>
<rect x="166.513" y="244.48" width="32.4342" height="2.24" rx="1.12" fill="white"/>
<path d="M218.596 24.188C220.484 20.679 225.516 20.679 227.404 24.188L248.482 63.3817C250.274 66.7128 247.861 70.75 244.079 70.75H201.921C198.139 70.75 195.726 66.7128 197.518 63.3817L218.596 24.188Z" fill="#F75C46"/>
<path d="M222.173 54.3731C222.207 55.1192 222.667 55.4922 223.551 55.4922C224.435 55.4922 224.895 55.1192 224.929 54.3731L225.694 41.7824V37.9585C225.694 37.399 225.49 36.9326 225.082 36.5596C224.639 36.1865 224.129 36 223.551 36C222.939 36 222.429 36.2021 222.02 36.6062C221.578 36.9793 221.357 37.4301 221.357 37.9585V41.7824L222.173 54.3731ZM226 60.715C226 60.0933 225.762 59.5648 225.286 59.1295C224.776 58.6943 224.18 58.4767 223.5 58.4767C222.82 58.4767 222.241 58.6943 221.765 59.1295C221.255 59.5648 221 60.0933 221 60.715C221 61.3368 221.255 61.8808 221.765 62.3472C222.241 62.7824 222.82 63 223.5 63C224.18 63 224.776 62.7824 225.286 62.3472C225.762 61.8808 226 61.3368 226 60.715Z" fill="#C01818"/>
<path d="M265.918 55.6249V53.6249H263.918C258.182 53.6249 253.97 52.023 250.389 48.5619L248.999 47.2184L247.609 48.562C244.029 52.023 239.817 53.6249 234.082 53.6249H232.082V55.6249C232.082 56.5171 232.063 57.4712 232.043 58.4719C231.956 62.8416 231.851 68.0974 233.237 72.9431C235.016 79.1603 239.211 84.7432 248.348 87.8909L248.999 88.1154L249.651 87.8909C258.788 84.7432 262.984 79.1603 264.763 72.9432C266.149 68.0973 266.044 62.8413 265.957 58.4716C265.937 57.4711 265.918 56.517 265.918 55.6249Z" fill="#F75C46" stroke="#C01818" stroke-width="4"/>
<path d="M38.2628 40H36.2855L39.2983 31.2727H41.6761L44.6847 40H42.7074L40.5213 33.267H40.4531L38.2628 40ZM38.1392 36.5696H42.8097V38.0099H38.1392V36.5696ZM47.5163 36.2159V40H45.701V33.4545H47.4311V34.6094H47.5078C47.6527 34.2287 47.8956 33.9276 48.2365 33.706C48.5774 33.4815 48.9908 33.3693 49.4766 33.3693C49.9311 33.3693 50.3274 33.4688 50.6655 33.6676C51.0036 33.8665 51.2663 34.1506 51.4538 34.5199C51.6413 34.8864 51.7351 35.3239 51.7351 35.8324V40H49.9197V36.1562C49.9226 35.7557 49.8203 35.4432 49.6129 35.2188C49.4055 34.9915 49.12 34.8778 48.7564 34.8778C48.5121 34.8778 48.2962 34.9304 48.1087 35.0355C47.924 35.1406 47.7791 35.294 47.674 35.4957C47.5717 35.6946 47.5192 35.9347 47.5163 36.2159ZM56.6474 33.4545V34.8182H52.7056V33.4545H56.6474ZM53.6005 31.8864H55.4158V37.9886C55.4158 38.1562 55.4414 38.2869 55.4925 38.3807C55.5437 38.4716 55.6147 38.5355 55.7056 38.5724C55.7994 38.6094 55.9073 38.6278 56.0295 38.6278C56.1147 38.6278 56.1999 38.6207 56.2852 38.6065C56.3704 38.5895 56.4357 38.5767 56.4812 38.5682L56.7667 39.919C56.6758 39.9474 56.5479 39.9801 56.3832 40.017C56.2184 40.0568 56.0181 40.081 55.7823 40.0895C55.3448 40.1065 54.9613 40.0483 54.6317 39.9148C54.305 39.7812 54.0508 39.5739 53.869 39.2926C53.6871 39.0114 53.5977 38.6562 53.6005 38.2273V31.8864ZM57.8299 40V33.4545H59.6452V40H57.8299ZM58.7418 32.6108C58.4719 32.6108 58.2404 32.5213 58.0472 32.3423C57.8569 32.1605 57.7617 31.9432 57.7617 31.6903C57.7617 31.4403 57.8569 31.2259 58.0472 31.0469C58.2404 30.8651 58.4719 30.7741 58.7418 30.7741C59.0117 30.7741 59.2418 30.8651 59.4322 31.0469C59.6254 31.2259 59.7219 31.4403 59.7219 31.6903C59.7219 31.9432 59.6254 32.1605 59.4322 32.3423C59.2418 32.5213 59.0117 32.6108 58.7418 32.6108ZM67.2017 33.4545L64.9134 40H62.8679L60.5795 33.4545H62.4972L63.8565 38.1378H63.9247L65.2798 33.4545H67.2017ZM68.1307 40V33.4545H69.946V40H68.1307ZM69.0426 32.6108C68.7727 32.6108 68.5412 32.5213 68.348 32.3423C68.1577 32.1605 68.0625 31.9432 68.0625 31.6903C68.0625 31.4403 68.1577 31.2259 68.348 31.0469C68.5412 30.8651 68.7727 30.7741 69.0426 30.7741C69.3125 30.7741 69.5426 30.8651 69.733 31.0469C69.9261 31.2259 70.0227 31.4403 70.0227 31.6903C70.0227 31.9432 69.9261 32.1605 69.733 32.3423C69.5426 32.5213 69.3125 32.6108 69.0426 32.6108ZM71.4002 40V33.4545H73.1602V34.5966H73.2283C73.3477 34.1903 73.5479 33.8835 73.8292 33.6761C74.1104 33.4659 74.4343 33.3608 74.8008 33.3608C74.8917 33.3608 74.9897 33.3665 75.0948 33.3778C75.1999 33.3892 75.2923 33.4048 75.3718 33.4247V35.0355C75.2866 35.0099 75.1687 34.9872 75.0181 34.9673C74.8675 34.9474 74.7298 34.9375 74.6048 34.9375C74.3377 34.9375 74.0991 34.9957 73.8888 35.1122C73.6815 35.2259 73.5167 35.3849 73.3945 35.5895C73.2752 35.794 73.2156 36.0298 73.2156 36.2969V40H71.4002ZM80.5078 37.2131V33.4545H82.3232V40H80.5803V38.8111H80.5121C80.3643 39.1946 80.1186 39.5028 79.7749 39.7358C79.4339 39.9687 79.0178 40.0852 78.5263 40.0852C78.0888 40.0852 77.7038 39.9858 77.3714 39.7869C77.0391 39.5881 76.7791 39.3054 76.5916 38.9389C76.407 38.5724 76.3132 38.1335 76.3104 37.6222V33.4545H78.1257V37.2983C78.1286 37.6847 78.2322 37.9901 78.4368 38.2145C78.6413 38.4389 78.9155 38.5511 79.2592 38.5511C79.478 38.5511 79.6825 38.5014 79.8729 38.402C80.0632 38.2997 80.2166 38.1491 80.3331 37.9503C80.4524 37.7514 80.5107 37.5057 80.5078 37.2131ZM89.2212 35.321L87.5593 35.4233C87.5309 35.2812 87.4698 35.1534 87.3761 35.0398C87.2823 34.9233 87.1587 34.831 87.0053 34.7628C86.8548 34.6918 86.6744 34.6562 86.4641 34.6562C86.1829 34.6562 85.9457 34.7159 85.7525 34.8352C85.5593 34.9517 85.4627 35.108 85.4627 35.304C85.4627 35.4602 85.5252 35.5923 85.6502 35.7003C85.7752 35.8082 85.9897 35.8949 86.2937 35.9602L87.4783 36.1989C88.1147 36.3295 88.5891 36.5398 88.9016 36.8295C89.2141 37.1193 89.3704 37.5 89.3704 37.9716C89.3704 38.4006 89.244 38.777 88.9911 39.1009C88.7411 39.4247 88.3974 39.6776 87.9599 39.8594C87.5252 40.0384 87.0238 40.1278 86.4556 40.1278C85.5891 40.1278 84.8988 39.9474 84.3846 39.5866C83.8732 39.223 83.5735 38.7287 83.4854 38.1037L85.271 38.0099C85.3249 38.2741 85.4556 38.4759 85.663 38.6151C85.8704 38.7514 86.136 38.8196 86.4599 38.8196C86.7781 38.8196 87.0337 38.7585 87.2269 38.6364C87.4229 38.5114 87.5224 38.3509 87.5252 38.1548C87.5224 37.9901 87.4528 37.8551 87.3164 37.75C87.18 37.642 86.9698 37.5597 86.6857 37.5028L85.5522 37.277C84.913 37.1491 84.4371 36.9276 84.1246 36.6122C83.815 36.2969 83.6602 35.8949 83.6602 35.4062C83.6602 34.9858 83.7738 34.6236 84.0011 34.3196C84.2312 34.0156 84.5536 33.7812 84.9684 33.6165C85.386 33.4517 85.8746 33.3693 86.4343 33.3693C87.261 33.3693 87.9116 33.544 88.386 33.8935C88.8633 34.2429 89.1417 34.7187 89.2212 35.321Z" fill="white"/>
<path d="M40.981 65L35.847 53.1H38.822L43.31 63.64H41.559L46.115 53.1H48.852L43.701 65H40.981ZM49.808 65V55.854H52.46V65H49.808ZM51.134 54.579C50.6467 54.579 50.25 54.4373 49.944 54.154C49.638 53.8707 49.485 53.5193 49.485 53.1C49.485 52.6807 49.638 52.3293 49.944 52.046C50.25 51.7627 50.6467 51.621 51.134 51.621C51.6213 51.621 52.018 51.757 52.324 52.029C52.63 52.2897 52.783 52.6297 52.783 53.049C52.783 53.491 52.63 53.8593 52.324 54.154C52.0293 54.4373 51.6327 54.579 51.134 54.579ZM54.9213 65V55.854H57.4543V58.438L57.0973 57.69C57.3693 57.044 57.8056 56.5567 58.4063 56.228C59.0069 55.888 59.7379 55.718 60.5993 55.718V58.166C60.4859 58.1547 60.3839 58.149 60.2933 58.149C60.2026 58.1377 60.1063 58.132 60.0043 58.132C59.2789 58.132 58.6896 58.3417 58.2363 58.761C57.7943 59.169 57.5733 59.8093 57.5733 60.682V65H54.9213ZM66.1016 65.136C65.3422 65.136 64.6622 64.9887 64.0616 64.694C63.4722 64.3993 63.0132 63.9517 62.6846 63.351C62.3559 62.739 62.1916 61.9627 62.1916 61.022V55.854H64.8436V60.631C64.8436 61.3903 65.0022 61.9513 65.3196 62.314C65.6482 62.6653 66.1072 62.841 66.6966 62.841C67.1046 62.841 67.4672 62.756 67.7846 62.586C68.1019 62.4047 68.3512 62.1327 68.5326 61.77C68.7139 61.396 68.8046 60.9313 68.8046 60.376V55.854H71.4566V65H68.9406V62.484L69.3996 63.215C69.0936 63.8497 68.6402 64.3313 68.0396 64.66C67.4502 64.9773 66.8042 65.136 66.1016 65.136ZM76.9905 65.136C76.2085 65.136 75.4548 65.0453 74.7295 64.864C74.0155 64.6713 73.4488 64.4333 73.0295 64.15L73.9135 62.246C74.3328 62.5067 74.8258 62.722 75.3925 62.892C75.9705 63.0507 76.5371 63.13 77.0925 63.13C77.7045 63.13 78.1351 63.0563 78.3845 62.909C78.6451 62.7617 78.7755 62.5577 78.7755 62.297C78.7755 62.0817 78.6735 61.923 78.4695 61.821C78.2768 61.7077 78.0161 61.6227 77.6875 61.566C77.3588 61.5093 76.9961 61.4527 76.5995 61.396C76.2141 61.3393 75.8231 61.2657 75.4265 61.175C75.0298 61.073 74.6671 60.9257 74.3385 60.733C74.0098 60.5403 73.7435 60.2797 73.5395 59.951C73.3468 59.6223 73.2505 59.1973 73.2505 58.676C73.2505 58.098 73.4148 57.588 73.7435 57.146C74.0835 56.704 74.5708 56.3583 75.2055 56.109C75.8401 55.8483 76.5995 55.718 77.4835 55.718C78.1068 55.718 78.7415 55.786 79.3875 55.922C80.0335 56.058 80.5718 56.2563 81.0025 56.517L80.1185 58.404C79.6765 58.1433 79.2288 57.9677 78.7755 57.877C78.3335 57.775 77.9028 57.724 77.4835 57.724C76.8941 57.724 76.4635 57.8033 76.1915 57.962C75.9195 58.1207 75.7835 58.3247 75.7835 58.574C75.7835 58.8007 75.8798 58.9707 76.0725 59.084C76.2765 59.1973 76.5428 59.288 76.8715 59.356C77.2001 59.424 77.5571 59.4863 77.9425 59.543C78.3391 59.5883 78.7358 59.662 79.1325 59.764C79.5291 59.866 79.8861 60.0133 80.2035 60.206C80.5321 60.3873 80.7985 60.6423 81.0025 60.971C81.2065 61.2883 81.3085 61.7077 81.3085 62.229C81.3085 62.7957 81.1385 63.3 80.7985 63.742C80.4585 64.1727 79.9655 64.5127 79.3195 64.762C78.6848 65.0113 77.9085 65.136 76.9905 65.136ZM91.6862 65.136C90.8248 65.136 90.0485 64.9433 89.3572 64.558C88.6658 64.1613 88.1162 63.6117 87.7082 62.909C87.3115 62.2063 87.1132 61.379 87.1132 60.427C87.1132 59.4637 87.3115 58.6307 87.7082 57.928C88.1162 57.2253 88.6658 56.6813 89.3572 56.296C90.0485 55.9107 90.8248 55.718 91.6862 55.718C92.4568 55.718 93.1312 55.888 93.7092 56.228C94.2872 56.568 94.7348 57.0837 95.0522 57.775C95.3695 58.4663 95.5282 59.3503 95.5282 60.427C95.5282 61.4923 95.3752 62.3763 95.0692 63.079C94.7632 63.7703 94.3212 64.286 93.7432 64.626C93.1765 64.966 92.4908 65.136 91.6862 65.136ZM92.1452 62.96C92.5758 62.96 92.9668 62.858 93.3182 62.654C93.6695 62.45 93.9472 62.161 94.1512 61.787C94.3665 61.4017 94.4742 60.9483 94.4742 60.427C94.4742 59.8943 94.3665 59.441 94.1512 59.067C93.9472 58.693 93.6695 58.404 93.3182 58.2C92.9668 57.996 92.5758 57.894 92.1452 57.894C91.7032 57.894 91.3065 57.996 90.9552 58.2C90.6038 58.404 90.3205 58.693 90.1052 59.067C89.9012 59.441 89.7992 59.8943 89.7992 60.427C89.7992 60.9483 89.9012 61.4017 90.1052 61.787C90.3205 62.161 90.6038 62.45 90.9552 62.654C91.3065 62.858 91.7032 62.96 92.1452 62.96ZM94.5422 65V63.13L94.5932 60.41L94.4232 57.707V52.386H97.0752V65H94.5422ZM104.069 65.136C103.026 65.136 102.108 64.932 101.315 64.524C100.533 64.116 99.9263 63.5607 99.4957 62.858C99.065 62.144 98.8497 61.3337 98.8497 60.427C98.8497 59.509 99.0593 58.6987 99.4787 57.996C99.9093 57.282 100.493 56.7267 101.23 56.33C101.966 55.922 102.799 55.718 103.729 55.718C104.624 55.718 105.429 55.9107 106.143 56.296C106.868 56.67 107.44 57.214 107.86 57.928C108.279 58.6307 108.489 59.475 108.489 60.461C108.489 60.563 108.483 60.682 108.472 60.818C108.46 60.9427 108.449 61.0617 108.438 61.175H101.009V59.628H107.044L106.024 60.087C106.024 59.611 105.927 59.1973 105.735 58.846C105.542 58.4947 105.276 58.2227 104.936 58.03C104.596 57.826 104.199 57.724 103.746 57.724C103.292 57.724 102.89 57.826 102.539 58.03C102.199 58.2227 101.932 58.5003 101.74 58.863C101.547 59.2143 101.451 59.6337 101.451 60.121V60.529C101.451 61.0277 101.558 61.4697 101.774 61.855C102 62.229 102.312 62.518 102.709 62.722C103.117 62.9147 103.593 63.011 104.137 63.011C104.624 63.011 105.049 62.9373 105.412 62.79C105.786 62.6427 106.126 62.4217 106.432 62.127L107.843 63.657C107.423 64.133 106.896 64.5013 106.262 64.762C105.627 65.0113 104.896 65.136 104.069 65.136ZM113.994 65.136C112.918 65.136 112.079 64.864 111.478 64.32C110.878 63.7647 110.577 62.943 110.577 61.855V53.831H113.229V61.821C113.229 62.2063 113.331 62.5067 113.535 62.722C113.739 62.926 114.017 63.028 114.368 63.028C114.788 63.028 115.145 62.9147 115.439 62.688L116.153 64.558C115.881 64.7507 115.553 64.898 115.167 65C114.793 65.0907 114.402 65.136 113.994 65.136ZM109.166 58.098V56.058H115.507V58.098H109.166ZM121.899 65.136C120.856 65.136 119.938 64.932 119.145 64.524C118.363 64.116 117.756 63.5607 117.326 62.858C116.895 62.144 116.68 61.3337 116.68 60.427C116.68 59.509 116.889 58.6987 117.309 57.996C117.739 57.282 118.323 56.7267 119.06 56.33C119.796 55.922 120.629 55.718 121.559 55.718C122.454 55.718 123.259 55.9107 123.973 56.296C124.698 56.67 125.27 57.214 125.69 57.928C126.109 58.6307 126.319 59.475 126.319 60.461C126.319 60.563 126.313 60.682 126.302 60.818C126.29 60.9427 126.279 61.0617 126.268 61.175H118.839V59.628H124.874L123.854 60.087C123.854 59.611 123.757 59.1973 123.565 58.846C123.372 58.4947 123.106 58.2227 122.766 58.03C122.426 57.826 122.029 57.724 121.576 57.724C121.122 57.724 120.72 57.826 120.369 58.03C120.029 58.2227 119.762 58.5003 119.57 58.863C119.377 59.2143 119.281 59.6337 119.281 60.121V60.529C119.281 61.0277 119.388 61.4697 119.604 61.855C119.83 62.229 120.142 62.518 120.539 62.722C120.947 62.9147 121.423 63.011 121.967 63.011C122.454 63.011 122.879 62.9373 123.242 62.79C123.616 62.6427 123.956 62.4217 124.262 62.127L125.673 63.657C125.253 64.133 124.726 64.5013 124.092 64.762C123.457 65.0113 122.726 65.136 121.899 65.136ZM132.504 65.136C131.518 65.136 130.64 64.9377 129.869 64.541C129.099 64.133 128.492 63.572 128.05 62.858C127.62 62.144 127.404 61.3337 127.404 60.427C127.404 59.509 127.62 58.6987 128.05 57.996C128.492 57.282 129.099 56.7267 129.869 56.33C130.64 55.922 131.518 55.718 132.504 55.718C133.468 55.718 134.306 55.922 135.02 56.33C135.734 56.7267 136.261 57.299 136.601 58.047L134.544 59.152C134.306 58.7213 134.006 58.404 133.643 58.2C133.292 57.996 132.907 57.894 132.487 57.894C132.034 57.894 131.626 57.996 131.263 58.2C130.901 58.404 130.612 58.693 130.396 59.067C130.192 59.441 130.09 59.8943 130.09 60.427C130.09 60.9597 130.192 61.413 130.396 61.787C130.612 62.161 130.901 62.45 131.263 62.654C131.626 62.858 132.034 62.96 132.487 62.96C132.907 62.96 133.292 62.8637 133.643 62.671C134.006 62.467 134.306 62.144 134.544 61.702L136.601 62.824C136.261 63.5607 135.734 64.133 135.02 64.541C134.306 64.9377 133.468 65.136 132.504 65.136ZM142.001 65.136C140.924 65.136 140.086 64.864 139.485 64.32C138.884 63.7647 138.584 62.943 138.584 61.855V53.831H141.236V61.821C141.236 62.2063 141.338 62.5067 141.542 62.722C141.746 62.926 142.024 63.028 142.375 63.028C142.794 63.028 143.151 62.9147 143.446 62.688L144.16 64.558C143.888 64.7507 143.559 64.898 143.174 65C142.8 65.0907 142.409 65.136 142.001 65.136ZM137.173 58.098V56.058H143.514V58.098H137.173ZM149.906 65.136C148.863 65.136 147.945 64.932 147.152 64.524C146.37 64.116 145.763 63.5607 145.333 62.858C144.902 62.144 144.687 61.3337 144.687 60.427C144.687 59.509 144.896 58.6987 145.316 57.996C145.746 57.282 146.33 56.7267 147.067 56.33C147.803 55.922 148.636 55.718 149.566 55.718C150.461 55.718 151.266 55.9107 151.98 56.296C152.705 56.67 153.277 57.214 153.697 57.928C154.116 58.6307 154.326 59.475 154.326 60.461C154.326 60.563 154.32 60.682 154.309 60.818C154.297 60.9427 154.286 61.0617 154.275 61.175H146.846V59.628H152.881L151.861 60.087C151.861 59.611 151.764 59.1973 151.572 58.846C151.379 58.4947 151.113 58.2227 150.773 58.03C150.433 57.826 150.036 57.724 149.583 57.724C149.129 57.724 148.727 57.826 148.376 58.03C148.036 58.2227 147.769 58.5003 147.577 58.863C147.384 59.2143 147.288 59.6337 147.288 60.121V60.529C147.288 61.0277 147.395 61.4697 147.611 61.855C147.837 62.229 148.149 62.518 148.546 62.722C148.954 62.9147 149.43 63.011 149.974 63.011C150.461 63.011 150.886 62.9373 151.249 62.79C151.623 62.6427 151.963 62.4217 152.269 62.127L153.68 63.657C153.26 64.133 152.733 64.5013 152.099 64.762C151.464 65.0113 150.733 65.136 149.906 65.136ZM160.018 65.136C159.157 65.136 158.381 64.9433 157.689 64.558C156.998 64.1613 156.448 63.6117 156.04 62.909C155.644 62.2063 155.445 61.379 155.445 60.427C155.445 59.4637 155.644 58.6307 156.04 57.928C156.448 57.2253 156.998 56.6813 157.689 56.296C158.381 55.9107 159.157 55.718 160.018 55.718C160.789 55.718 161.463 55.888 162.041 56.228C162.619 56.568 163.067 57.0837 163.384 57.775C163.702 58.4663 163.86 59.3503 163.86 60.427C163.86 61.4923 163.707 62.3763 163.401 63.079C163.095 63.7703 162.653 64.286 162.075 64.626C161.509 64.966 160.823 65.136 160.018 65.136ZM160.477 62.96C160.908 62.96 161.299 62.858 161.65 62.654C162.002 62.45 162.279 62.161 162.483 61.787C162.699 61.4017 162.806 60.9483 162.806 60.427C162.806 59.8943 162.699 59.441 162.483 59.067C162.279 58.693 162.002 58.404 161.65 58.2C161.299 57.996 160.908 57.894 160.477 57.894C160.035 57.894 159.639 57.996 159.287 58.2C158.936 58.404 158.653 58.693 158.437 59.067C158.233 59.441 158.131 59.8943 158.131 60.427C158.131 60.9483 158.233 61.4017 158.437 61.787C158.653 62.161 158.936 62.45 159.287 62.654C159.639 62.858 160.035 62.96 160.477 62.96ZM162.874 65V63.13L162.925 60.41L162.755 57.707V52.386H165.407V65H162.874Z" fill="white"/>
<rect x="36" y="172" width="48" height="46" rx="3" fill="#C01818"/>
<path fill-rule="evenodd" clip-rule="evenodd" d="M60 188.618L50 184V202.378L59.9914 207L70 202.378V184L60 188.618ZM60 193.13L60.0086 193.134V193.126L65.8756 190.41V199.764L60 202.484L54.1244 199.764V190.41L59.9914 193.126V193.134L60 193.13Z" fill="white"/>
</g>
<defs>
<filter id="filter0_d_0_270" x="0" y="0" width="295" height="292" filterUnits="userSpaceOnUse" color-interpolation-filters="sRGB">
<feFlood flood-opacity="0" result="BackgroundImageFix"/>
<feColorMatrix in="SourceAlpha" type="matrix" values="0 0 0 0 0 0 0 0 0 0 0 0 0 0 0 0 0 0 127 0" result="hardAlpha"/>
<feOffset dy="4"/>
<feGaussianBlur stdDeviation="10"/>
<feComposite in2="hardAlpha" operator="out"/>
<feColorMatrix type="matrix" values="0 0 0 0 0.0488428 0 0 0 0 0.0628443 0 0 0 0 0.188858 0 0 0 0.57 0"/>
<feBlend mode="normal" in2="BackgroundImageFix" result="effect1_dropShadow_0_270"/>
<feBlend mode="normal" in="SourceGraphic" in2="effect1_dropShadow_0_270" result="shape"/>
</filter>
<linearGradient id="paint0_linear_0_270" x1="36.7837" y1="148.93" x2="51.3105" y2="148.93" gradientUnits="userSpaceOnUse">
<stop stop-color="#D93025"/>
<stop offset="1" stop-color="#EA4335"/>
</linearGradient>
<linearGradient id="paint1_linear_0_270" x1="42.9016" y1="160.368" x2="50.1804" y2="147.778" gradientUnits="userSpaceOnUse">
<stop stop-color="#FCC934"/>
<stop offset="1" stop-color="#FBBC04"/>
</linearGradient>
<linearGradient id="paint2_linear_0_270" x1="44.9553" y1="159.956" x2="37.6765" y2="147.366" gradientUnits="userSpaceOnUse">
<stop stop-color="#1E8E3E"/>
<stop offset="1" stop-color="#34A853"/>
</linearGradient>
<clipPath id="clip0_0_270">
<rect width="54" height="10" fill="white" transform="translate(26 179)"/>
</clipPath>
<clipPath id="clip1_0_270">
<rect width="16.7763" height="16.8" fill="white" transform="translate(35.6592 143.68)"/>
</clipPath>
</defs>
</svg>
